<?xml version="1.0" encoding="UTF-8" standalone="no"?>
<!DOCTYPE svg PUBLIC "-//W3C//DTD SVG 1.1//EN"
 "http://www.w3.org/Graphics/SVG/1.1/DTD/svg11.dtd">
<!-- Generated by graphviz version 2.26.3 (20100126.1600)
 -->
<!-- Title: g Pages: 1 -->
<svg width="208pt" height="212pt"
 viewBox="0.00 0.00 207.76 212.07" xmlns="http://www.w3.org/2000/svg" xmlns:xlink="http://www.w3.org/1999/xlink">
<g id="graph1" class="graph" transform="scale(1 1) rotate(0) translate(4 208.068)">
<title>g</title>
<polygon fill="white" stroke="white" points="-4,5 -4,-208.068 204.76,-208.068 204.76,5 -4,5"/>
<!-- N1 -->
<g id="node1" class="node"><title>N1</title>
<polygon fill="#ffffff" stroke="#ffffff" stroke-width="1.5" points="84.7827,-84.0135 114.783,-84.0135 126.783,-96.0135 126.783,-108.014 114.783,-120.014 84.7827,-120.014 72.7827,-108.014 72.7827,-96.0135 84.7827,-84.0135"/>
<path fill="#ffffff" stroke="#ffffff" stroke-width="1.5" d="M114.783,-84.0135C120.783,-84.0135 126.783,-90.0135 126.783,-96.0135"/>
<path fill="#ffffff" stroke="#ffffff" stroke-width="1.5" d="M126.783,-108.014C126.783,-114.014 120.783,-120.014 114.783,-120.014"/>
<path fill="#ffffff" stroke="#ffffff" stroke-width="1.5" d="M84.7827,-120.014C78.7827,-120.014 72.7827,-114.014 72.7827,-108.014"/>
<path fill="#ffffff" stroke="#ffffff" stroke-width="1.5" d="M72.7827,-96.0135C72.7827,-90.0135 78.7827,-84.0135 84.7827,-84.0135"/>
<polyline fill="none" stroke="#2e3436" stroke-width="1.5" points="84.7827,-84.0135 114.783,-84.0135 "/>
<path fill="none" stroke="#2e3436" stroke-width="1.5" d="M114.783,-84.0135C120.783,-84.0135 126.783,-90.0135 126.783,-96.0135"/>
<polyline fill="none" stroke="#2e3436" stroke-width="1.5" points="126.783,-96.0135 126.783,-108.014 "/>
<path fill="none" stroke="#2e3436" stroke-width="1.5" d="M126.783,-108.014C126.783,-114.014 120.783,-120.014 114.783,-120.014"/>
<polyline fill="none" stroke="#2e3436" stroke-width="1.5" points="114.783,-120.014 84.7827,-120.014 "/>
<path fill="none" stroke="#2e3436" stroke-width="1.5" d="M84.7827,-120.014C78.7827,-120.014 72.7827,-114.014 72.7827,-108.014"/>
<polyline fill="none" stroke="#2e3436" stroke-width="1.5" points="72.7827,-108.014 72.7827,-96.0135 "/>
<path fill="none" stroke="#2e3436" stroke-width="1.5" d="M72.7827,-96.0135C72.7827,-90.0135 78.7827,-84.0135 84.7827,-84.0135"/>
<text text-anchor="middle" x="99.7827" y="-108.814" font-family="FreeSans" font-size="8.00" fill="#1c2021">Node[1]</text>
<polyline fill="none" stroke="#2e3436" stroke-width="1.5" points="72.7827,-102.014 126.783,-102.014 "/>
<text text-anchor="middle" x="99.7827" y="-90.8135" font-family="FreeSans" font-size="8.00" fill="#1c2021"> </text>
</g>
<!-- N2 -->
<g id="node3" class="node"><title>N2</title>
<polygon fill="#ffffff" stroke="#ffffff" stroke-width="1.5" points="156.176,-42.5082 186.176,-42.5082 198.176,-54.5082 198.176,-66.5082 186.176,-78.5082 156.176,-78.5082 144.176,-66.5082 144.176,-54.5082 156.176,-42.5082"/>
<path fill="#ffffff" stroke="#ffffff" stroke-width="1.5" d="M186.176,-42.5082C192.176,-42.5082 198.176,-48.5082 198.176,-54.5082"/>
<path fill="#ffffff" stroke="#ffffff" stroke-width="1.5" d="M198.176,-66.5082C198.176,-72.5082 192.176,-78.5082 186.176,-78.5082"/>
<path fill="#ffffff" stroke="#ffffff" stroke-width="1.5" d="M156.176,-78.5082C150.176,-78.5082 144.176,-72.5082 144.176,-66.5082"/>
<path fill="#ffffff" stroke="#ffffff" stroke-width="1.5" d="M144.176,-54.5082C144.176,-48.5082 150.176,-42.5082 156.176,-42.5082"/>
<polyline fill="none" stroke="#2e3436" stroke-width="1.5" points="156.176,-42.5082 186.176,-42.5082 "/>
<path fill="none" stroke="#2e3436" stroke-width="1.5" d="M186.176,-42.5082C192.176,-42.5082 198.176,-48.5082 198.176,-54.5082"/>
<polyline fill="none" stroke="#2e3436" stroke-width="1.5" points="198.176,-54.5082 198.176,-66.5082 "/>
<path fill="none" stroke="#2e3436" stroke-width="1.5" d="M198.176,-66.5082C198.176,-72.5082 192.176,-78.5082 186.176,-78.5082"/>
<polyline fill="none" stroke="#2e3436" stroke-width="1.5" points="186.176,-78.5082 156.176,-78.5082 "/>
<path fill="none" stroke="#2e3436" stroke-width="1.5" d="M156.176,-78.5082C150.176,-78.5082 144.176,-72.5082 144.176,-66.5082"/>
<polyline fill="none" stroke="#2e3436" stroke-width="1.5" points="144.176,-66.5082 144.176,-54.5082 "/>
<path fill="none" stroke="#2e3436" stroke-width="1.5" d="M144.176,-54.5082C144.176,-48.5082 150.176,-42.5082 156.176,-42.5082"/>
<text text-anchor="middle" x="171.176" y="-67.3082" font-family="FreeSans" font-size="8.00" fill="#1c2021">Node[2]</text>
<polyline fill="none" stroke="#2e3436" stroke-width="1.5" points="144.176,-60.5082 198.176,-60.5082 "/>
<text text-anchor="middle" x="171.176" y="-49.3082" font-family="FreeSans" font-size="8.00" fill="#1c2021"> </text>
</g>
<!-- N1&#45;&gt;N2 -->
<g id="edge2" class="edge"><title>N1&#45;&gt;N2</title>
<path fill="none" stroke="#2e3436" stroke-width="2" d="M127.181,-86.0852C130.536,-84.1349 133.994,-82.1244 137.428,-80.1279"/>
<polygon fill="#2e3436" stroke="#2e3436" points="143.969,-76.3254 139.181,-83.0127 140.978,-78.6424 137.737,-80.5272 137.485,-80.0949 137.234,-79.6626 140.476,-77.7779 135.789,-77.1771 143.969,-76.3254 143.969,-76.3254"/>
<text text-anchor="middle" x="129.305" y="-74.9065" font-family="FreeSans" font-size="8.00" fill="#2e3436">X</text>
</g>
<!-- N3 -->
<g id="node5" class="node"><title>N3</title>
<polygon fill="#ffffff" stroke="#ffffff" stroke-width="1.5" points="84.6173,-1.5 114.617,-1.5 126.617,-13.5 126.617,-25.5 114.617,-37.5 84.6173,-37.5 72.6173,-25.5 72.6173,-13.5 84.6173,-1.5"/>
<path fill="#ffffff" stroke="#ffffff" stroke-width="1.5" d="M114.617,-1.5C120.617,-1.5 126.617,-7.5 126.617,-13.5"/>
<path fill="#ffffff" stroke="#ffffff" stroke-width="1.5" d="M126.617,-25.5C126.617,-31.5 120.617,-37.5 114.617,-37.5"/>
<path fill="#ffffff" stroke="#ffffff" stroke-width="1.5" d="M84.6173,-37.5C78.6173,-37.5 72.6173,-31.5 72.6173,-25.5"/>
<path fill="#ffffff" stroke="#ffffff" stroke-width="1.5" d="M72.6173,-13.5C72.6173,-7.5 78.6173,-1.5 84.6173,-1.5"/>
<polyline fill="none" stroke="#2e3436" stroke-width="1.5" points="84.6173,-1.5 114.617,-1.5 "/>
<path fill="none" stroke="#2e3436" stroke-width="1.5" d="M114.617,-1.5C120.617,-1.5 126.617,-7.5 126.617,-13.5"/>
<polyline fill="none" stroke="#2e3436" stroke-width="1.5" points="126.617,-13.5 126.617,-25.5 "/>
<path fill="none" stroke="#2e3436" stroke-width="1.5" d="M126.617,-25.5C126.617,-31.5 120.617,-37.5 114.617,-37.5"/>
<polyline fill="none" stroke="#2e3436" stroke-width="1.5" points="114.617,-37.5 84.6173,-37.5 "/>
<path fill="none" stroke="#2e3436" stroke-width="1.5" d="M84.6173,-37.5C78.6173,-37.5 72.6173,-31.5 72.6173,-25.5"/>
<polyline fill="none" stroke="#2e3436" stroke-width="1.5" points="72.6173,-25.5 72.6173,-13.5 "/>
<path fill="none" stroke="#2e3436" stroke-width="1.5" d="M72.6173,-13.5C72.6173,-7.5 78.6173,-1.5 84.6173,-1.5"/>
<text text-anchor="middle" x="99.6173" y="-26.3" font-family="FreeSans" font-size="8.00" fill="#1c2021">Node[3]</text>
<polyline fill="none" stroke="#2e3436" stroke-width="1.5" points="72.6173,-19.5 126.617,-19.5 "/>
<text text-anchor="middle" x="99.6173" y="-8.3" font-family="FreeSans" font-size="8.00" fill="#1c2021"> </text>
</g>
<!-- N1&#45;&gt;N3 -->
<g id="edge4" class="edge"><title>N1&#45;&gt;N3</title>
<path fill="none" stroke="#2e3436" stroke-width="2" d="M99.746,-83.7011C99.7235,-72.4842 99.6944,-57.9496 99.6695,-45.5472"/>
<polygon fill="#2e3436" stroke="#2e3436" points="99.6539,-37.7612 103.044,-45.2544 100.161,-41.5102 100.169,-45.2602 99.669,-45.2612 99.169,-45.2622 99.1615,-41.5122 96.294,-45.268 99.6539,-37.7612 99.6539,-37.7612"/>
<text text-anchor="middle" x="95.7078" y="-62.4241" font-family="FreeSans" font-size="8.00" fill="#2e3436">X</text>
</g>
<!-- N4 -->
<g id="node7" class="node"><title>N4</title>
<polygon fill="#ffffff" stroke="#ffffff" stroke-width="1.5" points="14.0364,-126.462 44.0364,-126.462 56.0364,-138.462 56.0364,-150.462 44.0364,-162.462 14.0364,-162.462 2.03641,-150.462 2.03641,-138.462 14.0364,-126.462"/>
<path fill="#ffffff" stroke="#ffffff" stroke-width="1.5" d="M44.0364,-126.462C50.0364,-126.462 56.0364,-132.462 56.0364,-138.462"/>
<path fill="#ffffff" stroke="#ffffff" stroke-width="1.5" d="M56.0364,-150.462C56.0364,-156.462 50.0364,-162.462 44.0364,-162.462"/>
<path fill="#ffffff" stroke="#ffffff" stroke-width="1.5" d="M14.0364,-162.462C8.03641,-162.462 2.03641,-156.462 2.03641,-150.462"/>
<path fill="#ffffff" stroke="#ffffff" stroke-width="1.5" d="M2.03641,-138.462C2.03641,-132.462 8.03641,-126.462 14.0364,-126.462"/>
<polyline fill="none" stroke="#2e3436" stroke-width="1.5" points="14.0364,-126.462 44.0364,-126.462 "/>
<path fill="none" stroke="#2e3436" stroke-width="1.5" d="M44.0364,-126.462C50.0364,-126.462 56.0364,-132.462 56.0364,-138.462"/>
<polyline fill="none" stroke="#2e3436" stroke-width="1.5" points="56.0364,-138.462 56.0364,-150.462 "/>
<path fill="none" stroke="#2e3436" stroke-width="1.5" d="M56.0364,-150.462C56.0364,-156.462 50.0364,-162.462 44.0364,-162.462"/>
<polyline fill="none" stroke="#2e3436" stroke-width="1.5" points="44.0364,-162.462 14.0364,-162.462 "/>
<path fill="none" stroke="#2e3436" stroke-width="1.5" d="M14.0364,-162.462C8.03641,-162.462 2.03641,-156.462 2.03641,-150.462"/>
<polyline fill="none" stroke="#2e3436" stroke-width="1.5" points="2.03641,-150.462 2.03641,-138.462 "/>
<path fill="none" stroke="#2e3436" stroke-width="1.5" d="M2.03641,-138.462C2.03641,-132.462 8.03641,-126.462 14.0364,-126.462"/>
<text text-anchor="middle" x="29.0364" y="-151.262" font-family="FreeSans" font-size="8.00" fill="#1c2021">Node[4]</text>
<polyline fill="none" stroke="#2e3436" stroke-width="1.5" points="2.03641,-144.462 56.0364,-144.462 "/>
<text text-anchor="middle" x="29.0364" y="-133.262" font-family="FreeSans" font-size="8.00" fill="#1c2021"> </text>
</g>
<!-- N1&#45;&gt;N4 -->
<g id="edge6" class="edge"><title>N1&#45;&gt;N4</title>
<path fill="none" stroke="#2e3436" stroke-width="2" d="M72.6327,-118.304C69.4861,-120.192 66.2477,-122.135 63.0246,-124.069"/>
<polygon fill="#2e3436" stroke="#2e3436" points="56.4647,-128.004 61.1595,-121.252 59.4231,-125.646 62.6387,-123.717 62.8959,-124.146 63.1532,-124.574 59.9376,-126.504 64.6324,-127.04 56.4647,-128.004 56.4647,-128.004"/>
<text text-anchor="middle" x="64.8287" y="-112.986" font-family="FreeSans" font-size="8.00" fill="#2e3436">X</text>
</g>
<!-- N5 -->
<g id="node9" class="node"><title>N5</title>
<polygon fill="#ffffff" stroke="#ffffff" stroke-width="1.5" points="156.76,-124.55 186.76,-124.55 198.76,-136.55 198.76,-148.55 186.76,-160.55 156.76,-160.55 144.76,-148.55 144.76,-136.55 156.76,-124.55"/>
<path fill="#ffffff" stroke="#ffffff" stroke-width="1.5" d="M186.76,-124.55C192.76,-124.55 198.76,-130.55 198.76,-136.55"/>
<path fill="#ffffff" stroke="#ffffff" stroke-width="1.5" d="M198.76,-148.55C198.76,-154.55 192.76,-160.55 186.76,-160.55"/>
<path fill="#ffffff" stroke="#ffffff" stroke-width="1.5" d="M156.76,-160.55C150.76,-160.55 144.76,-154.55 144.76,-148.55"/>
<path fill="#ffffff" stroke="#ffffff" stroke-width="1.5" d="M144.76,-136.55C144.76,-130.55 150.76,-124.55 156.76,-124.55"/>
<polyline fill="none" stroke="#2e3436" stroke-width="1.5" points="156.76,-124.55 186.76,-124.55 "/>
<path fill="none" stroke="#2e3436" stroke-width="1.5" d="M186.76,-124.55C192.76,-124.55 198.76,-130.55 198.76,-136.55"/>
<polyline fill="none" stroke="#2e3436" stroke-width="1.5" points="198.76,-136.55 198.76,-148.55 "/>
<path fill="none" stroke="#2e3436" stroke-width="1.5" d="M198.76,-148.55C198.76,-154.55 192.76,-160.55 186.76,-160.55"/>
<polyline fill="none" stroke="#2e3436" stroke-width="1.5" points="186.76,-160.55 156.76,-160.55 "/>
<path fill="none" stroke="#2e3436" stroke-width="1.5" d="M156.76,-160.55C150.76,-160.55 144.76,-154.55 144.76,-148.55"/>
<polyline fill="none" stroke="#2e3436" stroke-width="1.5" points="144.76,-148.55 144.76,-136.55 "/>
<path fill="none" stroke="#2e3436" stroke-width="1.5" d="M144.76,-136.55C144.76,-130.55 150.76,-124.55 156.76,-124.55"/>
<text text-anchor="middle" x="171.76" y="-149.35" font-family="FreeSans" font-size="8.00" fill="#1c2021">Node[5]</text>
<polyline fill="none" stroke="#2e3436" stroke-width="1.5" points="144.76,-142.55 198.76,-142.55 "/>
<text text-anchor="middle" x="171.76" y="-131.35" font-family="FreeSans" font-size="8.00" fill="#1c2021"> </text>
</g>
<!-- N1&#45;&gt;N5 -->
<g id="edge8" class="edge"><title>N1&#45;&gt;N5</title>
<path fill="none" stroke="#2e3436" stroke-width="2" d="M126.994,-117.339C130.577,-119.356 134.284,-121.444 137.96,-123.514"/>
<polygon fill="#2e3436" stroke="#2e3436" points="144.51,-127.203 136.319,-126.464 140.997,-125.799 137.73,-123.958 137.975,-123.523 138.221,-123.087 141.488,-124.927 139.632,-120.582 144.51,-127.203 144.51,-127.203"/>
<text text-anchor="middle" x="129.477" y="-124.226" font-family="FreeSans" font-size="8.00" fill="#2e3436">X</text>
</g>
<!-- N6 -->
<g id="node11" class="node"><title>N6</title>
<polygon fill="#ffffff" stroke="#ffffff" stroke-width="1.5" points="86.2197,-166.568 116.22,-166.568 128.22,-178.568 128.22,-190.568 116.22,-202.568 86.2197,-202.568 74.2197,-190.568 74.2197,-178.568 86.2197,-166.568"/>
<path fill="#ffffff" stroke="#ffffff" stroke-width="1.5" d="M116.22,-166.568C122.22,-166.568 128.22,-172.568 128.22,-178.568"/>
<path fill="#ffffff" stroke="#ffffff" stroke-width="1.5" d="M128.22,-190.568C128.22,-196.568 122.22,-202.568 116.22,-202.568"/>
<path fill="#ffffff" stroke="#ffffff" stroke-width="1.5" d="M86.2197,-202.568C80.2197,-202.568 74.2197,-196.568 74.2197,-190.568"/>
<path fill="#ffffff" stroke="#ffffff" stroke-width="1.5" d="M74.2197,-178.568C74.2197,-172.568 80.2197,-166.568 86.2197,-166.568"/>
<polyline fill="none" stroke="#2e3436" stroke-width="1.5" points="86.2197,-166.568 116.22,-166.568 "/>
<path fill="none" stroke="#2e3436" stroke-width="1.5" d="M116.22,-166.568C122.22,-166.568 128.22,-172.568 128.22,-178.568"/>
<polyline fill="none" stroke="#2e3436" stroke-width="1.5" points="128.22,-178.568 128.22,-190.568 "/>
<path fill="none" stroke="#2e3436" stroke-width="1.5" d="M128.22,-190.568C128.22,-196.568 122.22,-202.568 116.22,-202.568"/>
<polyline fill="none" stroke="#2e3436" stroke-width="1.5" points="116.22,-202.568 86.2197,-202.568 "/>
<path fill="none" stroke="#2e3436" stroke-width="1.5" d="M86.2197,-202.568C80.2197,-202.568 74.2197,-196.568 74.2197,-190.568"/>
<polyline fill="none" stroke="#2e3436" stroke-width="1.5" points="74.2197,-190.568 74.2197,-178.568 "/>
<path fill="none" stroke="#2e3436" stroke-width="1.5" d="M74.2197,-178.568C74.2197,-172.568 80.2197,-166.568 86.2197,-166.568"/>
<text text-anchor="middle" x="101.22" y="-191.368" font-family="FreeSans" font-size="8.00" fill="#1c2021">Node[6]</text>
<polyline fill="none" stroke="#2e3436" stroke-width="1.5" points="74.2197,-184.568 128.22,-184.568 "/>
<text text-anchor="middle" x="101.22" y="-173.368" font-family="FreeSans" font-size="8.00" fill="#1c2021"> </text>
</g>
<!-- N1&#45;&gt;N6 -->
<g id="edge10" class="edge"><title>N1&#45;&gt;N6</title>
<path fill="none" stroke="#2e3436" stroke-width="2" d="M100.102,-120.335C100.297,-131.557 100.55,-146.099 100.766,-158.508"/>
<polygon fill="#2e3436" stroke="#2e3436" points="100.902,-166.297 97.3966,-158.857 100.336,-162.557 100.271,-158.807 100.771,-158.799 101.271,-158.79 101.336,-162.539 104.146,-158.74 100.902,-166.297 100.902,-166.297"/>
<text text-anchor="middle" x="104.434" y="-137.221" font-family="FreeSans" font-size="8.00" fill="#2e3436">X</text>
</g>
<!-- N7 -->
<g id="node13" class="node"><title>N7</title>
<polygon fill="#ffffff" stroke="#ffffff" stroke-width="1.5" points="13,-43.3961 43,-43.3961 55,-55.3961 55,-67.3961 43,-79.3961 13,-79.3961 1,-67.3961 1,-55.3961 13,-43.3961"/>
<path fill="#ffffff" stroke="#ffffff" stroke-width="1.5" d="M43,-43.3961C49,-43.3961 55,-49.3961 55,-55.3961"/>
<path fill="#ffffff" stroke="#ffffff" stroke-width="1.5" d="M55,-67.3961C55,-73.3961 49,-79.3961 43,-79.3961"/>
<path fill="#ffffff" stroke="#ffffff" stroke-width="1.5" d="M13,-79.3961C7,-79.3961 1,-73.3961 1,-67.3961"/>
<path fill="#ffffff" stroke="#ffffff" stroke-width="1.5" d="M1,-55.3961C1,-49.3961 7,-43.3961 13,-43.3961"/>
<polyline fill="none" stroke="#2e3436" stroke-width="1.5" points="13,-43.3961 43,-43.3961 "/>
<path fill="none" stroke="#2e3436" stroke-width="1.5" d="M43,-43.3961C49,-43.3961 55,-49.3961 55,-55.3961"/>
<polyline fill="none" stroke="#2e3436" stroke-width="1.5" points="55,-55.3961 55,-67.3961 "/>
<path fill="none" stroke="#2e3436" stroke-width="1.5" d="M55,-67.3961C55,-73.3961 49,-79.3961 43,-79.3961"/>
<polyline fill="none" stroke="#2e3436" stroke-width="1.5" points="43,-79.3961 13,-79.3961 "/>
<path fill="none" stroke="#2e3436" stroke-width="1.5" d="M13,-79.3961C7,-79.3961 1,-73.3961 1,-67.3961"/>
<polyline fill="none" stroke="#2e3436" stroke-width="1.5" points="1,-67.3961 1,-55.3961 "/>
<path fill="none" stroke="#2e3436" stroke-width="1.5" d="M1,-55.3961C1,-49.3961 7,-43.3961 13,-43.3961"/>
<text text-anchor="middle" x="28" y="-68.1961" font-family="FreeSans" font-size="8.00" fill="#1c2021">Node[7]</text>
<polyline fill="none" stroke="#2e3436" stroke-width="1.5" points="1,-61.3961 55,-61.3961 "/>
<text text-anchor="middle" x="28" y="-50.1961" font-family="FreeSans" font-size="8.00" fill="#1c2021"> </text>
</g>
<!-- N1&#45;&gt;N7 -->
<g id="edge12" class="edge"><title>N1&#45;&gt;N7</title>
<path fill="none" stroke="#2e3436" stroke-width="2" d="M72.6448,-86.6578C69.0716,-84.6359 65.3751,-82.5443 61.7091,-80.47"/>
<polygon fill="#2e3436" stroke="#2e3436" points="55.1764,-76.7735 63.3659,-77.5297 58.6863,-78.1851 61.9501,-80.0319 61.7038,-80.4671 61.4576,-80.9022 58.1939,-79.0554 60.0417,-83.4044 55.1764,-76.7735 55.1764,-76.7735"/>
<text text-anchor="middle" x="64.1769" y="-87.3639" font-family="FreeSans" font-size="8.00" fill="#2e3436">X</text>
</g>
</g>
</svg>
