<?xml version="1.0" encoding="UTF-8" standalone="no"?>
<!DOCTYPE svg PUBLIC "-//W3C//DTD SVG 1.1//EN"
 "http://www.w3.org/Graphics/SVG/1.1/DTD/svg11.dtd">
<!-- Generated by graphviz version 2.26.3 (20100126.1600)
 -->
<!-- Title: g Pages: 1 -->
<svg width="114pt" height="348pt"
 viewBox="0.00 0.00 114.00 348.00" xmlns="http://www.w3.org/2000/svg" xmlns:xlink="http://www.w3.org/1999/xlink">
<g id="graph1" class="graph" transform="scale(1 1) rotate(0) translate(4 344)">
<title>g</title>
<polygon fill="white" stroke="white" points="-4,5 -4,-344 111,-344 111,5 -4,5"/>
<!-- N1 -->
<g id="node1" class="node"><title>N1</title>
<polygon fill="#ffffff" stroke="#ffffff" stroke-width="1.5" points="28,-303 78,-303 90,-315 90,-327 78,-339 28,-339 16,-327 16,-315 28,-303"/>
<path fill="#ffffff" stroke="#ffffff" stroke-width="1.5" d="M78,-303C84,-303 90,-309 90,-315"/>
<path fill="#ffffff" stroke="#ffffff" stroke-width="1.5" d="M90,-327C90,-333 84,-339 78,-339"/>
<path fill="#ffffff" stroke="#ffffff" stroke-width="1.5" d="M28,-339C22,-339 16,-333 16,-327"/>
<path fill="#ffffff" stroke="#ffffff" stroke-width="1.5" d="M16,-315C16,-309 22,-303 28,-303"/>
<polyline fill="none" stroke="#2e3436" stroke-width="1.5" points="28,-303 78,-303 "/>
<path fill="none" stroke="#2e3436" stroke-width="1.5" d="M78,-303C84,-303 90,-309 90,-315"/>
<polyline fill="none" stroke="#2e3436" stroke-width="1.5" points="90,-315 90,-327 "/>
<path fill="none" stroke="#2e3436" stroke-width="1.5" d="M90,-327C90,-333 84,-339 78,-339"/>
<polyline fill="none" stroke="#2e3436" stroke-width="1.5" points="78,-339 28,-339 "/>
<path fill="none" stroke="#2e3436" stroke-width="1.5" d="M28,-339C22,-339 16,-333 16,-327"/>
<polyline fill="none" stroke="#2e3436" stroke-width="1.5" points="16,-327 16,-315 "/>
<path fill="none" stroke="#2e3436" stroke-width="1.5" d="M16,-315C16,-309 22,-303 28,-303"/>
<text text-anchor="middle" x="53" y="-327.8" font-family="FreeSans" font-size="8.00" fill="#1c2021">Node[1]</text>
<polyline fill="none" stroke="#2e3436" stroke-width="1.5" points="16,-321 90,-321 "/>
<text text-anchor="start" x="24" y="-309.8" font-family="FreeSans" font-size="8.00" fill="#1c2021">name = &#39;Bob&#39;</text>
</g>
<!-- N4 -->
<g id="node3" class="node"><title>N4</title>
<polygon fill="#ffffff" stroke="#ffffff" stroke-width="1.5" points="26.5,-209 79.5,-209 91.5,-221 91.5,-243 79.5,-255 26.5,-255 14.5,-243 14.5,-221 26.5,-209"/>
<path fill="#ffffff" stroke="#ffffff" stroke-width="1.5" d="M79.5,-209C85.5,-209 91.5,-215 91.5,-221"/>
<path fill="#ffffff" stroke="#ffffff" stroke-width="1.5" d="M91.5,-243C91.5,-249 85.5,-255 79.5,-255"/>
<path fill="#ffffff" stroke="#ffffff" stroke-width="1.5" d="M26.5,-255C20.5,-255 14.5,-249 14.5,-243"/>
<path fill="#ffffff" stroke="#ffffff" stroke-width="1.5" d="M14.5,-221C14.5,-215 20.5,-209 26.5,-209"/>
<polyline fill="none" stroke="#2e3436" stroke-width="1.5" points="26.5,-209 79.5,-209 "/>
<path fill="none" stroke="#2e3436" stroke-width="1.5" d="M79.5,-209C85.5,-209 91.5,-215 91.5,-221"/>
<polyline fill="none" stroke="#2e3436" stroke-width="1.5" points="91.5,-221 91.5,-243 "/>
<path fill="none" stroke="#2e3436" stroke-width="1.5" d="M91.5,-243C91.5,-249 85.5,-255 79.5,-255"/>
<polyline fill="none" stroke="#2e3436" stroke-width="1.5" points="79.5,-255 26.5,-255 "/>
<path fill="none" stroke="#2e3436" stroke-width="1.5" d="M26.5,-255C20.5,-255 14.5,-249 14.5,-243"/>
<polyline fill="none" stroke="#2e3436" stroke-width="1.5" points="14.5,-243 14.5,-221 "/>
<path fill="none" stroke="#2e3436" stroke-width="1.5" d="M14.5,-221C14.5,-215 20.5,-209 26.5,-209"/>
<text text-anchor="middle" x="53" y="-243.8" font-family="FreeSans" font-size="8.00" fill="#1c2021">Node[4]</text>
<polyline fill="none" stroke="#2e3436" stroke-width="1.5" points="14.5,-237 91.5,-237 "/>
<text text-anchor="start" x="22.5" y="-225.8" font-family="FreeSans" font-size="8.00" fill="#1c2021">text = &#39;Status&#39;</text>
<text text-anchor="start" x="22.5" y="-215.8" font-family="FreeSans" font-size="8.00" fill="#1c2021">date = 123</text>
</g>
<!-- N1&#45;&gt;N4 -->
<g id="edge2" class="edge"><title>N1&#45;&gt;N4</title>
<path fill="none" stroke="#2e3436" stroke-width="2" d="M53,-302.99C53,-291.44 53,-276.149 53,-262.716"/>
<polygon fill="#2e3436" stroke="#2e3436" points="53,-255.064 56.3751,-262.564 53.5,-258.814 53.5001,-262.564 53.0001,-262.564 52.5001,-262.564 52.5,-258.814 49.6251,-262.564 53,-255.064 53,-255.064"/>
<text text-anchor="middle" x="69.5" y="-276.8" font-family="FreeSans" font-size="8.00" fill="#2e3436">STATUS</text>
</g>
<!-- N2 -->
<g id="node4" class="node"><title>N2</title>
<polygon fill="#ffffff" stroke="#ffffff" stroke-width="1.5" points="12,-105 94,-105 106,-117 106,-149 94,-161 12,-161 0,-149 0,-117 12,-105"/>
<path fill="#ffffff" stroke="#ffffff" stroke-width="1.5" d="M94,-105C100,-105 106,-111 106,-117"/>
<path fill="#ffffff" stroke="#ffffff" stroke-width="1.5" d="M106,-149C106,-155 100,-161 94,-161"/>
<path fill="#ffffff" stroke="#ffffff" stroke-width="1.5" d="M12,-161C6,-161 0,-155 0,-149"/>
<path fill="#ffffff" stroke="#ffffff" stroke-width="1.5" d="M0,-117C0,-111 6,-105 12,-105"/>
<polyline fill="none" stroke="#2e3436" stroke-width="1.5" points="12,-105 94,-105 "/>
<path fill="none" stroke="#2e3436" stroke-width="1.5" d="M94,-105C100,-105 106,-111 106,-117"/>
<polyline fill="none" stroke="#2e3436" stroke-width="1.5" points="106,-117 106,-149 "/>
<path fill="none" stroke="#2e3436" stroke-width="1.5" d="M106,-149C106,-155 100,-161 94,-161"/>
<polyline fill="none" stroke="#2e3436" stroke-width="1.5" points="94,-161 12,-161 "/>
<path fill="none" stroke="#2e3436" stroke-width="1.5" d="M12,-161C6,-161 0,-155 0,-149"/>
<polyline fill="none" stroke="#2e3436" stroke-width="1.5" points="0,-149 0,-117 "/>
<path fill="none" stroke="#2e3436" stroke-width="1.5" d="M0,-117C0,-111 6,-105 12,-105"/>
<text text-anchor="middle" x="53" y="-149.8" font-family="FreeSans" font-size="8.00" fill="#1c2021">Node[2]</text>
<polyline fill="none" stroke="#2e3436" stroke-width="1.5" points="0,-143 106,-143 "/>
<text text-anchor="start" x="8" y="-131.8" font-family="FreeSans" font-size="8.00" fill="#1c2021">name = &#39;bob_s1&#39;</text>
<text text-anchor="start" x="8" y="-121.8" font-family="FreeSans" font-size="8.00" fill="#1c2021">text = &#39;bobs status1&#39;</text>
<text text-anchor="start" x="8" y="-111.8" font-family="FreeSans" font-size="8.00" fill="#1c2021">date = 1</text>
</g>
<!-- N4&#45;&gt;N2 -->
<g id="edge6" class="edge"><title>N4&#45;&gt;N2</title>
<path fill="none" stroke="#4e9a06" stroke-width="2" d="M53,-208.789C53,-196.845 53,-182.025 53,-168.666"/>
<polygon fill="#4e9a06" stroke="#4e9a06" points="53,-161.002 56.3751,-168.502 53.5,-164.752 53.5001,-168.502 53.0001,-168.502 52.5001,-168.502 52.5,-164.752 49.6251,-168.502 53,-161.002 53,-161.002"/>
<text text-anchor="middle" x="64" y="-182.8" font-family="FreeSans" font-size="8.00" fill="#4e9a06">NEXT</text>
</g>
<!-- N3 -->
<g id="node6" class="node"><title>N3</title>
<polygon fill="#ffffff" stroke="#ffffff" stroke-width="1.5" points="12,-1 94,-1 106,-13 106,-45 94,-57 12,-57 0,-45 0,-13 12,-1"/>
<path fill="#ffffff" stroke="#ffffff" stroke-width="1.5" d="M94,-1C100,-1 106,-7 106,-13"/>
<path fill="#ffffff" stroke="#ffffff" stroke-width="1.5" d="M106,-45C106,-51 100,-57 94,-57"/>
<path fill="#ffffff" stroke="#ffffff" stroke-width="1.5" d="M12,-57C6,-57 0,-51 0,-45"/>
<path fill="#ffffff" stroke="#ffffff" stroke-width="1.5" d="M0,-13C0,-7 6,-1 12,-1"/>
<polyline fill="none" stroke="#2e3436" stroke-width="1.5" points="12,-1 94,-1 "/>
<path fill="none" stroke="#2e3436" stroke-width="1.5" d="M94,-1C100,-1 106,-7 106,-13"/>
<polyline fill="none" stroke="#2e3436" stroke-width="1.5" points="106,-13 106,-45 "/>
<path fill="none" stroke="#2e3436" stroke-width="1.5" d="M106,-45C106,-51 100,-57 94,-57"/>
<polyline fill="none" stroke="#2e3436" stroke-width="1.5" points="94,-57 12,-57 "/>
<path fill="none" stroke="#2e3436" stroke-width="1.5" d="M12,-57C6,-57 0,-51 0,-45"/>
<polyline fill="none" stroke="#2e3436" stroke-width="1.5" points="0,-45 0,-13 "/>
<path fill="none" stroke="#2e3436" stroke-width="1.5" d="M0,-13C0,-7 6,-1 12,-1"/>
<text text-anchor="middle" x="53" y="-45.8" font-family="FreeSans" font-size="8.00" fill="#1c2021">Node[3]</text>
<polyline fill="none" stroke="#2e3436" stroke-width="1.5" points="0,-39 106,-39 "/>
<text text-anchor="start" x="8" y="-27.8" font-family="FreeSans" font-size="8.00" fill="#1c2021">name = &#39;bob_s2&#39;</text>
<text text-anchor="start" x="8" y="-17.8" font-family="FreeSans" font-size="8.00" fill="#1c2021">text = &#39;bobs status2&#39;</text>
<text text-anchor="start" x="8" y="-7.8" font-family="FreeSans" font-size="8.00" fill="#1c2021">date = 4</text>
</g>
<!-- N2&#45;&gt;N3 -->
<g id="edge4" class="edge"><title>N2&#45;&gt;N3</title>
<path fill="none" stroke="#4e9a06" stroke-width="2" d="M53,-104.856C53,-92.4855 53,-77.8152 53,-64.6881"/>
<polygon fill="#4e9a06" stroke="#4e9a06" points="53,-57.1664 56.3751,-64.6663 53.5,-60.9164 53.5001,-64.6664 53.0001,-64.6664 52.5001,-64.6664 52.5,-60.9164 49.6251,-64.6664 53,-57.1664 53,-57.1664"/>
<text text-anchor="middle" x="64" y="-78.8" font-family="FreeSans" font-size="8.00" fill="#4e9a06">NEXT</text>
</g>
</g>
</svg>
