<?xml version="1.0" encoding="UTF-8" standalone="no"?>
<!DOCTYPE svg PUBLIC "-//W3C//DTD SVG 1.1//EN"
 "http://www.w3.org/Graphics/SVG/1.1/DTD/svg11.dtd">
<!-- Generated by graphviz version 2.26.3 (20100126.1600)
 -->
<!-- Title: g Pages: 1 -->
<svg width="228pt" height="318pt"
 viewBox="0.00 0.00 228.00 318.00" xmlns="http://www.w3.org/2000/svg" xmlns:xlink="http://www.w3.org/1999/xlink">
<g id="graph1" class="graph" transform="scale(1 1) rotate(0) translate(4 314)">
<title>g</title>
<polygon fill="white" stroke="white" points="-4,5 -4,-314 225,-314 225,5 -4,5"/>
<!-- N1 -->
<g id="node1" class="node"><title>N1</title>
<polygon fill="#ffffff" stroke="#ffffff" stroke-width="1.5" points="109.5,-273 166.5,-273 178.5,-285 178.5,-297 166.5,-309 109.5,-309 97.5,-297 97.5,-285 109.5,-273"/>
<path fill="#ffffff" stroke="#ffffff" stroke-width="1.5" d="M166.5,-273C172.5,-273 178.5,-279 178.5,-285"/>
<path fill="#ffffff" stroke="#ffffff" stroke-width="1.5" d="M178.5,-297C178.5,-303 172.5,-309 166.5,-309"/>
<path fill="#ffffff" stroke="#ffffff" stroke-width="1.5" d="M109.5,-309C103.5,-309 97.5,-303 97.5,-297"/>
<path fill="#ffffff" stroke="#ffffff" stroke-width="1.5" d="M97.5,-285C97.5,-279 103.5,-273 109.5,-273"/>
<polyline fill="none" stroke="#2e3436" stroke-width="1.5" points="109.5,-273 166.5,-273 "/>
<path fill="none" stroke="#2e3436" stroke-width="1.5" d="M166.5,-273C172.5,-273 178.5,-279 178.5,-285"/>
<polyline fill="none" stroke="#2e3436" stroke-width="1.5" points="178.5,-285 178.5,-297 "/>
<path fill="none" stroke="#2e3436" stroke-width="1.5" d="M178.5,-297C178.5,-303 172.5,-309 166.5,-309"/>
<polyline fill="none" stroke="#2e3436" stroke-width="1.5" points="166.5,-309 109.5,-309 "/>
<path fill="none" stroke="#2e3436" stroke-width="1.5" d="M109.5,-309C103.5,-309 97.5,-303 97.5,-297"/>
<polyline fill="none" stroke="#2e3436" stroke-width="1.5" points="97.5,-297 97.5,-285 "/>
<path fill="none" stroke="#2e3436" stroke-width="1.5" d="M97.5,-285C97.5,-279 103.5,-273 109.5,-273"/>
<text text-anchor="middle" x="138" y="-297.8" font-family="FreeSans" font-size="8.00" fill="#1c2021">Node[1]</text>
<polyline fill="none" stroke="#2e3436" stroke-width="1.5" points="97.5,-291 178.5,-291 "/>
<text text-anchor="start" x="105.5" y="-279.8" font-family="FreeSans" font-size="8.00" fill="#1c2021">name = &#39;David&#39;</text>
</g>
<!-- N3 -->
<g id="node3" class="node"><title>N3</title>
<polygon fill="#ffffff" stroke="#ffffff" stroke-width="1.5" points="12,-179 96,-179 108,-191 108,-213 96,-225 12,-225 0,-213 0,-191 12,-179"/>
<path fill="#ffffff" stroke="#ffffff" stroke-width="1.5" d="M96,-179C102,-179 108,-185 108,-191"/>
<path fill="#ffffff" stroke="#ffffff" stroke-width="1.5" d="M108,-213C108,-219 102,-225 96,-225"/>
<path fill="#ffffff" stroke="#ffffff" stroke-width="1.5" d="M12,-225C6,-225 0,-219 0,-213"/>
<path fill="#ffffff" stroke="#ffffff" stroke-width="1.5" d="M0,-191C0,-185 6,-179 12,-179"/>
<polyline fill="none" stroke="#2e3436" stroke-width="1.5" points="12,-179 96,-179 "/>
<path fill="none" stroke="#2e3436" stroke-width="1.5" d="M96,-179C102,-179 108,-185 108,-191"/>
<polyline fill="none" stroke="#2e3436" stroke-width="1.5" points="108,-191 108,-213 "/>
<path fill="none" stroke="#2e3436" stroke-width="1.5" d="M108,-213C108,-219 102,-225 96,-225"/>
<polyline fill="none" stroke="#2e3436" stroke-width="1.5" points="96,-225 12,-225 "/>
<path fill="none" stroke="#2e3436" stroke-width="1.5" d="M12,-225C6,-225 0,-219 0,-213"/>
<polyline fill="none" stroke="#2e3436" stroke-width="1.5" points="0,-213 0,-191 "/>
<path fill="none" stroke="#2e3436" stroke-width="1.5" d="M0,-191C0,-185 6,-179 12,-179"/>
<text text-anchor="middle" x="54" y="-213.8" font-family="FreeSans" font-size="8.00" fill="#1c2021">Node[3]</text>
<polyline fill="none" stroke="#2e3436" stroke-width="1.5" points="0,-207 108,-207 "/>
<text text-anchor="start" x="8" y="-195.8" font-family="FreeSans" font-size="8.00" fill="#1c2021">name = &#39;Anders&#39;</text>
<text text-anchor="start" x="8" y="-185.8" font-family="FreeSans" font-size="8.00" fill="#1c2021">connection_count = 2</text>
</g>
<!-- N1&#45;&gt;N3 -->
<g id="edge2" class="edge"><title>N1&#45;&gt;N3</title>
<path fill="none" stroke="#2e3436" stroke-width="2" d="M121.001,-272.99C109.592,-260.901 94.3119,-244.711 81.2253,-230.846"/>
<polygon fill="#2e3436" stroke="#2e3436" points="75.7687,-225.064 83.371,-228.202 78.7062,-227.448 81.2802,-230.176 80.9166,-230.519 80.5529,-230.862 77.979,-228.135 78.4621,-232.835 75.7687,-225.064 75.7687,-225.064"/>
<text text-anchor="middle" x="117.5" y="-246.8" font-family="FreeSans" font-size="8.00" fill="#2e3436">KNOWS</text>
</g>
<!-- N4 -->
<g id="node6" class="node"><title>N4</title>
<polygon fill="#ffffff" stroke="#ffffff" stroke-width="1.5" points="124,-85 208,-85 220,-97 220,-119 208,-131 124,-131 112,-119 112,-97 124,-85"/>
<path fill="#ffffff" stroke="#ffffff" stroke-width="1.5" d="M208,-85C214,-85 220,-91 220,-97"/>
<path fill="#ffffff" stroke="#ffffff" stroke-width="1.5" d="M220,-119C220,-125 214,-131 208,-131"/>
<path fill="#ffffff" stroke="#ffffff" stroke-width="1.5" d="M124,-131C118,-131 112,-125 112,-119"/>
<path fill="#ffffff" stroke="#ffffff" stroke-width="1.5" d="M112,-97C112,-91 118,-85 124,-85"/>
<polyline fill="none" stroke="#2e3436" stroke-width="1.5" points="124,-85 208,-85 "/>
<path fill="none" stroke="#2e3436" stroke-width="1.5" d="M208,-85C214,-85 220,-91 220,-97"/>
<polyline fill="none" stroke="#2e3436" stroke-width="1.5" points="220,-97 220,-119 "/>
<path fill="none" stroke="#2e3436" stroke-width="1.5" d="M220,-119C220,-125 214,-131 208,-131"/>
<polyline fill="none" stroke="#2e3436" stroke-width="1.5" points="208,-131 124,-131 "/>
<path fill="none" stroke="#2e3436" stroke-width="1.5" d="M124,-131C118,-131 112,-125 112,-119"/>
<polyline fill="none" stroke="#2e3436" stroke-width="1.5" points="112,-119 112,-97 "/>
<path fill="none" stroke="#2e3436" stroke-width="1.5" d="M112,-97C112,-91 118,-85 124,-85"/>
<text text-anchor="middle" x="166" y="-119.8" font-family="FreeSans" font-size="8.00" fill="#1c2021">Node[4]</text>
<polyline fill="none" stroke="#2e3436" stroke-width="1.5" points="112,-113 220,-113 "/>
<text text-anchor="start" x="120" y="-101.8" font-family="FreeSans" font-size="8.00" fill="#1c2021">name = &#39;Bossman&#39;</text>
<text text-anchor="start" x="120" y="-91.8" font-family="FreeSans" font-size="8.00" fill="#1c2021">connection_count = 1</text>
</g>
<!-- N3&#45;&gt;N4 -->
<g id="edge4" class="edge"><title>N3&#45;&gt;N4</title>
<path fill="none" stroke="#2e3436" stroke-width="2" d="M79.5937,-178.923C89.8719,-169.793 101.896,-159.282 113,-150 118.49,-145.41 124.371,-140.625 130.145,-135.998"/>
<polygon fill="#2e3436" stroke="#2e3436" points="136.344,-131.056 132.583,-138.37 133.723,-133.784 130.791,-136.122 130.48,-135.731 130.168,-135.34 133.1,-133.002 128.376,-133.092 136.344,-131.056 136.344,-131.056"/>
<text text-anchor="middle" x="128.5" y="-152.8" font-family="FreeSans" font-size="8.00" fill="#2e3436">KNOWS</text>
</g>
<!-- N5 -->
<g id="node8" class="node"><title>N5</title>
<polygon fill="#ffffff" stroke="#ffffff" stroke-width="1.5" points="12.5,-90 71.5,-90 83.5,-102 83.5,-114 71.5,-126 12.5,-126 0.5,-114 0.5,-102 12.5,-90"/>
<path fill="#ffffff" stroke="#ffffff" stroke-width="1.5" d="M71.5,-90C77.5,-90 83.5,-96 83.5,-102"/>
<path fill="#ffffff" stroke="#ffffff" stroke-width="1.5" d="M83.5,-114C83.5,-120 77.5,-126 71.5,-126"/>
<path fill="#ffffff" stroke="#ffffff" stroke-width="1.5" d="M12.5,-126C6.5,-126 0.5,-120 0.5,-114"/>
<path fill="#ffffff" stroke="#ffffff" stroke-width="1.5" d="M0.5,-102C0.5,-96 6.5,-90 12.5,-90"/>
<polyline fill="none" stroke="#2e3436" stroke-width="1.5" points="12.5,-90 71.5,-90 "/>
<path fill="none" stroke="#2e3436" stroke-width="1.5" d="M71.5,-90C77.5,-90 83.5,-96 83.5,-102"/>
<polyline fill="none" stroke="#2e3436" stroke-width="1.5" points="83.5,-102 83.5,-114 "/>
<path fill="none" stroke="#2e3436" stroke-width="1.5" d="M83.5,-114C83.5,-120 77.5,-126 71.5,-126"/>
<polyline fill="none" stroke="#2e3436" stroke-width="1.5" points="71.5,-126 12.5,-126 "/>
<path fill="none" stroke="#2e3436" stroke-width="1.5" d="M12.5,-126C6.5,-126 0.5,-120 0.5,-114"/>
<polyline fill="none" stroke="#2e3436" stroke-width="1.5" points="0.5,-114 0.5,-102 "/>
<path fill="none" stroke="#2e3436" stroke-width="1.5" d="M0.5,-102C0.5,-96 6.5,-90 12.5,-90"/>
<text text-anchor="middle" x="42" y="-114.8" font-family="FreeSans" font-size="8.00" fill="#1c2021">Node[5]</text>
<polyline fill="none" stroke="#2e3436" stroke-width="1.5" points="0.5,-108 83.5,-108 "/>
<text text-anchor="start" x="8.5" y="-96.8" font-family="FreeSans" font-size="8.00" fill="#1c2021">name = &#39;Cesar&#39;</text>
</g>
<!-- N3&#45;&gt;N5 -->
<g id="edge6" class="edge"><title>N3&#45;&gt;N5</title>
<path fill="none" stroke="#4e9a06" stroke-width="2" d="M46.1002,-178.702C44.4037,-172.681 42.8625,-166.158 42,-160 40.8234,-151.599 40.5105,-142.359 40.5859,-134.028"/>
<polygon fill="#4e9a06" stroke="#4e9a06" points="40.7616,-126.376 43.9634,-133.951 41.1753,-130.136 41.0892,-133.885 40.5893,-133.874 40.0895,-133.862 40.1756,-130.113 37.2152,-133.796 40.7616,-126.376 40.7616,-126.376"/>
<text text-anchor="middle" x="59.5" y="-152.8" font-family="FreeSans" font-size="8.00" fill="#4e9a06">BLOCKS</text>
</g>
<!-- N2 -->
<g id="node4" class="node"><title>N2</title>
<polygon fill="#ffffff" stroke="#ffffff" stroke-width="1.5" points="85,-1 137,-1 149,-13 149,-25 137,-37 85,-37 73,-25 73,-13 85,-1"/>
<path fill="#ffffff" stroke="#ffffff" stroke-width="1.5" d="M137,-1C143,-1 149,-7 149,-13"/>
<path fill="#ffffff" stroke="#ffffff" stroke-width="1.5" d="M149,-25C149,-31 143,-37 137,-37"/>
<path fill="#ffffff" stroke="#ffffff" stroke-width="1.5" d="M85,-37C79,-37 73,-31 73,-25"/>
<path fill="#ffffff" stroke="#ffffff" stroke-width="1.5" d="M73,-13C73,-7 79,-1 85,-1"/>
<polyline fill="none" stroke="#2e3436" stroke-width="1.5" points="85,-1 137,-1 "/>
<path fill="none" stroke="#2e3436" stroke-width="1.5" d="M137,-1C143,-1 149,-7 149,-13"/>
<polyline fill="none" stroke="#2e3436" stroke-width="1.5" points="149,-13 149,-25 "/>
<path fill="none" stroke="#2e3436" stroke-width="1.5" d="M149,-25C149,-31 143,-37 137,-37"/>
<polyline fill="none" stroke="#2e3436" stroke-width="1.5" points="137,-37 85,-37 "/>
<path fill="none" stroke="#2e3436" stroke-width="1.5" d="M85,-37C79,-37 73,-31 73,-25"/>
<polyline fill="none" stroke="#2e3436" stroke-width="1.5" points="73,-25 73,-13 "/>
<path fill="none" stroke="#2e3436" stroke-width="1.5" d="M73,-13C73,-7 79,-1 85,-1"/>
<text text-anchor="middle" x="111" y="-25.8" font-family="FreeSans" font-size="8.00" fill="#1c2021">Node[2]</text>
<polyline fill="none" stroke="#2e3436" stroke-width="1.5" points="73,-19 149,-19 "/>
<text text-anchor="start" x="81" y="-7.8" font-family="FreeSans" font-size="8.00" fill="#1c2021">name = &#39;Emil&#39;</text>
</g>
<!-- N4&#45;&gt;N1 -->
<g id="edge10" class="edge"><title>N4&#45;&gt;N1</title>
<path fill="none" stroke="#4e9a06" stroke-width="2" d="M162.439,-131.276C157.19,-165.58 147.41,-229.497 141.948,-265.194"/>
<polygon fill="#4e9a06" stroke="#4e9a06" points="140.787,-272.784 138.585,-264.86 140.86,-269.002 141.427,-265.295 141.922,-265.371 142.416,-265.446 141.849,-269.153 145.258,-265.881 140.787,-272.784 140.787,-272.784"/>
<text text-anchor="middle" x="172.5" y="-199.8" font-family="FreeSans" font-size="8.00" fill="#4e9a06">BLOCKS</text>
</g>
<!-- N4&#45;&gt;N2 -->
<g id="edge8" class="edge"><title>N4&#45;&gt;N2</title>
<path fill="none" stroke="#2e3436" stroke-width="2" d="M151.549,-84.6163C143.744,-71.9854 134.112,-56.3996 126.195,-43.588"/>
<polygon fill="#2e3436" stroke="#2e3436" points="122.23,-37.1715 129.043,-41.7773 124.626,-40.0986 126.598,-43.2887 126.172,-43.5515 125.747,-43.8144 123.776,-40.6244 123.301,-45.3258 122.23,-37.1715 122.23,-37.1715"/>
<text text-anchor="middle" x="153.5" y="-58.8" font-family="FreeSans" font-size="8.00" fill="#2e3436">KNOWS</text>
</g>
<!-- N5&#45;&gt;N2 -->
<g id="edge12" class="edge"><title>N5&#45;&gt;N2</title>
<path fill="none" stroke="#2e3436" stroke-width="2" d="M55.9632,-89.9895C66.3691,-76.5674 80.694,-58.0903 92.1209,-43.3514"/>
<polygon fill="#2e3436" stroke="#2e3436" points="96.8208,-37.2892 94.8927,-45.2844 94.9182,-40.5592 92.6205,-43.5228 92.2254,-43.2165 91.8302,-42.9101 94.1279,-39.9465 89.5581,-41.1486 96.8208,-37.2892 96.8208,-37.2892"/>
<text text-anchor="middle" x="96.5" y="-58.8" font-family="FreeSans" font-size="8.00" fill="#2e3436">KNOWS</text>
</g>
</g>
</svg>
