<?xml version="1.0" encoding="UTF-8" standalone="no"?>
<!DOCTYPE svg PUBLIC "-//W3C//DTD SVG 1.1//EN"
 "http://www.w3.org/Graphics/SVG/1.1/DTD/svg11.dtd">
<!-- Generated by graphviz version 2.26.3 (20100126.1600)
 -->
<!-- Title: g Pages: 1 -->
<svg width="212pt" height="205pt"
 viewBox="0.00 0.00 212.31 205.49" xmlns="http://www.w3.org/2000/svg" xmlns:xlink="http://www.w3.org/1999/xlink">
<g id="graph1" class="graph" transform="scale(1 1) rotate(0) translate(4 201.49)">
<title>g</title>
<polygon fill="white" stroke="white" points="-4,5 -4,-201.49 209.309,-201.49 209.309,5 -4,5"/>
<!-- N1 -->
<g id="node1" class="node"><title>N1</title>
<polygon fill="#ffffff" stroke="#ffffff" stroke-width="1.5" points="90.989,-79.2245 120.989,-79.2245 132.989,-91.2245 132.989,-103.224 120.989,-115.224 90.989,-115.224 78.989,-103.224 78.989,-91.2245 90.989,-79.2245"/>
<path fill="#ffffff" stroke="#ffffff" stroke-width="1.5" d="M120.989,-79.2245C126.989,-79.2245 132.989,-85.2245 132.989,-91.2245"/>
<path fill="#ffffff" stroke="#ffffff" stroke-width="1.5" d="M132.989,-103.224C132.989,-109.224 126.989,-115.224 120.989,-115.224"/>
<path fill="#ffffff" stroke="#ffffff" stroke-width="1.5" d="M90.989,-115.224C84.989,-115.224 78.989,-109.224 78.989,-103.224"/>
<path fill="#ffffff" stroke="#ffffff" stroke-width="1.5" d="M78.989,-91.2245C78.989,-85.2245 84.989,-79.2245 90.989,-79.2245"/>
<polyline fill="none" stroke="#2e3436" stroke-width="1.5" points="90.989,-79.2245 120.989,-79.2245 "/>
<path fill="none" stroke="#2e3436" stroke-width="1.5" d="M120.989,-79.2245C126.989,-79.2245 132.989,-85.2245 132.989,-91.2245"/>
<polyline fill="none" stroke="#2e3436" stroke-width="1.5" points="132.989,-91.2245 132.989,-103.224 "/>
<path fill="none" stroke="#2e3436" stroke-width="1.5" d="M132.989,-103.224C132.989,-109.224 126.989,-115.224 120.989,-115.224"/>
<polyline fill="none" stroke="#2e3436" stroke-width="1.5" points="120.989,-115.224 90.989,-115.224 "/>
<path fill="none" stroke="#2e3436" stroke-width="1.5" d="M90.989,-115.224C84.989,-115.224 78.989,-109.224 78.989,-103.224"/>
<polyline fill="none" stroke="#2e3436" stroke-width="1.5" points="78.989,-103.224 78.989,-91.2245 "/>
<path fill="none" stroke="#2e3436" stroke-width="1.5" d="M78.989,-91.2245C78.989,-85.2245 84.989,-79.2245 90.989,-79.2245"/>
<text text-anchor="middle" x="105.989" y="-104.024" font-family="FreeSans" font-size="8.00" fill="#1c2021">Node[1]</text>
<polyline fill="none" stroke="#2e3436" stroke-width="1.5" points="78.989,-97.2245 132.989,-97.2245 "/>
<text text-anchor="middle" x="105.989" y="-86.0245" font-family="FreeSans" font-size="8.00" fill="#1c2021"> </text>
</g>
<!-- N2 -->
<g id="node3" class="node"><title>N2</title>
<polygon fill="#ffffff" stroke="#ffffff" stroke-width="1.5" points="161.309,-39.7009 191.309,-39.7009 203.309,-51.7009 203.309,-63.7009 191.309,-75.7009 161.309,-75.7009 149.309,-63.7009 149.309,-51.7009 161.309,-39.7009"/>
<path fill="#ffffff" stroke="#ffffff" stroke-width="1.5" d="M191.309,-39.7009C197.309,-39.7009 203.309,-45.7009 203.309,-51.7009"/>
<path fill="#ffffff" stroke="#ffffff" stroke-width="1.5" d="M203.309,-63.7009C203.309,-69.7009 197.309,-75.7009 191.309,-75.7009"/>
<path fill="#ffffff" stroke="#ffffff" stroke-width="1.5" d="M161.309,-75.7009C155.309,-75.7009 149.309,-69.7009 149.309,-63.7009"/>
<path fill="#ffffff" stroke="#ffffff" stroke-width="1.5" d="M149.309,-51.7009C149.309,-45.7009 155.309,-39.7009 161.309,-39.7009"/>
<polyline fill="none" stroke="#2e3436" stroke-width="1.5" points="161.309,-39.7009 191.309,-39.7009 "/>
<path fill="none" stroke="#2e3436" stroke-width="1.5" d="M191.309,-39.7009C197.309,-39.7009 203.309,-45.7009 203.309,-51.7009"/>
<polyline fill="none" stroke="#2e3436" stroke-width="1.5" points="203.309,-51.7009 203.309,-63.7009 "/>
<path fill="none" stroke="#2e3436" stroke-width="1.5" d="M203.309,-63.7009C203.309,-69.7009 197.309,-75.7009 191.309,-75.7009"/>
<polyline fill="none" stroke="#2e3436" stroke-width="1.5" points="191.309,-75.7009 161.309,-75.7009 "/>
<path fill="none" stroke="#2e3436" stroke-width="1.5" d="M161.309,-75.7009C155.309,-75.7009 149.309,-69.7009 149.309,-63.7009"/>
<polyline fill="none" stroke="#2e3436" stroke-width="1.5" points="149.309,-63.7009 149.309,-51.7009 "/>
<path fill="none" stroke="#2e3436" stroke-width="1.5" d="M149.309,-51.7009C149.309,-45.7009 155.309,-39.7009 161.309,-39.7009"/>
<text text-anchor="middle" x="176.309" y="-64.5009" font-family="FreeSans" font-size="8.00" fill="#1c2021">Node[2]</text>
<polyline fill="none" stroke="#2e3436" stroke-width="1.5" points="149.309,-57.7009 203.309,-57.7009 "/>
<text text-anchor="middle" x="176.309" y="-46.5009" font-family="FreeSans" font-size="8.00" fill="#1c2021"> </text>
</g>
<!-- N1&#45;&gt;N2 -->
<g id="edge2" class="edge"><title>N1&#45;&gt;N2</title>
<path fill="none" stroke="#2e3436" stroke-width="2" d="M133.378,-81.8305C136.241,-80.2211 139.177,-78.5711 142.104,-76.926"/>
<polygon fill="#2e3436" stroke="#2e3436" points="148.879,-73.1179 143.995,-79.7349 145.855,-75.3912 142.586,-77.2286 142.341,-76.7927 142.096,-76.3569 145.365,-74.5195 140.688,-73.8506 148.879,-73.1179 148.879,-73.1179"/>
<text text-anchor="middle" x="134.741" y="-71.1782" font-family="FreeSans" font-size="8.00" fill="#2e3436">X</text>
</g>
<!-- N3 -->
<g id="node5" class="node"><title>N3</title>
<polygon fill="#ffffff" stroke="#ffffff" stroke-width="1.5" points="112.869,-1.5 142.869,-1.5 154.869,-13.5 154.869,-25.5 142.869,-37.5 112.869,-37.5 100.869,-25.5 100.869,-13.5 112.869,-1.5"/>
<path fill="#ffffff" stroke="#ffffff" stroke-width="1.5" d="M142.869,-1.5C148.869,-1.5 154.869,-7.5 154.869,-13.5"/>
<path fill="#ffffff" stroke="#ffffff" stroke-width="1.5" d="M154.869,-25.5C154.869,-31.5 148.869,-37.5 142.869,-37.5"/>
<path fill="#ffffff" stroke="#ffffff" stroke-width="1.5" d="M112.869,-37.5C106.869,-37.5 100.869,-31.5 100.869,-25.5"/>
<path fill="#ffffff" stroke="#ffffff" stroke-width="1.5" d="M100.869,-13.5C100.869,-7.5 106.869,-1.5 112.869,-1.5"/>
<polyline fill="none" stroke="#2e3436" stroke-width="1.5" points="112.869,-1.5 142.869,-1.5 "/>
<path fill="none" stroke="#2e3436" stroke-width="1.5" d="M142.869,-1.5C148.869,-1.5 154.869,-7.5 154.869,-13.5"/>
<polyline fill="none" stroke="#2e3436" stroke-width="1.5" points="154.869,-13.5 154.869,-25.5 "/>
<path fill="none" stroke="#2e3436" stroke-width="1.5" d="M154.869,-25.5C154.869,-31.5 148.869,-37.5 142.869,-37.5"/>
<polyline fill="none" stroke="#2e3436" stroke-width="1.5" points="142.869,-37.5 112.869,-37.5 "/>
<path fill="none" stroke="#2e3436" stroke-width="1.5" d="M112.869,-37.5C106.869,-37.5 100.869,-31.5 100.869,-25.5"/>
<polyline fill="none" stroke="#2e3436" stroke-width="1.5" points="100.869,-25.5 100.869,-13.5 "/>
<path fill="none" stroke="#2e3436" stroke-width="1.5" d="M100.869,-13.5C100.869,-7.5 106.869,-1.5 112.869,-1.5"/>
<text text-anchor="middle" x="127.869" y="-26.3" font-family="FreeSans" font-size="8.00" fill="#1c2021">Node[3]</text>
<polyline fill="none" stroke="#2e3436" stroke-width="1.5" points="100.869,-19.5 154.869,-19.5 "/>
<text text-anchor="middle" x="127.869" y="-8.3" font-family="FreeSans" font-size="8.00" fill="#1c2021"> </text>
</g>
<!-- N1&#45;&gt;N3 -->
<g id="edge4" class="edge"><title>N1&#45;&gt;N3</title>
<path fill="none" stroke="#2e3436" stroke-width="2" d="M111.064,-79.1975C113.915,-69.0682 117.521,-56.2576 120.661,-45.103"/>
<polygon fill="#2e3436" stroke="#2e3436" points="122.746,-37.6984 123.962,-45.8324 122.211,-41.4436 121.195,-45.0533 120.714,-44.9178 120.232,-44.7823 121.248,-41.1726 117.465,-44.0032 122.746,-37.6984 122.746,-37.6984"/>
<text text-anchor="middle" x="120.863" y="-60.9503" font-family="FreeSans" font-size="8.00" fill="#2e3436">X</text>
</g>
<!-- N4 -->
<g id="node7" class="node"><title>N4</title>
<polygon fill="#ffffff" stroke="#ffffff" stroke-width="1.5" points="90.4845,-159.99 120.484,-159.99 132.484,-171.99 132.484,-183.99 120.484,-195.99 90.4845,-195.99 78.4845,-183.99 78.4845,-171.99 90.4845,-159.99"/>
<path fill="#ffffff" stroke="#ffffff" stroke-width="1.5" d="M120.484,-159.99C126.484,-159.99 132.484,-165.99 132.484,-171.99"/>
<path fill="#ffffff" stroke="#ffffff" stroke-width="1.5" d="M132.484,-183.99C132.484,-189.99 126.484,-195.99 120.484,-195.99"/>
<path fill="#ffffff" stroke="#ffffff" stroke-width="1.5" d="M90.4845,-195.99C84.4845,-195.99 78.4845,-189.99 78.4845,-183.99"/>
<path fill="#ffffff" stroke="#ffffff" stroke-width="1.5" d="M78.4845,-171.99C78.4845,-165.99 84.4845,-159.99 90.4845,-159.99"/>
<polyline fill="none" stroke="#2e3436" stroke-width="1.5" points="90.4845,-159.99 120.484,-159.99 "/>
<path fill="none" stroke="#2e3436" stroke-width="1.5" d="M120.484,-159.99C126.484,-159.99 132.484,-165.99 132.484,-171.99"/>
<polyline fill="none" stroke="#2e3436" stroke-width="1.5" points="132.484,-171.99 132.484,-183.99 "/>
<path fill="none" stroke="#2e3436" stroke-width="1.5" d="M132.484,-183.99C132.484,-189.99 126.484,-195.99 120.484,-195.99"/>
<polyline fill="none" stroke="#2e3436" stroke-width="1.5" points="120.484,-195.99 90.4845,-195.99 "/>
<path fill="none" stroke="#2e3436" stroke-width="1.5" d="M90.4845,-195.99C84.4845,-195.99 78.4845,-189.99 78.4845,-183.99"/>
<polyline fill="none" stroke="#2e3436" stroke-width="1.5" points="78.4845,-183.99 78.4845,-171.99 "/>
<path fill="none" stroke="#2e3436" stroke-width="1.5" d="M78.4845,-171.99C78.4845,-165.99 84.4845,-159.99 90.4845,-159.99"/>
<text text-anchor="middle" x="105.484" y="-184.79" font-family="FreeSans" font-size="8.00" fill="#1c2021">Node[4]</text>
<polyline fill="none" stroke="#2e3436" stroke-width="1.5" points="78.4845,-177.99 132.484,-177.99 "/>
<text text-anchor="middle" x="105.484" y="-166.79" font-family="FreeSans" font-size="8.00" fill="#1c2021"> </text>
</g>
<!-- N1&#45;&gt;N4 -->
<g id="edge6" class="edge"><title>N1&#45;&gt;N4</title>
<path fill="none" stroke="#2e3436" stroke-width="2" d="M105.875,-115.551C105.807,-126.394 105.72,-140.297 105.645,-152.23"/>
<polygon fill="#2e3436" stroke="#2e3436" points="105.598,-159.735 102.271,-152.214 105.122,-155.982 105.145,-152.232 105.645,-152.236 106.145,-152.239 106.122,-155.989 109.02,-152.257 105.598,-159.735 105.598,-159.735"/>
<text text-anchor="middle" x="109.76" y="-131.691" font-family="FreeSans" font-size="8.00" fill="#2e3436">X</text>
</g>
<!-- N5 -->
<g id="node9" class="node"><title>N5</title>
<polygon fill="#ffffff" stroke="#ffffff" stroke-width="1.5" points="147.575,-136.869 177.575,-136.869 189.575,-148.869 189.575,-160.869 177.575,-172.869 147.575,-172.869 135.575,-160.869 135.575,-148.869 147.575,-136.869"/>
<path fill="#ffffff" stroke="#ffffff" stroke-width="1.5" d="M177.575,-136.869C183.575,-136.869 189.575,-142.869 189.575,-148.869"/>
<path fill="#ffffff" stroke="#ffffff" stroke-width="1.5" d="M189.575,-160.869C189.575,-166.869 183.575,-172.869 177.575,-172.869"/>
<path fill="#ffffff" stroke="#ffffff" stroke-width="1.5" d="M147.575,-172.869C141.575,-172.869 135.575,-166.869 135.575,-160.869"/>
<path fill="#ffffff" stroke="#ffffff" stroke-width="1.5" d="M135.575,-148.869C135.575,-142.869 141.575,-136.869 147.575,-136.869"/>
<polyline fill="none" stroke="#2e3436" stroke-width="1.5" points="147.575,-136.869 177.575,-136.869 "/>
<path fill="none" stroke="#2e3436" stroke-width="1.5" d="M177.575,-136.869C183.575,-136.869 189.575,-142.869 189.575,-148.869"/>
<polyline fill="none" stroke="#2e3436" stroke-width="1.5" points="189.575,-148.869 189.575,-160.869 "/>
<path fill="none" stroke="#2e3436" stroke-width="1.5" d="M189.575,-160.869C189.575,-166.869 183.575,-172.869 177.575,-172.869"/>
<polyline fill="none" stroke="#2e3436" stroke-width="1.5" points="177.575,-172.869 147.575,-172.869 "/>
<path fill="none" stroke="#2e3436" stroke-width="1.5" d="M147.575,-172.869C141.575,-172.869 135.575,-166.869 135.575,-160.869"/>
<polyline fill="none" stroke="#2e3436" stroke-width="1.5" points="135.575,-160.869 135.575,-148.869 "/>
<path fill="none" stroke="#2e3436" stroke-width="1.5" d="M135.575,-148.869C135.575,-142.869 141.575,-136.869 147.575,-136.869"/>
<text text-anchor="middle" x="162.575" y="-161.669" font-family="FreeSans" font-size="8.00" fill="#1c2021">Node[5]</text>
<polyline fill="none" stroke="#2e3436" stroke-width="1.5" points="135.575,-154.869 189.575,-154.869 "/>
<text text-anchor="middle" x="162.575" y="-143.669" font-family="FreeSans" font-size="8.00" fill="#1c2021"> </text>
</g>
<!-- N1&#45;&gt;N5 -->
<g id="edge8" class="edge"><title>N1&#45;&gt;N5</title>
<path fill="none" stroke="#2e3436" stroke-width="2" d="M123.893,-115.464C128.744,-120.405 134.068,-125.828 139.173,-131.029"/>
<polygon fill="#2e3436" stroke="#2e3436" points="144.593,-136.551 136.931,-133.563 141.609,-134.225 138.982,-131.549 139.339,-131.198 139.696,-130.848 142.323,-133.524 141.748,-128.834 144.593,-136.551 144.593,-136.551"/>
<text text-anchor="middle" x="136.533" y="-116.046" font-family="FreeSans" font-size="8.00" fill="#2e3436">X</text>
</g>
<!-- N6 -->
<g id="node11" class="node"><title>N6</title>
<polygon fill="#ffffff" stroke="#ffffff" stroke-width="1.5" points="13,-99.7992 43,-99.7992 55,-111.799 55,-123.799 43,-135.799 13,-135.799 1,-123.799 1,-111.799 13,-99.7992"/>
<path fill="#ffffff" stroke="#ffffff" stroke-width="1.5" d="M43,-99.7992C49,-99.7992 55,-105.799 55,-111.799"/>
<path fill="#ffffff" stroke="#ffffff" stroke-width="1.5" d="M55,-123.799C55,-129.799 49,-135.799 43,-135.799"/>
<path fill="#ffffff" stroke="#ffffff" stroke-width="1.5" d="M13,-135.799C7,-135.799 1,-129.799 1,-123.799"/>
<path fill="#ffffff" stroke="#ffffff" stroke-width="1.5" d="M1,-111.799C1,-105.799 7,-99.7992 13,-99.7992"/>
<polyline fill="none" stroke="#2e3436" stroke-width="1.5" points="13,-99.7992 43,-99.7992 "/>
<path fill="none" stroke="#2e3436" stroke-width="1.5" d="M43,-99.7992C49,-99.7992 55,-105.799 55,-111.799"/>
<polyline fill="none" stroke="#2e3436" stroke-width="1.5" points="55,-111.799 55,-123.799 "/>
<path fill="none" stroke="#2e3436" stroke-width="1.5" d="M55,-123.799C55,-129.799 49,-135.799 43,-135.799"/>
<polyline fill="none" stroke="#2e3436" stroke-width="1.5" points="43,-135.799 13,-135.799 "/>
<path fill="none" stroke="#2e3436" stroke-width="1.5" d="M13,-135.799C7,-135.799 1,-129.799 1,-123.799"/>
<polyline fill="none" stroke="#2e3436" stroke-width="1.5" points="1,-123.799 1,-111.799 "/>
<path fill="none" stroke="#2e3436" stroke-width="1.5" d="M1,-111.799C1,-105.799 7,-99.7992 13,-99.7992"/>
<text text-anchor="middle" x="28" y="-124.599" font-family="FreeSans" font-size="8.00" fill="#1c2021">Node[6]</text>
<polyline fill="none" stroke="#2e3436" stroke-width="1.5" points="1,-117.799 55,-117.799 "/>
<text text-anchor="middle" x="28" y="-106.599" font-family="FreeSans" font-size="8.00" fill="#1c2021"> </text>
</g>
<!-- N1&#45;&gt;N6 -->
<g id="edge10" class="edge"><title>N1&#45;&gt;N6</title>
<path fill="none" stroke="#2e3436" stroke-width="2" d="M78.7122,-104.42C73.4577,-105.807 67.8902,-107.276 62.4428,-108.713"/>
<polygon fill="#2e3436" stroke="#2e3436" points="55.1297,-110.642 61.5206,-105.465 58.6281,-109.202 62.254,-108.245 62.3816,-108.729 62.5091,-109.212 58.8832,-110.169 63.2425,-111.992 55.1297,-110.642 55.1297,-110.642"/>
<text text-anchor="middle" x="71.5775" y="-110.367" font-family="FreeSans" font-size="8.00" fill="#2e3436">X</text>
</g>
<!-- N7 -->
<g id="node13" class="node"><title>N7</title>
<polygon fill="#ffffff" stroke="#ffffff" stroke-width="1.5" points="21.185,-38.6619 51.185,-38.6619 63.185,-50.6619 63.185,-62.6619 51.185,-74.6619 21.185,-74.6619 9.18502,-62.6619 9.18502,-50.6619 21.185,-38.6619"/>
<path fill="#ffffff" stroke="#ffffff" stroke-width="1.5" d="M51.185,-38.6619C57.185,-38.6619 63.185,-44.6619 63.185,-50.6619"/>
<path fill="#ffffff" stroke="#ffffff" stroke-width="1.5" d="M63.185,-62.6619C63.185,-68.6619 57.185,-74.6619 51.185,-74.6619"/>
<path fill="#ffffff" stroke="#ffffff" stroke-width="1.5" d="M21.185,-74.6619C15.185,-74.6619 9.18502,-68.6619 9.18502,-62.6619"/>
<path fill="#ffffff" stroke="#ffffff" stroke-width="1.5" d="M9.18502,-50.6619C9.18502,-44.6619 15.185,-38.6619 21.185,-38.6619"/>
<polyline fill="none" stroke="#2e3436" stroke-width="1.5" points="21.185,-38.6619 51.185,-38.6619 "/>
<path fill="none" stroke="#2e3436" stroke-width="1.5" d="M51.185,-38.6619C57.185,-38.6619 63.185,-44.6619 63.185,-50.6619"/>
<polyline fill="none" stroke="#2e3436" stroke-width="1.5" points="63.185,-50.6619 63.185,-62.6619 "/>
<path fill="none" stroke="#2e3436" stroke-width="1.5" d="M63.185,-62.6619C63.185,-68.6619 57.185,-74.6619 51.185,-74.6619"/>
<polyline fill="none" stroke="#2e3436" stroke-width="1.5" points="51.185,-74.6619 21.185,-74.6619 "/>
<path fill="none" stroke="#2e3436" stroke-width="1.5" d="M21.185,-74.6619C15.185,-74.6619 9.18502,-68.6619 9.18502,-62.6619"/>
<polyline fill="none" stroke="#2e3436" stroke-width="1.5" points="9.18502,-62.6619 9.18502,-50.6619 "/>
<path fill="none" stroke="#2e3436" stroke-width="1.5" d="M9.18502,-50.6619C9.18502,-44.6619 15.185,-38.6619 21.185,-38.6619"/>
<text text-anchor="middle" x="36.185" y="-63.4619" font-family="FreeSans" font-size="8.00" fill="#1c2021">Node[7]</text>
<polyline fill="none" stroke="#2e3436" stroke-width="1.5" points="9.18502,-56.6619 63.185,-56.6619 "/>
<text text-anchor="middle" x="36.185" y="-45.4619" font-family="FreeSans" font-size="8.00" fill="#1c2021"> </text>
</g>
<!-- N1&#45;&gt;N7 -->
<g id="edge12" class="edge"><title>N1&#45;&gt;N7</title>
<path fill="none" stroke="#2e3436" stroke-width="2" d="M78.8011,-81.4257C75.9587,-79.7741 73.0445,-78.0807 70.1391,-76.3923"/>
<polygon fill="#2e3436" stroke="#2e3436" points="63.4136,-72.4842 71.5939,-73.3343 66.9071,-73.936 70.1494,-75.8201 69.8982,-76.2524 69.647,-76.6847 66.4047,-74.8006 68.2025,-79.1705 63.4136,-72.4842 63.4136,-72.4842"/>
<text text-anchor="middle" x="71.4701" y="-82.709" font-family="FreeSans" font-size="8.00" fill="#2e3436">X</text>
</g>
<!-- N2&#45;&gt;N3 -->
<g id="edge14" class="edge"><title>N2&#45;&gt;N3</title>
<path fill="none" stroke="#2e3436" stroke-width="2" d="M153.224,-39.4955C153.126,-39.4186 153.029,-39.3418 152.931,-39.2649"/>
<polygon fill="#2e3436" stroke="#2e3436" points="150.883,-37.6495 158.862,-39.6438 154.137,-39.5791 157.082,-41.9013 156.772,-42.2939 156.463,-42.6865 153.518,-40.3643 154.682,-44.944 150.883,-37.6495 150.883,-37.6495"/>
<text text-anchor="middle" x="153.078" y="-31.1802" font-family="FreeSans" font-size="8.00" fill="#2e3436">X</text>
</g>
<!-- N4&#45;&gt;N5 -->
<g id="edge16" class="edge"><title>N4&#45;&gt;N5</title>
<path fill="none" stroke="#2e3436" stroke-width="2" d="M132.692,-166.971C132.807,-166.925 132.922,-166.878 133.037,-166.831"/>
<polygon fill="#2e3436" stroke="#2e3436" points="135.451,-165.854 129.766,-171.797 132.163,-167.725 128.687,-169.133 128.499,-168.669 128.312,-168.206 131.787,-166.798 127.232,-165.541 135.451,-165.854 135.451,-165.854"/>
<text text-anchor="middle" x="132.864" y="-158.701" font-family="FreeSans" font-size="8.00" fill="#2e3436">X</text>
</g>
<!-- N6&#45;&gt;N7 -->
<g id="edge18" class="edge"><title>N6&#45;&gt;N7</title>
<path fill="none" stroke="#2e3436" stroke-width="2" d="M30.4115,-99.7866C31.1377,-94.3624 31.9494,-88.2996 32.7294,-82.4733"/>
<polygon fill="#2e3436" stroke="#2e3436" points="33.7625,-74.7569 36.1123,-82.6385 33.7604,-78.5401 33.2627,-82.257 32.7672,-82.1906 32.2716,-82.1242 32.7692,-78.4074 29.422,-81.7427 33.7625,-74.7569 33.7625,-74.7569"/>
<text text-anchor="middle" x="27.5705" y="-88.93" font-family="FreeSans" font-size="8.00" fill="#2e3436">X</text>
</g>
</g>
</svg>
