<?xml version="1.0" encoding="UTF-8" standalone="no"?>
<!DOCTYPE svg PUBLIC "-//W3C//DTD SVG 1.1//EN"
 "http://www.w3.org/Graphics/SVG/1.1/DTD/svg11.dtd">
<!-- Generated by graphviz version 2.26.3 (20100126.1600)
 -->
<!-- Title: g Pages: 1 -->
<svg width="316pt" height="262pt"
 viewBox="0.00 0.00 316.28 262.02" xmlns="http://www.w3.org/2000/svg" xmlns:xlink="http://www.w3.org/1999/xlink">
<g id="graph1" class="graph" transform="scale(1 1) rotate(0) translate(4 258.018)">
<title>g</title>
<polygon fill="white" stroke="white" points="-4,5 -4,-258.018 313.282,-258.018 313.282,5 -4,5"/>
<!-- N2 -->
<g id="node1" class="node"><title>N2</title>
<polygon fill="#ffffff" stroke="#ffffff" stroke-width="1.5" points="199.211,-1.5 233.211,-1.5 245.211,-13.5 245.211,-25.5 233.211,-37.5 199.211,-37.5 187.211,-25.5 187.211,-13.5 199.211,-1.5"/>
<path fill="#ffffff" stroke="#ffffff" stroke-width="1.5" d="M233.211,-1.5C239.211,-1.5 245.211,-7.5 245.211,-13.5"/>
<path fill="#ffffff" stroke="#ffffff" stroke-width="1.5" d="M245.211,-25.5C245.211,-31.5 239.211,-37.5 233.211,-37.5"/>
<path fill="#ffffff" stroke="#ffffff" stroke-width="1.5" d="M199.211,-37.5C193.211,-37.5 187.211,-31.5 187.211,-25.5"/>
<path fill="#ffffff" stroke="#ffffff" stroke-width="1.5" d="M187.211,-13.5C187.211,-7.5 193.211,-1.5 199.211,-1.5"/>
<polyline fill="none" stroke="#2e3436" stroke-width="1.5" points="199.211,-1.5 233.211,-1.5 "/>
<path fill="none" stroke="#2e3436" stroke-width="1.5" d="M233.211,-1.5C239.211,-1.5 245.211,-7.5 245.211,-13.5"/>
<polyline fill="none" stroke="#2e3436" stroke-width="1.5" points="245.211,-13.5 245.211,-25.5 "/>
<path fill="none" stroke="#2e3436" stroke-width="1.5" d="M245.211,-25.5C245.211,-31.5 239.211,-37.5 233.211,-37.5"/>
<polyline fill="none" stroke="#2e3436" stroke-width="1.5" points="233.211,-37.5 199.211,-37.5 "/>
<path fill="none" stroke="#2e3436" stroke-width="1.5" d="M199.211,-37.5C193.211,-37.5 187.211,-31.5 187.211,-25.5"/>
<polyline fill="none" stroke="#2e3436" stroke-width="1.5" points="187.211,-25.5 187.211,-13.5 "/>
<path fill="none" stroke="#2e3436" stroke-width="1.5" d="M187.211,-13.5C187.211,-7.5 193.211,-1.5 199.211,-1.5"/>
<text text-anchor="middle" x="216.211" y="-26.3" font-family="FreeSans" font-size="8.00" fill="#1c2021">Node[2]</text>
<polyline fill="none" stroke="#2e3436" stroke-width="1.5" points="187.211,-19.5 245.211,-19.5 "/>
<text text-anchor="start" x="195.211" y="-8.3" font-family="FreeSans" font-size="8.00" fill="#1c2021">count = 1</text>
</g>
<!-- N3 -->
<g id="node3" class="node"><title>N3</title>
<polygon fill="#ffffff" stroke="#ffffff" stroke-width="1.5" points="261.282,-109.009 295.282,-109.009 307.282,-121.009 307.282,-133.009 295.282,-145.009 261.282,-145.009 249.282,-133.009 249.282,-121.009 261.282,-109.009"/>
<path fill="#ffffff" stroke="#ffffff" stroke-width="1.5" d="M295.282,-109.009C301.282,-109.009 307.282,-115.009 307.282,-121.009"/>
<path fill="#ffffff" stroke="#ffffff" stroke-width="1.5" d="M307.282,-133.009C307.282,-139.009 301.282,-145.009 295.282,-145.009"/>
<path fill="#ffffff" stroke="#ffffff" stroke-width="1.5" d="M261.282,-145.009C255.282,-145.009 249.282,-139.009 249.282,-133.009"/>
<path fill="#ffffff" stroke="#ffffff" stroke-width="1.5" d="M249.282,-121.009C249.282,-115.009 255.282,-109.009 261.282,-109.009"/>
<polyline fill="none" stroke="#2e3436" stroke-width="1.5" points="261.282,-109.009 295.282,-109.009 "/>
<path fill="none" stroke="#2e3436" stroke-width="1.5" d="M295.282,-109.009C301.282,-109.009 307.282,-115.009 307.282,-121.009"/>
<polyline fill="none" stroke="#2e3436" stroke-width="1.5" points="307.282,-121.009 307.282,-133.009 "/>
<path fill="none" stroke="#2e3436" stroke-width="1.5" d="M307.282,-133.009C307.282,-139.009 301.282,-145.009 295.282,-145.009"/>
<polyline fill="none" stroke="#2e3436" stroke-width="1.5" points="295.282,-145.009 261.282,-145.009 "/>
<path fill="none" stroke="#2e3436" stroke-width="1.5" d="M261.282,-145.009C255.282,-145.009 249.282,-139.009 249.282,-133.009"/>
<polyline fill="none" stroke="#2e3436" stroke-width="1.5" points="249.282,-133.009 249.282,-121.009 "/>
<path fill="none" stroke="#2e3436" stroke-width="1.5" d="M249.282,-121.009C249.282,-115.009 255.282,-109.009 261.282,-109.009"/>
<text text-anchor="middle" x="278.282" y="-133.809" font-family="FreeSans" font-size="8.00" fill="#1c2021">Node[3]</text>
<polyline fill="none" stroke="#2e3436" stroke-width="1.5" points="249.282,-127.009 307.282,-127.009 "/>
<text text-anchor="start" x="257.282" y="-115.809" font-family="FreeSans" font-size="8.00" fill="#1c2021">count = 2</text>
</g>
<!-- N2&#45;&gt;N3 -->
<g id="edge2" class="edge"><title>N2&#45;&gt;N3</title>
<path fill="none" stroke="#2e3436" stroke-width="2" d="M226.741,-37.7375C236.951,-55.422 252.521,-82.3895 263.876,-102.057"/>
<polygon fill="#2e3436" stroke="#2e3436" points="267.701,-108.682 261.028,-103.875 265.393,-105.685 263.518,-102.437 263.951,-102.187 264.384,-101.937 266.259,-105.185 266.873,-100.499 267.701,-108.682 267.701,-108.682"/>
<text text-anchor="middle" x="240.308" y="-70.6973" font-family="FreeSans" font-size="8.00" fill="#2e3436">X</text>
</g>
<!-- N4 -->
<g id="node5" class="node"><title>N4</title>
<polygon fill="#ffffff" stroke="#ffffff" stroke-width="1.5" points="13,-109.009 47,-109.009 59,-121.009 59,-133.009 47,-145.009 13,-145.009 1,-133.009 1,-121.009 13,-109.009"/>
<path fill="#ffffff" stroke="#ffffff" stroke-width="1.5" d="M47,-109.009C53,-109.009 59,-115.009 59,-121.009"/>
<path fill="#ffffff" stroke="#ffffff" stroke-width="1.5" d="M59,-133.009C59,-139.009 53,-145.009 47,-145.009"/>
<path fill="#ffffff" stroke="#ffffff" stroke-width="1.5" d="M13,-145.009C7,-145.009 1,-139.009 1,-133.009"/>
<path fill="#ffffff" stroke="#ffffff" stroke-width="1.5" d="M1,-121.009C1,-115.009 7,-109.009 13,-109.009"/>
<polyline fill="none" stroke="#2e3436" stroke-width="1.5" points="13,-109.009 47,-109.009 "/>
<path fill="none" stroke="#2e3436" stroke-width="1.5" d="M47,-109.009C53,-109.009 59,-115.009 59,-121.009"/>
<polyline fill="none" stroke="#2e3436" stroke-width="1.5" points="59,-121.009 59,-133.009 "/>
<path fill="none" stroke="#2e3436" stroke-width="1.5" d="M59,-133.009C59,-139.009 53,-145.009 47,-145.009"/>
<polyline fill="none" stroke="#2e3436" stroke-width="1.5" points="47,-145.009 13,-145.009 "/>
<path fill="none" stroke="#2e3436" stroke-width="1.5" d="M13,-145.009C7,-145.009 1,-139.009 1,-133.009"/>
<polyline fill="none" stroke="#2e3436" stroke-width="1.5" points="1,-133.009 1,-121.009 "/>
<path fill="none" stroke="#2e3436" stroke-width="1.5" d="M1,-121.009C1,-115.009 7,-109.009 13,-109.009"/>
<text text-anchor="middle" x="30" y="-133.809" font-family="FreeSans" font-size="8.00" fill="#1c2021">Node[4]</text>
<polyline fill="none" stroke="#2e3436" stroke-width="1.5" points="1,-127.009 59,-127.009 "/>
<text text-anchor="start" x="9" y="-115.809" font-family="FreeSans" font-size="8.00" fill="#1c2021">count = 3</text>
</g>
<!-- N2&#45;&gt;N4 -->
<g id="edge4" class="edge"><title>N2&#45;&gt;N4</title>
<path fill="none" stroke="#2e3436" stroke-width="2" d="M187.116,-36.2983C154.415,-55.1779 101.297,-85.8458 66.0068,-106.221"/>
<polygon fill="#2e3436" stroke="#2e3436" points="59.1979,-110.152 64.0056,-103.479 62.1955,-107.844 65.4431,-105.969 65.6931,-106.402 65.9431,-106.835 62.6955,-108.71 67.3806,-109.325 59.1979,-110.152 59.1979,-110.152"/>
<text text-anchor="middle" x="129.561" y="-75.0594" font-family="FreeSans" font-size="8.00" fill="#2e3436">X</text>
</g>
<!-- N5 -->
<g id="node7" class="node"><title>N5</title>
<polygon fill="#ffffff" stroke="#ffffff" stroke-width="1.5" points="75.0704,-216.518 109.07,-216.518 121.07,-228.518 121.07,-240.518 109.07,-252.518 75.0704,-252.518 63.0704,-240.518 63.0704,-228.518 75.0704,-216.518"/>
<path fill="#ffffff" stroke="#ffffff" stroke-width="1.5" d="M109.07,-216.518C115.07,-216.518 121.07,-222.518 121.07,-228.518"/>
<path fill="#ffffff" stroke="#ffffff" stroke-width="1.5" d="M121.07,-240.518C121.07,-246.518 115.07,-252.518 109.07,-252.518"/>
<path fill="#ffffff" stroke="#ffffff" stroke-width="1.5" d="M75.0704,-252.518C69.0704,-252.518 63.0704,-246.518 63.0704,-240.518"/>
<path fill="#ffffff" stroke="#ffffff" stroke-width="1.5" d="M63.0704,-228.518C63.0704,-222.518 69.0704,-216.518 75.0704,-216.518"/>
<polyline fill="none" stroke="#2e3436" stroke-width="1.5" points="75.0704,-216.518 109.07,-216.518 "/>
<path fill="none" stroke="#2e3436" stroke-width="1.5" d="M109.07,-216.518C115.07,-216.518 121.07,-222.518 121.07,-228.518"/>
<polyline fill="none" stroke="#2e3436" stroke-width="1.5" points="121.07,-228.518 121.07,-240.518 "/>
<path fill="none" stroke="#2e3436" stroke-width="1.5" d="M121.07,-240.518C121.07,-246.518 115.07,-252.518 109.07,-252.518"/>
<polyline fill="none" stroke="#2e3436" stroke-width="1.5" points="109.07,-252.518 75.0704,-252.518 "/>
<path fill="none" stroke="#2e3436" stroke-width="1.5" d="M75.0704,-252.518C69.0704,-252.518 63.0704,-246.518 63.0704,-240.518"/>
<polyline fill="none" stroke="#2e3436" stroke-width="1.5" points="63.0704,-240.518 63.0704,-228.518 "/>
<path fill="none" stroke="#2e3436" stroke-width="1.5" d="M63.0704,-228.518C63.0704,-222.518 69.0704,-216.518 75.0704,-216.518"/>
<text text-anchor="middle" x="92.0704" y="-241.318" font-family="FreeSans" font-size="8.00" fill="#1c2021">Node[5]</text>
<polyline fill="none" stroke="#2e3436" stroke-width="1.5" points="63.0704,-234.518 121.07,-234.518 "/>
<text text-anchor="start" x="71.0704" y="-223.318" font-family="FreeSans" font-size="8.00" fill="#1c2021">count = 4</text>
</g>
<!-- N2&#45;&gt;N5 -->
<g id="edge6" class="edge"><title>N2&#45;&gt;N5</title>
<path fill="none" stroke="#2e3436" stroke-width="2" d="M205.627,-37.8323C183.364,-76.3924 131.672,-165.927 106.441,-209.627"/>
<polygon fill="#2e3436" stroke="#2e3436" points="102.628,-216.232 103.455,-208.05 104.07,-212.735 105.945,-209.487 106.378,-209.737 106.811,-209.987 104.936,-213.235 109.301,-211.425 102.628,-216.232 102.628,-216.232"/>
<text text-anchor="middle" x="161.034" y="-124.53" font-family="FreeSans" font-size="8.00" fill="#2e3436">X</text>
</g>
<!-- N6 -->
<g id="node9" class="node"><title>N6</title>
<polygon fill="#ffffff" stroke="#ffffff" stroke-width="1.5" points="199.211,-216.518 233.211,-216.518 245.211,-228.518 245.211,-240.518 233.211,-252.518 199.211,-252.518 187.211,-240.518 187.211,-228.518 199.211,-216.518"/>
<path fill="#ffffff" stroke="#ffffff" stroke-width="1.5" d="M233.211,-216.518C239.211,-216.518 245.211,-222.518 245.211,-228.518"/>
<path fill="#ffffff" stroke="#ffffff" stroke-width="1.5" d="M245.211,-240.518C245.211,-246.518 239.211,-252.518 233.211,-252.518"/>
<path fill="#ffffff" stroke="#ffffff" stroke-width="1.5" d="M199.211,-252.518C193.211,-252.518 187.211,-246.518 187.211,-240.518"/>
<path fill="#ffffff" stroke="#ffffff" stroke-width="1.5" d="M187.211,-228.518C187.211,-222.518 193.211,-216.518 199.211,-216.518"/>
<polyline fill="none" stroke="#2e3436" stroke-width="1.5" points="199.211,-216.518 233.211,-216.518 "/>
<path fill="none" stroke="#2e3436" stroke-width="1.5" d="M233.211,-216.518C239.211,-216.518 245.211,-222.518 245.211,-228.518"/>
<polyline fill="none" stroke="#2e3436" stroke-width="1.5" points="245.211,-228.518 245.211,-240.518 "/>
<path fill="none" stroke="#2e3436" stroke-width="1.5" d="M245.211,-240.518C245.211,-246.518 239.211,-252.518 233.211,-252.518"/>
<polyline fill="none" stroke="#2e3436" stroke-width="1.5" points="233.211,-252.518 199.211,-252.518 "/>
<path fill="none" stroke="#2e3436" stroke-width="1.5" d="M199.211,-252.518C193.211,-252.518 187.211,-246.518 187.211,-240.518"/>
<polyline fill="none" stroke="#2e3436" stroke-width="1.5" points="187.211,-240.518 187.211,-228.518 "/>
<path fill="none" stroke="#2e3436" stroke-width="1.5" d="M187.211,-228.518C187.211,-222.518 193.211,-216.518 199.211,-216.518"/>
<text text-anchor="middle" x="216.211" y="-241.318" font-family="FreeSans" font-size="8.00" fill="#1c2021">Node[6]</text>
<polyline fill="none" stroke="#2e3436" stroke-width="1.5" points="187.211,-234.518 245.211,-234.518 "/>
<text text-anchor="start" x="195.211" y="-223.318" font-family="FreeSans" font-size="8.00" fill="#1c2021">count = 5</text>
</g>
<!-- N2&#45;&gt;N6 -->
<g id="edge8" class="edge"><title>N2&#45;&gt;N6</title>
<path fill="none" stroke="#2e3436" stroke-width="2" d="M216.211,-37.8323C216.211,-76.0751 216.211,-164.456 216.211,-208.539"/>
<polygon fill="#2e3436" stroke="#2e3436" points="216.211,-216.232 212.836,-208.732 215.711,-212.482 215.711,-208.732 216.211,-208.732 216.711,-208.732 216.711,-212.482 219.586,-208.732 216.211,-216.232 216.211,-216.232"/>
<text text-anchor="middle" x="220.211" y="-120.986" font-family="FreeSans" font-size="8.00" fill="#2e3436">X</text>
</g>
<!-- N7 -->
<g id="node11" class="node"><title>N7</title>
<polygon fill="#ffffff" stroke="#ffffff" stroke-width="1.5" points="75.0704,-1.5 109.07,-1.5 121.07,-13.5 121.07,-25.5 109.07,-37.5 75.0704,-37.5 63.0704,-25.5 63.0704,-13.5 75.0704,-1.5"/>
<path fill="#ffffff" stroke="#ffffff" stroke-width="1.5" d="M109.07,-1.5C115.07,-1.5 121.07,-7.5 121.07,-13.5"/>
<path fill="#ffffff" stroke="#ffffff" stroke-width="1.5" d="M121.07,-25.5C121.07,-31.5 115.07,-37.5 109.07,-37.5"/>
<path fill="#ffffff" stroke="#ffffff" stroke-width="1.5" d="M75.0704,-37.5C69.0704,-37.5 63.0704,-31.5 63.0704,-25.5"/>
<path fill="#ffffff" stroke="#ffffff" stroke-width="1.5" d="M63.0704,-13.5C63.0704,-7.5 69.0704,-1.5 75.0704,-1.5"/>
<polyline fill="none" stroke="#2e3436" stroke-width="1.5" points="75.0704,-1.5 109.07,-1.5 "/>
<path fill="none" stroke="#2e3436" stroke-width="1.5" d="M109.07,-1.5C115.07,-1.5 121.07,-7.5 121.07,-13.5"/>
<polyline fill="none" stroke="#2e3436" stroke-width="1.5" points="121.07,-13.5 121.07,-25.5 "/>
<path fill="none" stroke="#2e3436" stroke-width="1.5" d="M121.07,-25.5C121.07,-31.5 115.07,-37.5 109.07,-37.5"/>
<polyline fill="none" stroke="#2e3436" stroke-width="1.5" points="109.07,-37.5 75.0704,-37.5 "/>
<path fill="none" stroke="#2e3436" stroke-width="1.5" d="M75.0704,-37.5C69.0704,-37.5 63.0704,-31.5 63.0704,-25.5"/>
<polyline fill="none" stroke="#2e3436" stroke-width="1.5" points="63.0704,-25.5 63.0704,-13.5 "/>
<path fill="none" stroke="#2e3436" stroke-width="1.5" d="M63.0704,-13.5C63.0704,-7.5 69.0704,-1.5 75.0704,-1.5"/>
<text text-anchor="middle" x="92.0704" y="-26.3" font-family="FreeSans" font-size="8.00" fill="#1c2021">Node[7]</text>
<polyline fill="none" stroke="#2e3436" stroke-width="1.5" points="63.0704,-19.5 121.07,-19.5 "/>
<text text-anchor="start" x="71.0704" y="-8.3" font-family="FreeSans" font-size="8.00" fill="#1c2021">count = 6</text>
</g>
<!-- N2&#45;&gt;N7 -->
<g id="edge10" class="edge"><title>N2&#45;&gt;N7</title>
<path fill="none" stroke="#2e3436" stroke-width="2" d="M187.106,-19.5C169.799,-19.5 147.675,-19.5 129.129,-19.5"/>
<polygon fill="#2e3436" stroke="#2e3436" points="121.424,-19.5 128.924,-16.1249 125.174,-19 128.924,-18.9999 128.924,-19.4999 128.924,-19.9999 125.174,-20 128.924,-22.8749 121.424,-19.5 121.424,-19.5"/>
<text text-anchor="middle" x="158.117" y="-11.3" font-family="FreeSans" font-size="8.00" fill="#2e3436">X</text>
</g>
<!-- N3&#45;&gt;N4 -->
<g id="edge12" class="edge"><title>N3&#45;&gt;N4</title>
<path fill="none" stroke="#2e3436" stroke-width="2" d="M248.826,-127.009C203.346,-127.009 116.124,-127.009 66.6395,-127.009"/>
<polygon fill="#2e3436" stroke="#2e3436" points="59.0337,-127.009 66.5337,-123.634 62.7837,-126.509 66.5337,-126.509 66.5337,-127.009 66.5337,-127.509 62.7837,-127.509 66.5336,-130.384 59.0337,-127.009 59.0337,-127.009"/>
<text text-anchor="middle" x="157.733" y="-118.809" font-family="FreeSans" font-size="8.00" fill="#2e3436">X</text>
</g>
<!-- N3&#45;&gt;N5 -->
<g id="edge14" class="edge"><title>N3&#45;&gt;N5</title>
<path fill="none" stroke="#2e3436" stroke-width="2" d="M249.186,-143.807C216.486,-162.687 163.367,-193.355 128.077,-213.73"/>
<polygon fill="#2e3436" stroke="#2e3436" points="121.268,-217.661 126.076,-210.988 124.266,-215.353 127.513,-213.478 127.763,-213.911 128.014,-214.344 124.766,-216.219 129.451,-216.834 121.268,-217.661 121.268,-217.661"/>
<text text-anchor="middle" x="191.632" y="-182.569" font-family="FreeSans" font-size="8.00" fill="#2e3436">X</text>
</g>
<!-- N3&#45;&gt;N6 -->
<g id="edge16" class="edge"><title>N3&#45;&gt;N6</title>
<path fill="none" stroke="#2e3436" stroke-width="2" d="M267.752,-145.247C257.542,-162.931 241.972,-189.899 230.617,-209.566"/>
<polygon fill="#2e3436" stroke="#2e3436" points="226.792,-216.191 227.62,-208.009 228.234,-212.694 230.109,-209.446 230.542,-209.696 230.975,-209.946 229.1,-213.194 233.465,-211.384 226.792,-216.191 226.792,-216.191"/>
<text text-anchor="middle" x="254.185" y="-178.206" font-family="FreeSans" font-size="8.00" fill="#2e3436">X</text>
</g>
<!-- N3&#45;&gt;N7 -->
<g id="edge18" class="edge"><title>N3&#45;&gt;N7</title>
<path fill="none" stroke="#2e3436" stroke-width="2" d="M249.186,-110.211C216.486,-91.3312 163.367,-60.6633 128.077,-40.2886"/>
<polygon fill="#2e3436" stroke="#2e3436" points="121.268,-36.3574 129.451,-37.1846 124.766,-37.7994 128.014,-39.6744 127.763,-40.1074 127.513,-40.5405 124.266,-38.6654 126.076,-43.0303 121.268,-36.3574 121.268,-36.3574"/>
<text text-anchor="middle" x="185.632" y="-79.0497" font-family="FreeSans" font-size="8.00" fill="#2e3436">X</text>
</g>
<!-- N4&#45;&gt;N5 -->
<g id="edge20" class="edge"><title>N4&#45;&gt;N5</title>
<path fill="none" stroke="#2e3436" stroke-width="2" d="M40.5294,-145.247C50.7396,-162.931 66.3093,-189.899 77.6644,-209.566"/>
<polygon fill="#2e3436" stroke="#2e3436" points="81.4894,-216.191 74.8165,-211.384 79.1813,-213.194 77.3063,-209.946 77.7393,-209.696 78.1723,-209.446 80.0474,-212.694 80.6622,-208.009 81.4894,-216.191 81.4894,-216.191"/>
<text text-anchor="middle" x="64.0969" y="-172.206" font-family="FreeSans" font-size="8.00" fill="#2e3436">X</text>
</g>
<!-- N4&#45;&gt;N6 -->
<g id="edge22" class="edge"><title>N4&#45;&gt;N6</title>
<path fill="none" stroke="#2e3436" stroke-width="2" d="M59.0955,-143.807C91.796,-162.687 144.914,-193.355 180.204,-213.73"/>
<polygon fill="#2e3436" stroke="#2e3436" points="187.013,-217.661 178.831,-216.834 183.516,-216.219 180.268,-214.344 180.518,-213.911 180.768,-213.478 184.016,-215.353 182.206,-210.988 187.013,-217.661 187.013,-217.661"/>
<text text-anchor="middle" x="122.65" y="-170.569" font-family="FreeSans" font-size="8.00" fill="#2e3436">X</text>
</g>
<!-- N4&#45;&gt;N7 -->
<g id="edge24" class="edge"><title>N4&#45;&gt;N7</title>
<path fill="none" stroke="#2e3436" stroke-width="2" d="M40.5294,-108.772C50.7396,-91.0872 66.3093,-64.1196 77.6644,-44.452"/>
<polygon fill="#2e3436" stroke="#2e3436" points="81.4894,-37.8269 80.6622,-46.0097 80.0474,-41.3245 78.1723,-44.5721 77.7393,-44.3221 77.3063,-44.0721 79.1813,-40.8245 74.8165,-42.6346 81.4894,-37.8269 81.4894,-37.8269"/>
<text text-anchor="middle" x="64.0969" y="-77.4118" font-family="FreeSans" font-size="8.00" fill="#2e3436">X</text>
</g>
<!-- N5&#45;&gt;N6 -->
<g id="edge26" class="edge"><title>N5&#45;&gt;N6</title>
<path fill="none" stroke="#2e3436" stroke-width="2" d="M121.176,-234.518C138.483,-234.518 160.607,-234.518 179.153,-234.518"/>
<polygon fill="#2e3436" stroke="#2e3436" points="186.858,-234.518 179.358,-237.893 183.108,-235.018 179.358,-235.018 179.358,-234.518 179.358,-234.018 183.108,-234.018 179.358,-231.143 186.858,-234.518 186.858,-234.518"/>
<text text-anchor="middle" x="150.165" y="-226.318" font-family="FreeSans" font-size="8.00" fill="#2e3436">X</text>
</g>
<!-- N5&#45;&gt;N7 -->
<g id="edge28" class="edge"><title>N5&#45;&gt;N7</title>
<path fill="none" stroke="#2e3436" stroke-width="2" d="M92.0704,-216.186C92.0704,-177.943 92.0704,-89.5619 92.0704,-45.4795"/>
<polygon fill="#2e3436" stroke="#2e3436" points="92.0704,-37.7859 95.4455,-45.2859 92.5705,-41.5359 92.5705,-45.2859 92.0705,-45.2859 91.5705,-45.2859 91.5705,-41.5359 88.6955,-45.286 92.0704,-37.7859 92.0704,-37.7859"/>
<text text-anchor="middle" x="88.0704" y="-128.633" font-family="FreeSans" font-size="8.00" fill="#2e3436">X</text>
</g>
<!-- N6&#45;&gt;N7 -->
<g id="edge30" class="edge"><title>N6&#45;&gt;N7</title>
<path fill="none" stroke="#2e3436" stroke-width="2" d="M205.627,-216.186C183.364,-177.626 131.672,-88.0915 106.441,-44.3912"/>
<polygon fill="#2e3436" stroke="#2e3436" points="102.628,-37.7859 109.301,-42.5936 104.936,-40.7835 106.811,-44.0311 106.378,-44.2811 105.945,-44.5311 104.07,-41.2835 103.455,-45.9687 102.628,-37.7859 102.628,-37.7859"/>
<text text-anchor="middle" x="161.034" y="-125.089" font-family="FreeSans" font-size="8.00" fill="#2e3436">X</text>
</g>
</g>
</svg>
