<?xml version="1.0" encoding="UTF-8" standalone="no"?>
<!DOCTYPE svg PUBLIC "-//W3C//DTD SVG 1.1//EN"
 "http://www.w3.org/Graphics/SVG/1.1/DTD/svg11.dtd">
<!-- Generated by graphviz version 2.26.3 (20100126.1600)
 -->
<!-- Title: g Pages: 1 -->
<svg width="216pt" height="185pt"
 viewBox="0.00 0.00 215.68 185.30" xmlns="http://www.w3.org/2000/svg" xmlns:xlink="http://www.w3.org/1999/xlink">
<g id="graph1" class="graph" transform="scale(1 1) rotate(0) translate(4 181.303)">
<title>g</title>
<polygon fill="white" stroke="white" points="-4,5 -4,-181.303 212.682,-181.303 212.682,5 -4,5"/>
<!-- N1 -->
<g id="node1" class="node"><title>N1</title>
<polygon fill="#ffffff" stroke="#ffffff" stroke-width="1.5" points="88.8421,-70.6316 118.842,-70.6316 130.842,-82.6316 130.842,-94.6316 118.842,-106.632 88.8421,-106.632 76.8421,-94.6316 76.8421,-82.6316 88.8421,-70.6316"/>
<path fill="#ffffff" stroke="#ffffff" stroke-width="1.5" d="M118.842,-70.6316C124.842,-70.6316 130.842,-76.6316 130.842,-82.6316"/>
<path fill="#ffffff" stroke="#ffffff" stroke-width="1.5" d="M130.842,-94.6316C130.842,-100.632 124.842,-106.632 118.842,-106.632"/>
<path fill="#ffffff" stroke="#ffffff" stroke-width="1.5" d="M88.8421,-106.632C82.8421,-106.632 76.8421,-100.632 76.8421,-94.6316"/>
<path fill="#ffffff" stroke="#ffffff" stroke-width="1.5" d="M76.8421,-82.6316C76.8421,-76.6316 82.8421,-70.6316 88.8421,-70.6316"/>
<polyline fill="none" stroke="#2e3436" stroke-width="1.5" points="88.8421,-70.6316 118.842,-70.6316 "/>
<path fill="none" stroke="#2e3436" stroke-width="1.5" d="M118.842,-70.6316C124.842,-70.6316 130.842,-76.6316 130.842,-82.6316"/>
<polyline fill="none" stroke="#2e3436" stroke-width="1.5" points="130.842,-82.6316 130.842,-94.6316 "/>
<path fill="none" stroke="#2e3436" stroke-width="1.5" d="M130.842,-94.6316C130.842,-100.632 124.842,-106.632 118.842,-106.632"/>
<polyline fill="none" stroke="#2e3436" stroke-width="1.5" points="118.842,-106.632 88.8421,-106.632 "/>
<path fill="none" stroke="#2e3436" stroke-width="1.5" d="M88.8421,-106.632C82.8421,-106.632 76.8421,-100.632 76.8421,-94.6316"/>
<polyline fill="none" stroke="#2e3436" stroke-width="1.5" points="76.8421,-94.6316 76.8421,-82.6316 "/>
<path fill="none" stroke="#2e3436" stroke-width="1.5" d="M76.8421,-82.6316C76.8421,-76.6316 82.8421,-70.6316 88.8421,-70.6316"/>
<text text-anchor="middle" x="103.842" y="-95.4316" font-family="FreeSans" font-size="8.00" fill="#1c2021">Node[1]</text>
<polyline fill="none" stroke="#2e3436" stroke-width="1.5" points="76.8421,-88.6316 130.842,-88.6316 "/>
<text text-anchor="middle" x="103.842" y="-77.4316" font-family="FreeSans" font-size="8.00" fill="#1c2021"> </text>
</g>
<!-- N2 -->
<g id="node3" class="node"><title>N2</title>
<polygon fill="#ffffff" stroke="#ffffff" stroke-width="1.5" points="114.745,-1.5 148.745,-1.5 160.745,-13.5 160.745,-25.5 148.745,-37.5 114.745,-37.5 102.745,-25.5 102.745,-13.5 114.745,-1.5"/>
<path fill="#ffffff" stroke="#ffffff" stroke-width="1.5" d="M148.745,-1.5C154.745,-1.5 160.745,-7.5 160.745,-13.5"/>
<path fill="#ffffff" stroke="#ffffff" stroke-width="1.5" d="M160.745,-25.5C160.745,-31.5 154.745,-37.5 148.745,-37.5"/>
<path fill="#ffffff" stroke="#ffffff" stroke-width="1.5" d="M114.745,-37.5C108.745,-37.5 102.745,-31.5 102.745,-25.5"/>
<path fill="#ffffff" stroke="#ffffff" stroke-width="1.5" d="M102.745,-13.5C102.745,-7.5 108.745,-1.5 114.745,-1.5"/>
<polyline fill="none" stroke="#2e3436" stroke-width="1.5" points="114.745,-1.5 148.745,-1.5 "/>
<path fill="none" stroke="#2e3436" stroke-width="1.5" d="M148.745,-1.5C154.745,-1.5 160.745,-7.5 160.745,-13.5"/>
<polyline fill="none" stroke="#2e3436" stroke-width="1.5" points="160.745,-13.5 160.745,-25.5 "/>
<path fill="none" stroke="#2e3436" stroke-width="1.5" d="M160.745,-25.5C160.745,-31.5 154.745,-37.5 148.745,-37.5"/>
<polyline fill="none" stroke="#2e3436" stroke-width="1.5" points="148.745,-37.5 114.745,-37.5 "/>
<path fill="none" stroke="#2e3436" stroke-width="1.5" d="M114.745,-37.5C108.745,-37.5 102.745,-31.5 102.745,-25.5"/>
<polyline fill="none" stroke="#2e3436" stroke-width="1.5" points="102.745,-25.5 102.745,-13.5 "/>
<path fill="none" stroke="#2e3436" stroke-width="1.5" d="M102.745,-13.5C102.745,-7.5 108.745,-1.5 114.745,-1.5"/>
<text text-anchor="middle" x="131.745" y="-26.3" font-family="FreeSans" font-size="8.00" fill="#1c2021">Node[2]</text>
<polyline fill="none" stroke="#2e3436" stroke-width="1.5" points="102.745,-19.5 160.745,-19.5 "/>
<text text-anchor="start" x="110.745" y="-8.3" font-family="FreeSans" font-size="8.00" fill="#1c2021">count = 1</text>
</g>
<!-- N1&#45;&gt;N2 -->
<g id="edge2" class="edge"><title>N1&#45;&gt;N2</title>
<path fill="none" stroke="#2e3436" stroke-width="2" d="M111.173,-70.4681C114.32,-62.6709 118.053,-53.4241 121.469,-44.9613"/>
<polygon fill="#2e3436" stroke="#2e3436" points="124.366,-37.7822 124.689,-46.0003 123.426,-41.4468 122.023,-44.9242 121.559,-44.7371 121.095,-44.5499 122.499,-41.0725 118.429,-43.4738 124.366,-37.7822 124.366,-37.7822"/>
<text text-anchor="middle" x="121.321" y="-57.5147" font-family="FreeSans" font-size="8.00" fill="#2e3436">X</text>
</g>
<!-- N3 -->
<g id="node5" class="node"><title>N3</title>
<polygon fill="#ffffff" stroke="#ffffff" stroke-width="1.5" points="160.682,-60.2966 194.682,-60.2966 206.682,-72.2966 206.682,-84.2966 194.682,-96.2966 160.682,-96.2966 148.682,-84.2966 148.682,-72.2966 160.682,-60.2966"/>
<path fill="#ffffff" stroke="#ffffff" stroke-width="1.5" d="M194.682,-60.2966C200.682,-60.2966 206.682,-66.2966 206.682,-72.2966"/>
<path fill="#ffffff" stroke="#ffffff" stroke-width="1.5" d="M206.682,-84.2966C206.682,-90.2966 200.682,-96.2966 194.682,-96.2966"/>
<path fill="#ffffff" stroke="#ffffff" stroke-width="1.5" d="M160.682,-96.2966C154.682,-96.2966 148.682,-90.2966 148.682,-84.2966"/>
<path fill="#ffffff" stroke="#ffffff" stroke-width="1.5" d="M148.682,-72.2966C148.682,-66.2966 154.682,-60.2966 160.682,-60.2966"/>
<polyline fill="none" stroke="#2e3436" stroke-width="1.5" points="160.682,-60.2966 194.682,-60.2966 "/>
<path fill="none" stroke="#2e3436" stroke-width="1.5" d="M194.682,-60.2966C200.682,-60.2966 206.682,-66.2966 206.682,-72.2966"/>
<polyline fill="none" stroke="#2e3436" stroke-width="1.5" points="206.682,-72.2966 206.682,-84.2966 "/>
<path fill="none" stroke="#2e3436" stroke-width="1.5" d="M206.682,-84.2966C206.682,-90.2966 200.682,-96.2966 194.682,-96.2966"/>
<polyline fill="none" stroke="#2e3436" stroke-width="1.5" points="194.682,-96.2966 160.682,-96.2966 "/>
<path fill="none" stroke="#2e3436" stroke-width="1.5" d="M160.682,-96.2966C154.682,-96.2966 148.682,-90.2966 148.682,-84.2966"/>
<polyline fill="none" stroke="#2e3436" stroke-width="1.5" points="148.682,-84.2966 148.682,-72.2966 "/>
<path fill="none" stroke="#2e3436" stroke-width="1.5" d="M148.682,-72.2966C148.682,-66.2966 154.682,-60.2966 160.682,-60.2966"/>
<text text-anchor="middle" x="177.682" y="-85.0966" font-family="FreeSans" font-size="8.00" fill="#1c2021">Node[3]</text>
<polyline fill="none" stroke="#2e3436" stroke-width="1.5" points="148.682,-78.2966 206.682,-78.2966 "/>
<text text-anchor="start" x="156.682" y="-67.0966" font-family="FreeSans" font-size="8.00" fill="#1c2021">count = 2</text>
</g>
<!-- N1&#45;&gt;N3 -->
<g id="edge4" class="edge"><title>N1&#45;&gt;N3</title>
<path fill="none" stroke="#2e3436" stroke-width="2" d="M130.918,-84.8419C134.249,-84.3756 137.696,-83.8932 141.139,-83.4114"/>
<polygon fill="#2e3436" stroke="#2e3436" points="148.621,-82.3641 141.661,-86.7462 144.977,-83.3791 141.263,-83.899 141.193,-83.4038 141.124,-82.9086 144.838,-82.3888 140.726,-80.0614 148.621,-82.3641 148.621,-82.3641"/>
<text text-anchor="middle" x="136.028" y="-87.9267" font-family="FreeSans" font-size="8.00" fill="#2e3436">X</text>
</g>
<!-- N4 -->
<g id="node7" class="node"><title>N4</title>
<polygon fill="#ffffff" stroke="#ffffff" stroke-width="1.5" points="132.743,-129.424 166.743,-129.424 178.743,-141.424 178.743,-153.424 166.743,-165.424 132.743,-165.424 120.743,-153.424 120.743,-141.424 132.743,-129.424"/>
<path fill="#ffffff" stroke="#ffffff" stroke-width="1.5" d="M166.743,-129.424C172.743,-129.424 178.743,-135.424 178.743,-141.424"/>
<path fill="#ffffff" stroke="#ffffff" stroke-width="1.5" d="M178.743,-153.424C178.743,-159.424 172.743,-165.424 166.743,-165.424"/>
<path fill="#ffffff" stroke="#ffffff" stroke-width="1.5" d="M132.743,-165.424C126.743,-165.424 120.743,-159.424 120.743,-153.424"/>
<path fill="#ffffff" stroke="#ffffff" stroke-width="1.5" d="M120.743,-141.424C120.743,-135.424 126.743,-129.424 132.743,-129.424"/>
<polyline fill="none" stroke="#2e3436" stroke-width="1.5" points="132.743,-129.424 166.743,-129.424 "/>
<path fill="none" stroke="#2e3436" stroke-width="1.5" d="M166.743,-129.424C172.743,-129.424 178.743,-135.424 178.743,-141.424"/>
<polyline fill="none" stroke="#2e3436" stroke-width="1.5" points="178.743,-141.424 178.743,-153.424 "/>
<path fill="none" stroke="#2e3436" stroke-width="1.5" d="M178.743,-153.424C178.743,-159.424 172.743,-165.424 166.743,-165.424"/>
<polyline fill="none" stroke="#2e3436" stroke-width="1.5" points="166.743,-165.424 132.743,-165.424 "/>
<path fill="none" stroke="#2e3436" stroke-width="1.5" d="M132.743,-165.424C126.743,-165.424 120.743,-159.424 120.743,-153.424"/>
<polyline fill="none" stroke="#2e3436" stroke-width="1.5" points="120.743,-153.424 120.743,-141.424 "/>
<path fill="none" stroke="#2e3436" stroke-width="1.5" d="M120.743,-141.424C120.743,-135.424 126.743,-129.424 132.743,-129.424"/>
<text text-anchor="middle" x="149.743" y="-154.224" font-family="FreeSans" font-size="8.00" fill="#1c2021">Node[4]</text>
<polyline fill="none" stroke="#2e3436" stroke-width="1.5" points="120.743,-147.424 178.743,-147.424 "/>
<text text-anchor="start" x="128.743" y="-136.224" font-family="FreeSans" font-size="8.00" fill="#1c2021">count = 3</text>
</g>
<!-- N1&#45;&gt;N4 -->
<g id="edge6" class="edge"><title>N1&#45;&gt;N4</title>
<path fill="none" stroke="#2e3436" stroke-width="2" d="M118.114,-106.911C122.124,-112.048 126.549,-117.715 130.786,-123.142"/>
<polygon fill="#2e3436" stroke="#2e3436" points="135.638,-129.357 128.362,-125.522 132.936,-126.709 130.628,-123.753 131.022,-123.445 131.416,-123.138 133.724,-126.093 133.683,-121.368 135.638,-129.357 135.638,-129.357"/>
<text text-anchor="middle" x="119.45" y="-116.827" font-family="FreeSans" font-size="8.00" fill="#2e3436">X</text>
</g>
<!-- N5 -->
<g id="node9" class="node"><title>N5</title>
<polygon fill="#ffffff" stroke="#ffffff" stroke-width="1.5" points="58.9626,-139.803 92.9626,-139.803 104.963,-151.803 104.963,-163.803 92.9626,-175.803 58.9626,-175.803 46.9626,-163.803 46.9626,-151.803 58.9626,-139.803"/>
<path fill="#ffffff" stroke="#ffffff" stroke-width="1.5" d="M92.9626,-139.803C98.9626,-139.803 104.963,-145.803 104.963,-151.803"/>
<path fill="#ffffff" stroke="#ffffff" stroke-width="1.5" d="M104.963,-163.803C104.963,-169.803 98.9626,-175.803 92.9626,-175.803"/>
<path fill="#ffffff" stroke="#ffffff" stroke-width="1.5" d="M58.9626,-175.803C52.9626,-175.803 46.9626,-169.803 46.9626,-163.803"/>
<path fill="#ffffff" stroke="#ffffff" stroke-width="1.5" d="M46.9626,-151.803C46.9626,-145.803 52.9626,-139.803 58.9626,-139.803"/>
<polyline fill="none" stroke="#2e3436" stroke-width="1.5" points="58.9626,-139.803 92.9626,-139.803 "/>
<path fill="none" stroke="#2e3436" stroke-width="1.5" d="M92.9626,-139.803C98.9626,-139.803 104.963,-145.803 104.963,-151.803"/>
<polyline fill="none" stroke="#2e3436" stroke-width="1.5" points="104.963,-151.803 104.963,-163.803 "/>
<path fill="none" stroke="#2e3436" stroke-width="1.5" d="M104.963,-163.803C104.963,-169.803 98.9626,-175.803 92.9626,-175.803"/>
<polyline fill="none" stroke="#2e3436" stroke-width="1.5" points="92.9626,-175.803 58.9626,-175.803 "/>
<path fill="none" stroke="#2e3436" stroke-width="1.5" d="M58.9626,-175.803C52.9626,-175.803 46.9626,-169.803 46.9626,-163.803"/>
<polyline fill="none" stroke="#2e3436" stroke-width="1.5" points="46.9626,-163.803 46.9626,-151.803 "/>
<path fill="none" stroke="#2e3436" stroke-width="1.5" d="M46.9626,-151.803C46.9626,-145.803 52.9626,-139.803 58.9626,-139.803"/>
<text text-anchor="middle" x="75.9626" y="-164.603" font-family="FreeSans" font-size="8.00" fill="#1c2021">Node[5]</text>
<polyline fill="none" stroke="#2e3436" stroke-width="1.5" points="46.9626,-157.803 104.963,-157.803 "/>
<text text-anchor="start" x="54.9626" y="-146.603" font-family="FreeSans" font-size="8.00" fill="#1c2021">count = 4</text>
</g>
<!-- N1&#45;&gt;N5 -->
<g id="edge8" class="edge"><title>N1&#45;&gt;N5</title>
<path fill="none" stroke="#2e3436" stroke-width="2" d="M96.5171,-106.806C93.3727,-114.607 89.6436,-123.86 86.2307,-132.327"/>
<polygon fill="#2e3436" stroke="#2e3436" points="83.3355,-139.511 83.009,-131.293 84.2736,-135.845 85.6755,-132.367 86.1393,-132.554 86.603,-132.741 85.2011,-136.219 89.2696,-133.816 83.3355,-139.511 83.3355,-139.511"/>
<text text-anchor="middle" x="86.3739" y="-115.366" font-family="FreeSans" font-size="8.00" fill="#2e3436">X</text>
</g>
<!-- N6 -->
<g id="node11" class="node"><title>N6</title>
<polygon fill="#ffffff" stroke="#ffffff" stroke-width="1.5" points="13,-81.1311 47,-81.1311 59,-93.1311 59,-105.131 47,-117.131 13,-117.131 1,-105.131 1,-93.1311 13,-81.1311"/>
<path fill="#ffffff" stroke="#ffffff" stroke-width="1.5" d="M47,-81.1311C53,-81.1311 59,-87.1311 59,-93.1311"/>
<path fill="#ffffff" stroke="#ffffff" stroke-width="1.5" d="M59,-105.131C59,-111.131 53,-117.131 47,-117.131"/>
<path fill="#ffffff" stroke="#ffffff" stroke-width="1.5" d="M13,-117.131C7,-117.131 1,-111.131 1,-105.131"/>
<path fill="#ffffff" stroke="#ffffff" stroke-width="1.5" d="M1,-93.1311C1,-87.1311 7,-81.1311 13,-81.1311"/>
<polyline fill="none" stroke="#2e3436" stroke-width="1.5" points="13,-81.1311 47,-81.1311 "/>
<path fill="none" stroke="#2e3436" stroke-width="1.5" d="M47,-81.1311C53,-81.1311 59,-87.1311 59,-93.1311"/>
<polyline fill="none" stroke="#2e3436" stroke-width="1.5" points="59,-93.1311 59,-105.131 "/>
<path fill="none" stroke="#2e3436" stroke-width="1.5" d="M59,-105.131C59,-111.131 53,-117.131 47,-117.131"/>
<polyline fill="none" stroke="#2e3436" stroke-width="1.5" points="47,-117.131 13,-117.131 "/>
<path fill="none" stroke="#2e3436" stroke-width="1.5" d="M13,-117.131C7,-117.131 1,-111.131 1,-105.131"/>
<polyline fill="none" stroke="#2e3436" stroke-width="1.5" points="1,-105.131 1,-93.1311 "/>
<path fill="none" stroke="#2e3436" stroke-width="1.5" d="M1,-93.1311C1,-87.1311 7,-81.1311 13,-81.1311"/>
<text text-anchor="middle" x="30" y="-105.931" font-family="FreeSans" font-size="8.00" fill="#1c2021">Node[6]</text>
<polyline fill="none" stroke="#2e3436" stroke-width="1.5" points="1,-99.1311 59,-99.1311 "/>
<text text-anchor="start" x="9" y="-87.9311" font-family="FreeSans" font-size="8.00" fill="#1c2021">count = 5</text>
</g>
<!-- N1&#45;&gt;N6 -->
<g id="edge10" class="edge"><title>N1&#45;&gt;N6</title>
<path fill="none" stroke="#2e3436" stroke-width="2" d="M76.7654,-92.4816C73.4339,-92.9553 69.987,-93.4454 66.5446,-93.9349"/>
<polygon fill="#2e3436" stroke="#2e3436" points="59.0618,-94.9988 66.012,-90.6016 62.7041,-93.9759 66.4167,-93.4479 66.4871,-93.943 66.5575,-94.438 62.8449,-94.9659 66.9623,-97.2843 59.0618,-94.9988 59.0618,-94.9988"/>
<text text-anchor="middle" x="71.655" y="-97.0082" font-family="FreeSans" font-size="8.00" fill="#2e3436">X</text>
</g>
<!-- N7 -->
<g id="node13" class="node"><title>N7</title>
<polygon fill="#ffffff" stroke="#ffffff" stroke-width="1.5" points="40.8445,-11.9482 74.8445,-11.9482 86.8445,-23.9482 86.8445,-35.9482 74.8445,-47.9482 40.8445,-47.9482 28.8445,-35.9482 28.8445,-23.9482 40.8445,-11.9482"/>
<path fill="#ffffff" stroke="#ffffff" stroke-width="1.5" d="M74.8445,-11.9482C80.8445,-11.9482 86.8445,-17.9482 86.8445,-23.9482"/>
<path fill="#ffffff" stroke="#ffffff" stroke-width="1.5" d="M86.8445,-35.9482C86.8445,-41.9482 80.8445,-47.9482 74.8445,-47.9482"/>
<path fill="#ffffff" stroke="#ffffff" stroke-width="1.5" d="M40.8445,-47.9482C34.8445,-47.9482 28.8445,-41.9482 28.8445,-35.9482"/>
<path fill="#ffffff" stroke="#ffffff" stroke-width="1.5" d="M28.8445,-23.9482C28.8445,-17.9482 34.8445,-11.9482 40.8445,-11.9482"/>
<polyline fill="none" stroke="#2e3436" stroke-width="1.5" points="40.8445,-11.9482 74.8445,-11.9482 "/>
<path fill="none" stroke="#2e3436" stroke-width="1.5" d="M74.8445,-11.9482C80.8445,-11.9482 86.8445,-17.9482 86.8445,-23.9482"/>
<polyline fill="none" stroke="#2e3436" stroke-width="1.5" points="86.8445,-23.9482 86.8445,-35.9482 "/>
<path fill="none" stroke="#2e3436" stroke-width="1.5" d="M86.8445,-35.9482C86.8445,-41.9482 80.8445,-47.9482 74.8445,-47.9482"/>
<polyline fill="none" stroke="#2e3436" stroke-width="1.5" points="74.8445,-47.9482 40.8445,-47.9482 "/>
<path fill="none" stroke="#2e3436" stroke-width="1.5" d="M40.8445,-47.9482C34.8445,-47.9482 28.8445,-41.9482 28.8445,-35.9482"/>
<polyline fill="none" stroke="#2e3436" stroke-width="1.5" points="28.8445,-35.9482 28.8445,-23.9482 "/>
<path fill="none" stroke="#2e3436" stroke-width="1.5" d="M28.8445,-23.9482C28.8445,-17.9482 34.8445,-11.9482 40.8445,-11.9482"/>
<text text-anchor="middle" x="57.8445" y="-36.7482" font-family="FreeSans" font-size="8.00" fill="#1c2021">Node[7]</text>
<polyline fill="none" stroke="#2e3436" stroke-width="1.5" points="28.8445,-29.9482 86.8445,-29.9482 "/>
<text text-anchor="start" x="36.8445" y="-18.7482" font-family="FreeSans" font-size="8.00" fill="#1c2021">count = 6</text>
</g>
<!-- N1&#45;&gt;N7 -->
<g id="edge12" class="edge"><title>N1&#45;&gt;N7</title>
<path fill="none" stroke="#2e3436" stroke-width="2" d="M89.5404,-70.3855C85.5218,-65.2587 81.0879,-59.6019 76.8417,-54.1847"/>
<polygon fill="#2e3436" stroke="#2e3436" points="71.9795,-47.9815 79.2626,-51.8022 74.6864,-50.6244 76.9998,-53.5759 76.6063,-53.8843 76.2128,-54.1928 73.8994,-51.2414 73.95,-55.9664 71.9795,-47.9815 71.9795,-47.9815"/>
<text text-anchor="middle" x="78.191" y="-64.0851" font-family="FreeSans" font-size="8.00" fill="#2e3436">X</text>
</g>
<!-- N2&#45;&gt;N3 -->
<g id="edge14" class="edge"><title>N2&#45;&gt;N3</title>
<path fill="none" stroke="#2e3436" stroke-width="2" d="M146.028,-37.7813C150.041,-42.918 154.469,-48.5857 158.71,-54.0134"/>
<polygon fill="#2e3436" stroke="#2e3436" points="163.566,-60.2286 156.289,-56.3963 160.863,-57.5813 158.554,-54.6263 158.948,-54.3185 159.342,-54.0106 161.651,-56.9657 161.608,-52.2406 163.566,-60.2286 163.566,-60.2286"/>
<text text-anchor="middle" x="157.369" y="-39.6973" font-family="FreeSans" font-size="8.00" fill="#2e3436">X</text>
</g>
<!-- N3&#45;&gt;N4 -->
<g id="edge16" class="edge"><title>N3&#45;&gt;N4</title>
<path fill="none" stroke="#2e3436" stroke-width="2" d="M170.341,-96.4589C167.19,-104.256 163.453,-113.502 160.033,-121.964"/>
<polygon fill="#2e3436" stroke="#2e3436" points="157.132,-129.143 156.813,-120.924 158.073,-125.478 159.479,-122.002 159.942,-122.189 160.406,-122.376 159,-125.853 163.071,-123.454 157.132,-129.143 157.132,-129.143"/>
<text text-anchor="middle" x="170.187" y="-109.011" font-family="FreeSans" font-size="8.00" fill="#2e3436">X</text>
</g>
<!-- N4&#45;&gt;N5 -->
<g id="edge18" class="edge"><title>N4&#45;&gt;N5</title>
<path fill="none" stroke="#2e3436" stroke-width="2" d="M120.583,-151.526C118.086,-151.877 115.539,-152.236 112.991,-152.594"/>
<polygon fill="#2e3436" stroke="#2e3436" points="105.394,-153.663 112.351,-149.276 109.038,-152.645 112.751,-152.123 112.821,-152.618 112.891,-153.113 109.177,-153.635 113.291,-155.96 105.394,-153.663 105.394,-153.663"/>
<text text-anchor="middle" x="116.787" y="-155.86" font-family="FreeSans" font-size="8.00" fill="#2e3436">X</text>
</g>
<!-- N5&#45;&gt;N6 -->
<g id="edge20" class="edge"><title>N5&#45;&gt;N6</title>
<path fill="none" stroke="#2e3436" stroke-width="2" d="M61.6717,-139.561C57.6563,-134.435 53.2257,-128.779 48.9827,-123.363"/>
<polygon fill="#2e3436" stroke="#2e3436" points="44.1242,-117.161 51.4062,-120.984 46.8304,-119.805 49.143,-122.757 48.7494,-123.065 48.3558,-123.373 46.0432,-120.421 46.0925,-125.146 44.1242,-117.161 44.1242,-117.161"/>
<text text-anchor="middle" x="50.3272" y="-133.262" font-family="FreeSans" font-size="8.00" fill="#2e3436">X</text>
</g>
<!-- N6&#45;&gt;N7 -->
<g id="edge22" class="edge"><title>N6&#45;&gt;N7</title>
<path fill="none" stroke="#2e3436" stroke-width="2" d="M37.3158,-80.9541C40.4563,-73.1511 44.1807,-63.8975 47.5893,-55.4284"/>
<polygon fill="#2e3436" stroke="#2e3436" points="50.4809,-48.244 50.8115,-56.4618 49.5446,-51.9095 48.1444,-55.3883 47.6806,-55.2016 47.2167,-55.015 48.6169,-51.5361 44.5496,-53.9415 50.4809,-48.244 50.4809,-48.244"/>
<text text-anchor="middle" x="37.4526" y="-63.9912" font-family="FreeSans" font-size="8.00" fill="#2e3436">X</text>
</g>
<!-- N7&#45;&gt;N2 -->
<g id="edge24" class="edge"><title>N7&#45;&gt;N2</title>
<path fill="none" stroke="#2e3436" stroke-width="2" d="M87.0521,-25.8188C89.5534,-25.4652 92.1044,-25.1045 94.6562,-24.7437"/>
<polygon fill="#2e3436" stroke="#2e3436" points="102.266,-23.6679 95.312,-28.0597 98.6226,-24.688 94.9095,-25.213 94.8395,-24.7179 94.7695,-24.2228 98.4826,-23.6978 94.367,-21.3761 102.266,-23.6679 102.266,-23.6679"/>
<text text-anchor="middle" x="90.8541" y="-17.0813" font-family="FreeSans" font-size="8.00" fill="#2e3436">X</text>
</g>
</g>
</svg>
