<?xml version="1.0" encoding="UTF-8" standalone="no"?>
<!DOCTYPE svg PUBLIC "-//W3C//DTD SVG 1.1//EN"
 "http://www.w3.org/Graphics/SVG/1.1/DTD/svg11.dtd">
<!-- Generated by graphviz version 2.26.3 (20100126.1600)
 -->
<!-- Title: g Pages: 1 -->
<svg width="197pt" height="214pt"
 viewBox="0.00 0.00 197.00 214.00" xmlns="http://www.w3.org/2000/svg" xmlns:xlink="http://www.w3.org/1999/xlink">
<g id="graph1" class="graph" transform="scale(1 1) rotate(0) translate(4 210)">
<title>g</title>
<polygon fill="white" stroke="white" points="-4,5 -4,-210 194,-210 194,5 -4,5"/>
<!-- N98 -->
<g id="node1" class="node"><title>N98</title>
<polygon fill="#ffffff" stroke="#ffffff" stroke-width="1.5" points="54.5,-85 85.5,-85 97.5,-97 97.5,-109 85.5,-121 54.5,-121 42.5,-109 42.5,-97 54.5,-85"/>
<path fill="#ffffff" stroke="#ffffff" stroke-width="1.5" d="M85.5,-85C91.5,-85 97.5,-91 97.5,-97"/>
<path fill="#ffffff" stroke="#ffffff" stroke-width="1.5" d="M97.5,-109C97.5,-115 91.5,-121 85.5,-121"/>
<path fill="#ffffff" stroke="#ffffff" stroke-width="1.5" d="M54.5,-121C48.5,-121 42.5,-115 42.5,-109"/>
<path fill="#ffffff" stroke="#ffffff" stroke-width="1.5" d="M42.5,-97C42.5,-91 48.5,-85 54.5,-85"/>
<polyline fill="none" stroke="#2e3436" stroke-width="1.5" points="54.5,-85 85.5,-85 "/>
<path fill="none" stroke="#2e3436" stroke-width="1.5" d="M85.5,-85C91.5,-85 97.5,-91 97.5,-97"/>
<polyline fill="none" stroke="#2e3436" stroke-width="1.5" points="97.5,-97 97.5,-109 "/>
<path fill="none" stroke="#2e3436" stroke-width="1.5" d="M97.5,-109C97.5,-115 91.5,-121 85.5,-121"/>
<polyline fill="none" stroke="#2e3436" stroke-width="1.5" points="85.5,-121 54.5,-121 "/>
<path fill="none" stroke="#2e3436" stroke-width="1.5" d="M54.5,-121C48.5,-121 42.5,-115 42.5,-109"/>
<polyline fill="none" stroke="#2e3436" stroke-width="1.5" points="42.5,-109 42.5,-97 "/>
<path fill="none" stroke="#2e3436" stroke-width="1.5" d="M42.5,-97C42.5,-91 48.5,-85 54.5,-85"/>
<text text-anchor="middle" x="70" y="-109.8" font-family="FreeSans" font-size="8.00" fill="#1c2021">Node[98]</text>
<polyline fill="none" stroke="#2e3436" stroke-width="1.5" points="42.5,-103 97.5,-103 "/>
<text text-anchor="middle" x="70" y="-91.8" font-family="FreeSans" font-size="8.00" fill="#1c2021"> </text>
</g>
<!-- N99 -->
<g id="node3" class="node"><title>N99</title>
<polygon fill="#ffffff" stroke="#ffffff" stroke-width="1.5" points="11.5,-1 42.5,-1 54.5,-13 54.5,-25 42.5,-37 11.5,-37 -0.5,-25 -0.5,-13 11.5,-1"/>
<path fill="#ffffff" stroke="#ffffff" stroke-width="1.5" d="M42.5,-1C48.5,-1 54.5,-7 54.5,-13"/>
<path fill="#ffffff" stroke="#ffffff" stroke-width="1.5" d="M54.5,-25C54.5,-31 48.5,-37 42.5,-37"/>
<path fill="#ffffff" stroke="#ffffff" stroke-width="1.5" d="M11.5,-37C5.5,-37 -0.5,-31 -0.5,-25"/>
<path fill="#ffffff" stroke="#ffffff" stroke-width="1.5" d="M-0.5,-13C-0.5,-7 5.5,-1 11.5,-1"/>
<polyline fill="none" stroke="#2e3436" stroke-width="1.5" points="11.5,-1 42.5,-1 "/>
<path fill="none" stroke="#2e3436" stroke-width="1.5" d="M42.5,-1C48.5,-1 54.5,-7 54.5,-13"/>
<polyline fill="none" stroke="#2e3436" stroke-width="1.5" points="54.5,-13 54.5,-25 "/>
<path fill="none" stroke="#2e3436" stroke-width="1.5" d="M54.5,-25C54.5,-31 48.5,-37 42.5,-37"/>
<polyline fill="none" stroke="#2e3436" stroke-width="1.5" points="42.5,-37 11.5,-37 "/>
<path fill="none" stroke="#2e3436" stroke-width="1.5" d="M11.5,-37C5.5,-37 -0.5,-31 -0.5,-25"/>
<polyline fill="none" stroke="#2e3436" stroke-width="1.5" points="-0.5,-25 -0.5,-13 "/>
<path fill="none" stroke="#2e3436" stroke-width="1.5" d="M-0.5,-13C-0.5,-7 5.5,-1 11.5,-1"/>
<text text-anchor="middle" x="27" y="-25.8" font-family="FreeSans" font-size="8.00" fill="#1c2021">Node[99]</text>
<polyline fill="none" stroke="#2e3436" stroke-width="1.5" points="-0.5,-19 54.5,-19 "/>
<text text-anchor="middle" x="27" y="-7.8" font-family="FreeSans" font-size="8.00" fill="#1c2021"> </text>
</g>
<!-- N98&#45;&gt;N99 -->
<g id="edge2" class="edge"><title>N98&#45;&gt;N99</title>
<path fill="none" stroke="#2e3436" stroke-width="2" d="M60.6696,-84.7733C54.5841,-72.8851 46.5589,-57.2081 39.87,-44.1413"/>
<polygon fill="#2e3436" stroke="#2e3436" points="36.3122,-37.1912 42.734,-42.3294 38.466,-40.3014 40.1748,-43.6395 39.7297,-43.8673 39.2847,-44.0951 37.5759,-40.7571 36.7255,-45.4052 36.3122,-37.1912 36.3122,-37.1912"/>
<text text-anchor="middle" x="62" y="-58.8" font-family="FreeSans" font-size="8.00" fill="#2e3436">LIKES</text>
</g>
<!-- N101 -->
<g id="node5" class="node"><title>N101</title>
<polygon fill="#ffffff" stroke="#ffffff" stroke-width="1.5" points="95,-1 131,-1 143,-13 143,-25 131,-37 95,-37 83,-25 83,-13 95,-1"/>
<path fill="#ffffff" stroke="#ffffff" stroke-width="1.5" d="M131,-1C137,-1 143,-7 143,-13"/>
<path fill="#ffffff" stroke="#ffffff" stroke-width="1.5" d="M143,-25C143,-31 137,-37 131,-37"/>
<path fill="#ffffff" stroke="#ffffff" stroke-width="1.5" d="M95,-37C89,-37 83,-31 83,-25"/>
<path fill="#ffffff" stroke="#ffffff" stroke-width="1.5" d="M83,-13C83,-7 89,-1 95,-1"/>
<polyline fill="none" stroke="#2e3436" stroke-width="1.5" points="95,-1 131,-1 "/>
<path fill="none" stroke="#2e3436" stroke-width="1.5" d="M131,-1C137,-1 143,-7 143,-13"/>
<polyline fill="none" stroke="#2e3436" stroke-width="1.5" points="143,-13 143,-25 "/>
<path fill="none" stroke="#2e3436" stroke-width="1.5" d="M143,-25C143,-31 137,-37 131,-37"/>
<polyline fill="none" stroke="#2e3436" stroke-width="1.5" points="131,-37 95,-37 "/>
<path fill="none" stroke="#2e3436" stroke-width="1.5" d="M95,-37C89,-37 83,-31 83,-25"/>
<polyline fill="none" stroke="#2e3436" stroke-width="1.5" points="83,-25 83,-13 "/>
<path fill="none" stroke="#2e3436" stroke-width="1.5" d="M83,-13C83,-7 89,-1 95,-1"/>
<text text-anchor="middle" x="113" y="-25.8" font-family="FreeSans" font-size="8.00" fill="#1c2021">Node[101]</text>
<polyline fill="none" stroke="#2e3436" stroke-width="1.5" points="83,-19 143,-19 "/>
<text text-anchor="middle" x="113" y="-7.8" font-family="FreeSans" font-size="8.00" fill="#1c2021"> </text>
</g>
<!-- N98&#45;&gt;N101 -->
<g id="edge4" class="edge"><title>N98&#45;&gt;N101</title>
<path fill="none" stroke="#4e9a06" stroke-width="2" d="M79.3304,-84.7733C85.4159,-72.8851 93.4411,-57.2081 100.13,-44.1413"/>
<polygon fill="#4e9a06" stroke="#4e9a06" points="103.688,-37.1912 103.275,-45.4052 102.424,-40.7571 100.715,-44.0951 100.27,-43.8673 99.8252,-43.6395 101.534,-40.3014 97.266,-42.3294 103.688,-37.1912 103.688,-37.1912"/>
<text text-anchor="middle" x="106" y="-58.8" font-family="FreeSans" font-size="8.00" fill="#4e9a06">HATES</text>
</g>
<!-- N100 -->
<g id="node6" class="node"><title>N100</title>
<polygon fill="#ffffff" stroke="#ffffff" stroke-width="1.5" points="52,-169 88,-169 100,-181 100,-193 88,-205 52,-205 40,-193 40,-181 52,-169"/>
<path fill="#ffffff" stroke="#ffffff" stroke-width="1.5" d="M88,-169C94,-169 100,-175 100,-181"/>
<path fill="#ffffff" stroke="#ffffff" stroke-width="1.5" d="M100,-193C100,-199 94,-205 88,-205"/>
<path fill="#ffffff" stroke="#ffffff" stroke-width="1.5" d="M52,-205C46,-205 40,-199 40,-193"/>
<path fill="#ffffff" stroke="#ffffff" stroke-width="1.5" d="M40,-181C40,-175 46,-169 52,-169"/>
<polyline fill="none" stroke="#2e3436" stroke-width="1.5" points="52,-169 88,-169 "/>
<path fill="none" stroke="#2e3436" stroke-width="1.5" d="M88,-169C94,-169 100,-175 100,-181"/>
<polyline fill="none" stroke="#2e3436" stroke-width="1.5" points="100,-181 100,-193 "/>
<path fill="none" stroke="#2e3436" stroke-width="1.5" d="M100,-193C100,-199 94,-205 88,-205"/>
<polyline fill="none" stroke="#2e3436" stroke-width="1.5" points="88,-205 52,-205 "/>
<path fill="none" stroke="#2e3436" stroke-width="1.5" d="M52,-205C46,-205 40,-199 40,-193"/>
<polyline fill="none" stroke="#2e3436" stroke-width="1.5" points="40,-193 40,-181 "/>
<path fill="none" stroke="#2e3436" stroke-width="1.5" d="M40,-181C40,-175 46,-169 52,-169"/>
<text text-anchor="middle" x="70" y="-193.8" font-family="FreeSans" font-size="8.00" fill="#1c2021">Node[100]</text>
<polyline fill="none" stroke="#2e3436" stroke-width="1.5" points="40,-187 100,-187 "/>
<text text-anchor="middle" x="70" y="-175.8" font-family="FreeSans" font-size="8.00" fill="#1c2021"> </text>
</g>
<!-- N100&#45;&gt;N98 -->
<g id="edge6" class="edge"><title>N100&#45;&gt;N98</title>
<path fill="none" stroke="#2e3436" stroke-width="2" d="M70,-168.773C70,-157.105 70,-141.787 70,-128.87"/>
<polygon fill="#2e3436" stroke="#2e3436" points="70,-121.191 73.3751,-128.691 70.5,-124.941 70.5001,-128.691 70.0001,-128.691 69.5001,-128.691 69.5,-124.941 66.6251,-128.691 70,-121.191 70,-121.191"/>
<text text-anchor="middle" x="82" y="-142.8" font-family="FreeSans" font-size="8.00" fill="#2e3436">LIKES</text>
</g>
<!-- N102 -->
<g id="node8" class="node"><title>N102</title>
<polygon fill="#ffffff" stroke="#ffffff" stroke-width="1.5" points="141,-169 177,-169 189,-181 189,-193 177,-205 141,-205 129,-193 129,-181 141,-169"/>
<path fill="#ffffff" stroke="#ffffff" stroke-width="1.5" d="M177,-169C183,-169 189,-175 189,-181"/>
<path fill="#ffffff" stroke="#ffffff" stroke-width="1.5" d="M189,-193C189,-199 183,-205 177,-205"/>
<path fill="#ffffff" stroke="#ffffff" stroke-width="1.5" d="M141,-205C135,-205 129,-199 129,-193"/>
<path fill="#ffffff" stroke="#ffffff" stroke-width="1.5" d="M129,-181C129,-175 135,-169 141,-169"/>
<polyline fill="none" stroke="#2e3436" stroke-width="1.5" points="141,-169 177,-169 "/>
<path fill="none" stroke="#2e3436" stroke-width="1.5" d="M177,-169C183,-169 189,-175 189,-181"/>
<polyline fill="none" stroke="#2e3436" stroke-width="1.5" points="189,-181 189,-193 "/>
<path fill="none" stroke="#2e3436" stroke-width="1.5" d="M189,-193C189,-199 183,-205 177,-205"/>
<polyline fill="none" stroke="#2e3436" stroke-width="1.5" points="177,-205 141,-205 "/>
<path fill="none" stroke="#2e3436" stroke-width="1.5" d="M141,-205C135,-205 129,-199 129,-193"/>
<polyline fill="none" stroke="#2e3436" stroke-width="1.5" points="129,-193 129,-181 "/>
<path fill="none" stroke="#2e3436" stroke-width="1.5" d="M129,-181C129,-175 135,-169 141,-169"/>
<text text-anchor="middle" x="159" y="-193.8" font-family="FreeSans" font-size="8.00" fill="#1c2021">Node[102]</text>
<polyline fill="none" stroke="#2e3436" stroke-width="1.5" points="129,-187 189,-187 "/>
<text text-anchor="middle" x="159" y="-175.8" font-family="FreeSans" font-size="8.00" fill="#1c2021"> </text>
</g>
</g>
</svg>
