<?xml version="1.0" encoding="UTF-8" standalone="no"?>
<!DOCTYPE svg PUBLIC "-//W3C//DTD SVG 1.1//EN"
 "http://www.w3.org/Graphics/SVG/1.1/DTD/svg11.dtd">
<!-- Generated by graphviz version 2.26.3 (20100126.1600)
 -->
<!-- Title: g Pages: 1 -->
<svg width="104pt" height="140pt"
 viewBox="0.00 0.00 104.00 140.00" xmlns="http://www.w3.org/2000/svg" xmlns:xlink="http://www.w3.org/1999/xlink">
<g id="graph1" class="graph" transform="scale(1 1) rotate(0) translate(4 136)">
<title>g</title>
<polygon fill="white" stroke="white" points="-4,5 -4,-136 101,-136 101,5 -4,5"/>
<!-- N80 -->
<g id="node1" class="node"><title>N80</title>
<polygon fill="#ffffff" stroke="#ffffff" stroke-width="1.5" points="11.5,-95 42.5,-95 54.5,-107 54.5,-119 42.5,-131 11.5,-131 -0.5,-119 -0.5,-107 11.5,-95"/>
<path fill="#ffffff" stroke="#ffffff" stroke-width="1.5" d="M42.5,-95C48.5,-95 54.5,-101 54.5,-107"/>
<path fill="#ffffff" stroke="#ffffff" stroke-width="1.5" d="M54.5,-119C54.5,-125 48.5,-131 42.5,-131"/>
<path fill="#ffffff" stroke="#ffffff" stroke-width="1.5" d="M11.5,-131C5.5,-131 -0.5,-125 -0.5,-119"/>
<path fill="#ffffff" stroke="#ffffff" stroke-width="1.5" d="M-0.5,-107C-0.5,-101 5.5,-95 11.5,-95"/>
<polyline fill="none" stroke="#2e3436" stroke-width="1.5" points="11.5,-95 42.5,-95 "/>
<path fill="none" stroke="#2e3436" stroke-width="1.5" d="M42.5,-95C48.5,-95 54.5,-101 54.5,-107"/>
<polyline fill="none" stroke="#2e3436" stroke-width="1.5" points="54.5,-107 54.5,-119 "/>
<path fill="none" stroke="#2e3436" stroke-width="1.5" d="M54.5,-119C54.5,-125 48.5,-131 42.5,-131"/>
<polyline fill="none" stroke="#2e3436" stroke-width="1.5" points="42.5,-131 11.5,-131 "/>
<path fill="none" stroke="#2e3436" stroke-width="1.5" d="M11.5,-131C5.5,-131 -0.5,-125 -0.5,-119"/>
<polyline fill="none" stroke="#2e3436" stroke-width="1.5" points="-0.5,-119 -0.5,-107 "/>
<path fill="none" stroke="#2e3436" stroke-width="1.5" d="M-0.5,-107C-0.5,-101 5.5,-95 11.5,-95"/>
<text text-anchor="middle" x="27" y="-119.8" font-family="FreeSans" font-size="8.00" fill="#1c2021">Node[80]</text>
<polyline fill="none" stroke="#2e3436" stroke-width="1.5" points="-0.5,-113 54.5,-113 "/>
<text text-anchor="middle" x="27" y="-101.8" font-family="FreeSans" font-size="8.00" fill="#1c2021"> </text>
</g>
<!-- N81 -->
<g id="node3" class="node"><title>N81</title>
<polygon fill="#ffffff" stroke="#ffffff" stroke-width="1.5" points="11.5,-1 42.5,-1 54.5,-13 54.5,-25 42.5,-37 11.5,-37 -0.5,-25 -0.5,-13 11.5,-1"/>
<path fill="#ffffff" stroke="#ffffff" stroke-width="1.5" d="M42.5,-1C48.5,-1 54.5,-7 54.5,-13"/>
<path fill="#ffffff" stroke="#ffffff" stroke-width="1.5" d="M54.5,-25C54.5,-31 48.5,-37 42.5,-37"/>
<path fill="#ffffff" stroke="#ffffff" stroke-width="1.5" d="M11.5,-37C5.5,-37 -0.5,-31 -0.5,-25"/>
<path fill="#ffffff" stroke="#ffffff" stroke-width="1.5" d="M-0.5,-13C-0.5,-7 5.5,-1 11.5,-1"/>
<polyline fill="none" stroke="#2e3436" stroke-width="1.5" points="11.5,-1 42.5,-1 "/>
<path fill="none" stroke="#2e3436" stroke-width="1.5" d="M42.5,-1C48.5,-1 54.5,-7 54.5,-13"/>
<polyline fill="none" stroke="#2e3436" stroke-width="1.5" points="54.5,-13 54.5,-25 "/>
<path fill="none" stroke="#2e3436" stroke-width="1.5" d="M54.5,-25C54.5,-31 48.5,-37 42.5,-37"/>
<polyline fill="none" stroke="#2e3436" stroke-width="1.5" points="42.5,-37 11.5,-37 "/>
<path fill="none" stroke="#2e3436" stroke-width="1.5" d="M11.5,-37C5.5,-37 -0.5,-31 -0.5,-25"/>
<polyline fill="none" stroke="#2e3436" stroke-width="1.5" points="-0.5,-25 -0.5,-13 "/>
<path fill="none" stroke="#2e3436" stroke-width="1.5" d="M-0.5,-13C-0.5,-7 5.5,-1 11.5,-1"/>
<text text-anchor="middle" x="27" y="-25.8" font-family="FreeSans" font-size="8.00" fill="#1c2021">Node[81]</text>
<polyline fill="none" stroke="#2e3436" stroke-width="1.5" points="-0.5,-19 54.5,-19 "/>
<text text-anchor="middle" x="27" y="-7.8" font-family="FreeSans" font-size="8.00" fill="#1c2021"> </text>
</g>
<!-- N80&#45;&gt;N81 -->
<g id="edge2" class="edge"><title>N80&#45;&gt;N81</title>
<path fill="none" stroke="#2e3436" stroke-width="2" d="M27,-94.8759C27,-80.7014 27,-60.806 27,-44.944"/>
<polygon fill="#2e3436" stroke="#2e3436" points="27,-37.0685 30.3751,-44.5685 27.5,-40.8185 27.5001,-44.5685 27.0001,-44.5685 26.5001,-44.5685 26.5,-40.8185 23.6251,-44.5685 27,-37.0685 27,-37.0685"/>
<text text-anchor="middle" x="61.5" y="-68.8" font-family="FreeSans" font-size="8.00" fill="#2e3436">knowledge</text>
<text text-anchor="start" x="27" y="-58.8" font-family="FreeSans" font-size="8.00" fill="#2e3436">name = &#39;Tobias&#39;</text>
</g>
</g>
</svg>
