<?xml version="1.0" encoding="UTF-8" standalone="no"?>
<!DOCTYPE svg PUBLIC "-//W3C//DTD SVG 1.1//EN"
 "http://www.w3.org/Graphics/SVG/1.1/DTD/svg11.dtd">
<!-- Generated by graphviz version 2.26.3 (20100126.1600)
 -->
<!-- Title: g Pages: 1 -->
<svg width="93pt" height="140pt"
 viewBox="0.00 0.00 93.00 140.00" xmlns="http://www.w3.org/2000/svg" xmlns:xlink="http://www.w3.org/1999/xlink">
<g id="graph1" class="graph" transform="scale(1 1) rotate(0) translate(4 136)">
<title>g</title>
<polygon fill="white" stroke="white" points="-4,5 -4,-136 90,-136 90,5 -4,5"/>
<!-- N84 -->
<g id="node1" class="node"><title>N84</title>
<polygon fill="#ffffff" stroke="#ffffff" stroke-width="1.5" points="12,-1 66,-1 78,-13 78,-25 66,-37 12,-37 0,-25 0,-13 12,-1"/>
<path fill="#ffffff" stroke="#ffffff" stroke-width="1.5" d="M66,-1C72,-1 78,-7 78,-13"/>
<path fill="#ffffff" stroke="#ffffff" stroke-width="1.5" d="M78,-25C78,-31 72,-37 66,-37"/>
<path fill="#ffffff" stroke="#ffffff" stroke-width="1.5" d="M12,-37C6,-37 0,-31 0,-25"/>
<path fill="#ffffff" stroke="#ffffff" stroke-width="1.5" d="M0,-13C0,-7 6,-1 12,-1"/>
<polyline fill="none" stroke="#2e3436" stroke-width="1.5" points="12,-1 66,-1 "/>
<path fill="none" stroke="#2e3436" stroke-width="1.5" d="M66,-1C72,-1 78,-7 78,-13"/>
<polyline fill="none" stroke="#2e3436" stroke-width="1.5" points="78,-13 78,-25 "/>
<path fill="none" stroke="#2e3436" stroke-width="1.5" d="M78,-25C78,-31 72,-37 66,-37"/>
<polyline fill="none" stroke="#2e3436" stroke-width="1.5" points="66,-37 12,-37 "/>
<path fill="none" stroke="#2e3436" stroke-width="1.5" d="M12,-37C6,-37 0,-31 0,-25"/>
<polyline fill="none" stroke="#2e3436" stroke-width="1.5" points="0,-25 0,-13 "/>
<path fill="none" stroke="#2e3436" stroke-width="1.5" d="M0,-13C0,-7 6,-1 12,-1"/>
<text text-anchor="middle" x="39" y="-25.8" font-family="FreeSans" font-size="8.00" fill="#1c2021">Node[84]</text>
<polyline fill="none" stroke="#2e3436" stroke-width="1.5" points="0,-19 78,-19 "/>
<text text-anchor="start" x="8" y="-7.8" font-family="FreeSans" font-size="8.00" fill="#1c2021">name = &#39;Sara&#39;</text>
</g>
<!-- N85 -->
<g id="node2" class="node"><title>N85</title>
<polygon fill="#ffffff" stroke="#ffffff" stroke-width="1.5" points="15.5,-95 62.5,-95 74.5,-107 74.5,-119 62.5,-131 15.5,-131 3.5,-119 3.5,-107 15.5,-95"/>
<path fill="#ffffff" stroke="#ffffff" stroke-width="1.5" d="M62.5,-95C68.5,-95 74.5,-101 74.5,-107"/>
<path fill="#ffffff" stroke="#ffffff" stroke-width="1.5" d="M74.5,-119C74.5,-125 68.5,-131 62.5,-131"/>
<path fill="#ffffff" stroke="#ffffff" stroke-width="1.5" d="M15.5,-131C9.5,-131 3.5,-125 3.5,-119"/>
<path fill="#ffffff" stroke="#ffffff" stroke-width="1.5" d="M3.5,-107C3.5,-101 9.5,-95 15.5,-95"/>
<polyline fill="none" stroke="#2e3436" stroke-width="1.5" points="15.5,-95 62.5,-95 "/>
<path fill="none" stroke="#2e3436" stroke-width="1.5" d="M62.5,-95C68.5,-95 74.5,-101 74.5,-107"/>
<polyline fill="none" stroke="#2e3436" stroke-width="1.5" points="74.5,-107 74.5,-119 "/>
<path fill="none" stroke="#2e3436" stroke-width="1.5" d="M74.5,-119C74.5,-125 68.5,-131 62.5,-131"/>
<polyline fill="none" stroke="#2e3436" stroke-width="1.5" points="62.5,-131 15.5,-131 "/>
<path fill="none" stroke="#2e3436" stroke-width="1.5" d="M15.5,-131C9.5,-131 3.5,-125 3.5,-119"/>
<polyline fill="none" stroke="#2e3436" stroke-width="1.5" points="3.5,-119 3.5,-107 "/>
<path fill="none" stroke="#2e3436" stroke-width="1.5" d="M3.5,-107C3.5,-101 9.5,-95 15.5,-95"/>
<text text-anchor="middle" x="39" y="-119.8" font-family="FreeSans" font-size="8.00" fill="#1c2021">Node[85]</text>
<polyline fill="none" stroke="#2e3436" stroke-width="1.5" points="3.5,-113 74.5,-113 "/>
<text text-anchor="start" x="11.5" y="-101.8" font-family="FreeSans" font-size="8.00" fill="#1c2021">name = &#39;Joe&#39;</text>
</g>
<!-- N85&#45;&gt;N84 -->
<g id="edge2" class="edge"><title>N85&#45;&gt;N84</title>
<path fill="none" stroke="#2e3436" stroke-width="2" d="M18.1582,-94.8719C13.2257,-89.3621 8.63643,-82.9169 6,-76 2.8341,-67.694 2.8341,-64.306 6,-56 7.73016,-51.4608 10.3013,-47.1247 13.2586,-43.1228"/>
<polygon fill="#2e3436" stroke="#2e3436" points="18.1582,-37.1281 16.0251,-45.0711 16.1722,-40.3481 13.799,-43.2517 13.4119,-42.9353 13.0248,-42.6188 15.3979,-39.7152 10.7987,-40.7994 18.1582,-37.1281 18.1582,-37.1281"/>
<text text-anchor="middle" x="20" y="-63.8" font-family="FreeSans" font-size="8.00" fill="#2e3436">knows</text>
</g>
<!-- N85&#45;&gt;N84 -->
<g id="edge4" class="edge"><title>N85&#45;&gt;N84</title>
<path fill="none" stroke="#4e9a06" stroke-width="2" d="M39,-94.8759C39,-80.7014 39,-60.806 39,-44.944"/>
<polygon fill="#4e9a06" stroke="#4e9a06" points="39,-37.0685 42.3751,-44.5685 39.5,-40.8185 39.5001,-44.5685 39.0001,-44.5685 38.5001,-44.5685 38.5,-40.8185 35.6251,-44.5685 39,-37.0685 39,-37.0685"/>
<text text-anchor="middle" x="62" y="-68.8" font-family="FreeSans" font-size="8.00" fill="#4e9a06">LOVES</text>
<text text-anchor="start" x="39" y="-58.8" font-family="FreeSans" font-size="8.00" fill="#4e9a06">foo = &#39;bar&#39;</text>
</g>
</g>
</svg>
