<?xml version="1.0" encoding="UTF-8" standalone="no"?>
<!DOCTYPE svg PUBLIC "-//W3C//DTD SVG 1.1//EN"
 "http://www.w3.org/Graphics/SVG/1.1/DTD/svg11.dtd">
<!-- Generated by graphviz version 2.26.3 (20100126.1600)
 -->
<!-- Title: g Pages: 1 -->
<svg width="156pt" height="130pt"
 viewBox="0.00 0.00 156.00 130.00" xmlns="http://www.w3.org/2000/svg" xmlns:xlink="http://www.w3.org/1999/xlink">
<g id="graph1" class="graph" transform="scale(1 1) rotate(0) translate(4 126)">
<title>g</title>
<polygon fill="white" stroke="white" points="-4,5 -4,-126 153,-126 153,5 -4,5"/>
<!-- N0 -->
<g id="node1" class="node"><title>N0</title>
<polygon fill="#ffffff" stroke="#ffffff" stroke-width="1.5" points="12,-85 42,-85 54,-97 54,-109 42,-121 12,-121 0,-109 0,-97 12,-85"/>
<path fill="#ffffff" stroke="#ffffff" stroke-width="1.5" d="M42,-85C48,-85 54,-91 54,-97"/>
<path fill="#ffffff" stroke="#ffffff" stroke-width="1.5" d="M54,-109C54,-115 48,-121 42,-121"/>
<path fill="#ffffff" stroke="#ffffff" stroke-width="1.5" d="M12,-121C6,-121 0,-115 0,-109"/>
<path fill="#ffffff" stroke="#ffffff" stroke-width="1.5" d="M0,-97C0,-91 6,-85 12,-85"/>
<polyline fill="none" stroke="#2e3436" stroke-width="1.5" points="12,-85 42,-85 "/>
<path fill="none" stroke="#2e3436" stroke-width="1.5" d="M42,-85C48,-85 54,-91 54,-97"/>
<polyline fill="none" stroke="#2e3436" stroke-width="1.5" points="54,-97 54,-109 "/>
<path fill="none" stroke="#2e3436" stroke-width="1.5" d="M54,-109C54,-115 48,-121 42,-121"/>
<polyline fill="none" stroke="#2e3436" stroke-width="1.5" points="42,-121 12,-121 "/>
<path fill="none" stroke="#2e3436" stroke-width="1.5" d="M12,-121C6,-121 0,-115 0,-109"/>
<polyline fill="none" stroke="#2e3436" stroke-width="1.5" points="0,-109 0,-97 "/>
<path fill="none" stroke="#2e3436" stroke-width="1.5" d="M0,-97C0,-91 6,-85 12,-85"/>
<text text-anchor="middle" x="27" y="-109.8" font-family="FreeSans" font-size="8.00" fill="#1c2021">Node[0]</text>
<polyline fill="none" stroke="#2e3436" stroke-width="1.5" points="0,-103 54,-103 "/>
<text text-anchor="middle" x="27" y="-91.8" font-family="FreeSans" font-size="8.00" fill="#1c2021"> </text>
</g>
<!-- N9 -->
<g id="node2" class="node"><title>N9</title>
<polygon fill="#ffffff" stroke="#ffffff" stroke-width="1.5" points="95,-85 131,-85 143,-97 143,-109 131,-121 95,-121 83,-109 83,-97 95,-85"/>
<path fill="#ffffff" stroke="#ffffff" stroke-width="1.5" d="M131,-85C137,-85 143,-91 143,-97"/>
<path fill="#ffffff" stroke="#ffffff" stroke-width="1.5" d="M143,-109C143,-115 137,-121 131,-121"/>
<path fill="#ffffff" stroke="#ffffff" stroke-width="1.5" d="M95,-121C89,-121 83,-115 83,-109"/>
<path fill="#ffffff" stroke="#ffffff" stroke-width="1.5" d="M83,-97C83,-91 89,-85 95,-85"/>
<polyline fill="none" stroke="#2e3436" stroke-width="1.5" points="95,-85 131,-85 "/>
<path fill="none" stroke="#2e3436" stroke-width="1.5" d="M131,-85C137,-85 143,-91 143,-97"/>
<polyline fill="none" stroke="#2e3436" stroke-width="1.5" points="143,-97 143,-109 "/>
<path fill="none" stroke="#2e3436" stroke-width="1.5" d="M143,-109C143,-115 137,-121 131,-121"/>
<polyline fill="none" stroke="#2e3436" stroke-width="1.5" points="131,-121 95,-121 "/>
<path fill="none" stroke="#2e3436" stroke-width="1.5" d="M95,-121C89,-121 83,-115 83,-109"/>
<polyline fill="none" stroke="#2e3436" stroke-width="1.5" points="83,-109 83,-97 "/>
<path fill="none" stroke="#2e3436" stroke-width="1.5" d="M83,-97C83,-91 89,-85 95,-85"/>
<text text-anchor="middle" x="113" y="-109.8" font-family="FreeSans" font-size="8.00" fill="#1c2021">Node[9]</text>
<polyline fill="none" stroke="#2e3436" stroke-width="1.5" points="83,-103 143,-103 "/>
<text text-anchor="start" x="91" y="-91.8" font-family="FreeSans" font-size="8.00" fill="#1c2021">age = &#39;18&#39;</text>
</g>
<!-- N10 -->
<g id="node4" class="node"><title>N10</title>
<polygon fill="#ffffff" stroke="#ffffff" stroke-width="1.5" points="89.5,-1 136.5,-1 148.5,-13 148.5,-25 136.5,-37 89.5,-37 77.5,-25 77.5,-13 89.5,-1"/>
<path fill="#ffffff" stroke="#ffffff" stroke-width="1.5" d="M136.5,-1C142.5,-1 148.5,-7 148.5,-13"/>
<path fill="#ffffff" stroke="#ffffff" stroke-width="1.5" d="M148.5,-25C148.5,-31 142.5,-37 136.5,-37"/>
<path fill="#ffffff" stroke="#ffffff" stroke-width="1.5" d="M89.5,-37C83.5,-37 77.5,-31 77.5,-25"/>
<path fill="#ffffff" stroke="#ffffff" stroke-width="1.5" d="M77.5,-13C77.5,-7 83.5,-1 89.5,-1"/>
<polyline fill="none" stroke="#2e3436" stroke-width="1.5" points="89.5,-1 136.5,-1 "/>
<path fill="none" stroke="#2e3436" stroke-width="1.5" d="M136.5,-1C142.5,-1 148.5,-7 148.5,-13"/>
<polyline fill="none" stroke="#2e3436" stroke-width="1.5" points="148.5,-13 148.5,-25 "/>
<path fill="none" stroke="#2e3436" stroke-width="1.5" d="M148.5,-25C148.5,-31 142.5,-37 136.5,-37"/>
<polyline fill="none" stroke="#2e3436" stroke-width="1.5" points="136.5,-37 89.5,-37 "/>
<path fill="none" stroke="#2e3436" stroke-width="1.5" d="M89.5,-37C83.5,-37 77.5,-31 77.5,-25"/>
<polyline fill="none" stroke="#2e3436" stroke-width="1.5" points="77.5,-25 77.5,-13 "/>
<path fill="none" stroke="#2e3436" stroke-width="1.5" d="M77.5,-13C77.5,-7 83.5,-1 89.5,-1"/>
<text text-anchor="middle" x="113" y="-25.8" font-family="FreeSans" font-size="8.00" fill="#1c2021">Node[10]</text>
<polyline fill="none" stroke="#2e3436" stroke-width="1.5" points="77.5,-19 148.5,-19 "/>
<text text-anchor="start" x="85.5" y="-7.8" font-family="FreeSans" font-size="8.00" fill="#1c2021">name = &#39;joe&#39;</text>
</g>
<!-- N9&#45;&gt;N10 -->
<g id="edge2" class="edge"><title>N9&#45;&gt;N10</title>
<path fill="none" stroke="#2e3436" stroke-width="2" d="M113,-84.7733C113,-73.1053 113,-57.7874 113,-44.8699"/>
<polygon fill="#2e3436" stroke="#2e3436" points="113,-37.1912 116.375,-44.6911 113.5,-40.9412 113.5,-44.6912 113,-44.6912 112.5,-44.6912 112.5,-40.9412 109.625,-44.6912 113,-37.1912 113,-37.1912"/>
<text text-anchor="middle" x="127" y="-58.8" font-family="FreeSans" font-size="8.00" fill="#2e3436">knows</text>
</g>
</g>
</svg>
