<?xml version="1.0" encoding="UTF-8" standalone="no"?>
<!DOCTYPE svg PUBLIC "-//W3C//DTD SVG 1.1//EN"
 "http://www.w3.org/Graphics/SVG/1.1/DTD/svg11.dtd">
<!-- Generated by graphviz version 2.26.3 (20100126.1600)
 -->
<!-- Title: g Pages: 1 -->
<svg width="153pt" height="46pt"
 viewBox="0.00 0.00 153.00 46.00" xmlns="http://www.w3.org/2000/svg" xmlns:xlink="http://www.w3.org/1999/xlink">
<g id="graph1" class="graph" transform="scale(1 1) rotate(0) translate(4 42)">
<title>g</title>
<polygon fill="white" stroke="white" points="-4,5 -4,-42 150,-42 150,5 -4,5"/>
<!-- N0 -->
<g id="node1" class="node"><title>N0</title>
<polygon fill="#ffffff" stroke="#ffffff" stroke-width="1.5" points="12,-1 42,-1 54,-13 54,-25 42,-37 12,-37 0,-25 0,-13 12,-1"/>
<path fill="#ffffff" stroke="#ffffff" stroke-width="1.5" d="M42,-1C48,-1 54,-7 54,-13"/>
<path fill="#ffffff" stroke="#ffffff" stroke-width="1.5" d="M54,-25C54,-31 48,-37 42,-37"/>
<path fill="#ffffff" stroke="#ffffff" stroke-width="1.5" d="M12,-37C6,-37 0,-31 0,-25"/>
<path fill="#ffffff" stroke="#ffffff" stroke-width="1.5" d="M0,-13C0,-7 6,-1 12,-1"/>
<polyline fill="none" stroke="#2e3436" stroke-width="1.5" points="12,-1 42,-1 "/>
<path fill="none" stroke="#2e3436" stroke-width="1.5" d="M42,-1C48,-1 54,-7 54,-13"/>
<polyline fill="none" stroke="#2e3436" stroke-width="1.5" points="54,-13 54,-25 "/>
<path fill="none" stroke="#2e3436" stroke-width="1.5" d="M54,-25C54,-31 48,-37 42,-37"/>
<polyline fill="none" stroke="#2e3436" stroke-width="1.5" points="42,-37 12,-37 "/>
<path fill="none" stroke="#2e3436" stroke-width="1.5" d="M12,-37C6,-37 0,-31 0,-25"/>
<polyline fill="none" stroke="#2e3436" stroke-width="1.5" points="0,-25 0,-13 "/>
<path fill="none" stroke="#2e3436" stroke-width="1.5" d="M0,-13C0,-7 6,-1 12,-1"/>
<text text-anchor="middle" x="27" y="-25.8" font-family="FreeSans" font-size="8.00" fill="#1c2021">Node[0]</text>
<polyline fill="none" stroke="#2e3436" stroke-width="1.5" points="0,-19 54,-19 "/>
<text text-anchor="middle" x="27" y="-7.8" font-family="FreeSans" font-size="8.00" fill="#1c2021"> </text>
</g>
<!-- N2 -->
<g id="node2" class="node"><title>N2</title>
<polygon fill="#ffffff" stroke="#ffffff" stroke-width="1.5" points="95,-1 133,-1 145,-13 145,-25 133,-37 95,-37 83,-25 83,-13 95,-1"/>
<path fill="#ffffff" stroke="#ffffff" stroke-width="1.5" d="M133,-1C139,-1 145,-7 145,-13"/>
<path fill="#ffffff" stroke="#ffffff" stroke-width="1.5" d="M145,-25C145,-31 139,-37 133,-37"/>
<path fill="#ffffff" stroke="#ffffff" stroke-width="1.5" d="M95,-37C89,-37 83,-31 83,-25"/>
<path fill="#ffffff" stroke="#ffffff" stroke-width="1.5" d="M83,-13C83,-7 89,-1 95,-1"/>
<polyline fill="none" stroke="#2e3436" stroke-width="1.5" points="95,-1 133,-1 "/>
<path fill="none" stroke="#2e3436" stroke-width="1.5" d="M133,-1C139,-1 145,-7 145,-13"/>
<polyline fill="none" stroke="#2e3436" stroke-width="1.5" points="145,-13 145,-25 "/>
<path fill="none" stroke="#2e3436" stroke-width="1.5" d="M145,-25C145,-31 139,-37 133,-37"/>
<polyline fill="none" stroke="#2e3436" stroke-width="1.5" points="133,-37 95,-37 "/>
<path fill="none" stroke="#2e3436" stroke-width="1.5" d="M95,-37C89,-37 83,-31 83,-25"/>
<polyline fill="none" stroke="#2e3436" stroke-width="1.5" points="83,-25 83,-13 "/>
<path fill="none" stroke="#2e3436" stroke-width="1.5" d="M83,-13C83,-7 89,-1 95,-1"/>
<text text-anchor="middle" x="114" y="-25.8" font-family="FreeSans" font-size="8.00" fill="#1c2021">Node[2]</text>
<polyline fill="none" stroke="#2e3436" stroke-width="1.5" points="83,-19 145,-19 "/>
<text text-anchor="start" x="91" y="-7.8" font-family="FreeSans" font-size="8.00" fill="#1c2021">foo = &#39;bar&#39;</text>
</g>
</g>
</svg>
