<?xml version="1.0" encoding="UTF-8" standalone="no"?>
<!DOCTYPE svg PUBLIC "-//W3C//DTD SVG 1.1//EN"
 "http://www.w3.org/Graphics/SVG/1.1/DTD/svg11.dtd">
<!-- Generated by graphviz version 2.26.3 (20100126.1600)
 -->
<!-- Title: g Pages: 1 -->
<svg width="201pt" height="214pt"
 viewBox="0.00 0.00 201.00 214.00" xmlns="http://www.w3.org/2000/svg" xmlns:xlink="http://www.w3.org/1999/xlink">
<g id="graph1" class="graph" transform="scale(1 1) rotate(0) translate(4 210)">
<title>g</title>
<polygon fill="white" stroke="white" points="-4,5 -4,-210 198,-210 198,5 -4,5"/>
<!-- N113 -->
<g id="node1" class="node"><title>N113</title>
<polygon fill="#ffffff" stroke="#ffffff" stroke-width="1.5" points="56,-85 92,-85 104,-97 104,-109 92,-121 56,-121 44,-109 44,-97 56,-85"/>
<path fill="#ffffff" stroke="#ffffff" stroke-width="1.5" d="M92,-85C98,-85 104,-91 104,-97"/>
<path fill="#ffffff" stroke="#ffffff" stroke-width="1.5" d="M104,-109C104,-115 98,-121 92,-121"/>
<path fill="#ffffff" stroke="#ffffff" stroke-width="1.5" d="M56,-121C50,-121 44,-115 44,-109"/>
<path fill="#ffffff" stroke="#ffffff" stroke-width="1.5" d="M44,-97C44,-91 50,-85 56,-85"/>
<polyline fill="none" stroke="#2e3436" stroke-width="1.5" points="56,-85 92,-85 "/>
<path fill="none" stroke="#2e3436" stroke-width="1.5" d="M92,-85C98,-85 104,-91 104,-97"/>
<polyline fill="none" stroke="#2e3436" stroke-width="1.5" points="104,-97 104,-109 "/>
<path fill="none" stroke="#2e3436" stroke-width="1.5" d="M104,-109C104,-115 98,-121 92,-121"/>
<polyline fill="none" stroke="#2e3436" stroke-width="1.5" points="92,-121 56,-121 "/>
<path fill="none" stroke="#2e3436" stroke-width="1.5" d="M56,-121C50,-121 44,-115 44,-109"/>
<polyline fill="none" stroke="#2e3436" stroke-width="1.5" points="44,-109 44,-97 "/>
<path fill="none" stroke="#2e3436" stroke-width="1.5" d="M44,-97C44,-91 50,-85 56,-85"/>
<text text-anchor="middle" x="74" y="-109.8" font-family="FreeSans" font-size="8.00" fill="#1c2021">Node[113]</text>
<polyline fill="none" stroke="#2e3436" stroke-width="1.5" points="44,-103 104,-103 "/>
<text text-anchor="middle" x="74" y="-91.8" font-family="FreeSans" font-size="8.00" fill="#1c2021"> </text>
</g>
<!-- N114 -->
<g id="node3" class="node"><title>N114</title>
<polygon fill="#ffffff" stroke="#ffffff" stroke-width="1.5" points="12,-1 48,-1 60,-13 60,-25 48,-37 12,-37 0,-25 0,-13 12,-1"/>
<path fill="#ffffff" stroke="#ffffff" stroke-width="1.5" d="M48,-1C54,-1 60,-7 60,-13"/>
<path fill="#ffffff" stroke="#ffffff" stroke-width="1.5" d="M60,-25C60,-31 54,-37 48,-37"/>
<path fill="#ffffff" stroke="#ffffff" stroke-width="1.5" d="M12,-37C6,-37 0,-31 0,-25"/>
<path fill="#ffffff" stroke="#ffffff" stroke-width="1.5" d="M0,-13C0,-7 6,-1 12,-1"/>
<polyline fill="none" stroke="#2e3436" stroke-width="1.5" points="12,-1 48,-1 "/>
<path fill="none" stroke="#2e3436" stroke-width="1.5" d="M48,-1C54,-1 60,-7 60,-13"/>
<polyline fill="none" stroke="#2e3436" stroke-width="1.5" points="60,-13 60,-25 "/>
<path fill="none" stroke="#2e3436" stroke-width="1.5" d="M60,-25C60,-31 54,-37 48,-37"/>
<polyline fill="none" stroke="#2e3436" stroke-width="1.5" points="48,-37 12,-37 "/>
<path fill="none" stroke="#2e3436" stroke-width="1.5" d="M12,-37C6,-37 0,-31 0,-25"/>
<polyline fill="none" stroke="#2e3436" stroke-width="1.5" points="0,-25 0,-13 "/>
<path fill="none" stroke="#2e3436" stroke-width="1.5" d="M0,-13C0,-7 6,-1 12,-1"/>
<text text-anchor="middle" x="30" y="-25.8" font-family="FreeSans" font-size="8.00" fill="#1c2021">Node[114]</text>
<polyline fill="none" stroke="#2e3436" stroke-width="1.5" points="0,-19 60,-19 "/>
<text text-anchor="middle" x="30" y="-7.8" font-family="FreeSans" font-size="8.00" fill="#1c2021"> </text>
</g>
<!-- N113&#45;&gt;N114 -->
<g id="edge2" class="edge"><title>N113&#45;&gt;N114</title>
<path fill="none" stroke="#2e3436" stroke-width="2" d="M64.4527,-84.7733C58.2255,-72.8851 50.0138,-57.2081 43.1693,-44.1413"/>
<polygon fill="#2e3436" stroke="#2e3436" points="39.5287,-37.1912 45.9985,-42.2689 41.7117,-40.281 43.4517,-43.6029 43.0088,-43.8349 42.5659,-44.0669 40.8258,-40.7451 40.0191,-45.401 39.5287,-37.1912 39.5287,-37.1912"/>
<text text-anchor="middle" x="66" y="-58.8" font-family="FreeSans" font-size="8.00" fill="#2e3436">LIKES</text>
</g>
<!-- N116 -->
<g id="node5" class="node"><title>N116</title>
<polygon fill="#ffffff" stroke="#ffffff" stroke-width="1.5" points="101,-1 137,-1 149,-13 149,-25 137,-37 101,-37 89,-25 89,-13 101,-1"/>
<path fill="#ffffff" stroke="#ffffff" stroke-width="1.5" d="M137,-1C143,-1 149,-7 149,-13"/>
<path fill="#ffffff" stroke="#ffffff" stroke-width="1.5" d="M149,-25C149,-31 143,-37 137,-37"/>
<path fill="#ffffff" stroke="#ffffff" stroke-width="1.5" d="M101,-37C95,-37 89,-31 89,-25"/>
<path fill="#ffffff" stroke="#ffffff" stroke-width="1.5" d="M89,-13C89,-7 95,-1 101,-1"/>
<polyline fill="none" stroke="#2e3436" stroke-width="1.5" points="101,-1 137,-1 "/>
<path fill="none" stroke="#2e3436" stroke-width="1.5" d="M137,-1C143,-1 149,-7 149,-13"/>
<polyline fill="none" stroke="#2e3436" stroke-width="1.5" points="149,-13 149,-25 "/>
<path fill="none" stroke="#2e3436" stroke-width="1.5" d="M149,-25C149,-31 143,-37 137,-37"/>
<polyline fill="none" stroke="#2e3436" stroke-width="1.5" points="137,-37 101,-37 "/>
<path fill="none" stroke="#2e3436" stroke-width="1.5" d="M101,-37C95,-37 89,-31 89,-25"/>
<polyline fill="none" stroke="#2e3436" stroke-width="1.5" points="89,-25 89,-13 "/>
<path fill="none" stroke="#2e3436" stroke-width="1.5" d="M89,-13C89,-7 95,-1 101,-1"/>
<text text-anchor="middle" x="119" y="-25.8" font-family="FreeSans" font-size="8.00" fill="#1c2021">Node[116]</text>
<polyline fill="none" stroke="#2e3436" stroke-width="1.5" points="89,-19 149,-19 "/>
<text text-anchor="middle" x="119" y="-7.8" font-family="FreeSans" font-size="8.00" fill="#1c2021"> </text>
</g>
<!-- N113&#45;&gt;N116 -->
<g id="edge4" class="edge"><title>N113&#45;&gt;N116</title>
<path fill="none" stroke="#4e9a06" stroke-width="2" d="M83.7643,-84.7733C90.133,-72.8851 98.5314,-57.2081 105.531,-44.1413"/>
<polygon fill="#4e9a06" stroke="#4e9a06" points="109.255,-37.1912 108.688,-45.3961 107.925,-40.7328 106.154,-44.0384 105.713,-43.8023 105.272,-43.5662 107.043,-40.2606 102.738,-42.2085 109.255,-37.1912 109.255,-37.1912"/>
<text text-anchor="middle" x="111" y="-58.8" font-family="FreeSans" font-size="8.00" fill="#4e9a06">HATES</text>
</g>
<!-- N115 -->
<g id="node6" class="node"><title>N115</title>
<polygon fill="#ffffff" stroke="#ffffff" stroke-width="1.5" points="56,-169 92,-169 104,-181 104,-193 92,-205 56,-205 44,-193 44,-181 56,-169"/>
<path fill="#ffffff" stroke="#ffffff" stroke-width="1.5" d="M92,-169C98,-169 104,-175 104,-181"/>
<path fill="#ffffff" stroke="#ffffff" stroke-width="1.5" d="M104,-193C104,-199 98,-205 92,-205"/>
<path fill="#ffffff" stroke="#ffffff" stroke-width="1.5" d="M56,-205C50,-205 44,-199 44,-193"/>
<path fill="#ffffff" stroke="#ffffff" stroke-width="1.5" d="M44,-181C44,-175 50,-169 56,-169"/>
<polyline fill="none" stroke="#2e3436" stroke-width="1.5" points="56,-169 92,-169 "/>
<path fill="none" stroke="#2e3436" stroke-width="1.5" d="M92,-169C98,-169 104,-175 104,-181"/>
<polyline fill="none" stroke="#2e3436" stroke-width="1.5" points="104,-181 104,-193 "/>
<path fill="none" stroke="#2e3436" stroke-width="1.5" d="M104,-193C104,-199 98,-205 92,-205"/>
<polyline fill="none" stroke="#2e3436" stroke-width="1.5" points="92,-205 56,-205 "/>
<path fill="none" stroke="#2e3436" stroke-width="1.5" d="M56,-205C50,-205 44,-199 44,-193"/>
<polyline fill="none" stroke="#2e3436" stroke-width="1.5" points="44,-193 44,-181 "/>
<path fill="none" stroke="#2e3436" stroke-width="1.5" d="M44,-181C44,-175 50,-169 56,-169"/>
<text text-anchor="middle" x="74" y="-193.8" font-family="FreeSans" font-size="8.00" fill="#1c2021">Node[115]</text>
<polyline fill="none" stroke="#2e3436" stroke-width="1.5" points="44,-187 104,-187 "/>
<text text-anchor="middle" x="74" y="-175.8" font-family="FreeSans" font-size="8.00" fill="#1c2021"> </text>
</g>
<!-- N115&#45;&gt;N113 -->
<g id="edge6" class="edge"><title>N115&#45;&gt;N113</title>
<path fill="none" stroke="#2e3436" stroke-width="2" d="M74,-168.773C74,-157.105 74,-141.787 74,-128.87"/>
<polygon fill="#2e3436" stroke="#2e3436" points="74,-121.191 77.3751,-128.691 74.5,-124.941 74.5001,-128.691 74.0001,-128.691 73.5001,-128.691 73.5,-124.941 70.6251,-128.691 74,-121.191 74,-121.191"/>
<text text-anchor="middle" x="86" y="-142.8" font-family="FreeSans" font-size="8.00" fill="#2e3436">LIKES</text>
</g>
<!-- N117 -->
<g id="node8" class="node"><title>N117</title>
<polygon fill="#ffffff" stroke="#ffffff" stroke-width="1.5" points="145,-169 181,-169 193,-181 193,-193 181,-205 145,-205 133,-193 133,-181 145,-169"/>
<path fill="#ffffff" stroke="#ffffff" stroke-width="1.5" d="M181,-169C187,-169 193,-175 193,-181"/>
<path fill="#ffffff" stroke="#ffffff" stroke-width="1.5" d="M193,-193C193,-199 187,-205 181,-205"/>
<path fill="#ffffff" stroke="#ffffff" stroke-width="1.5" d="M145,-205C139,-205 133,-199 133,-193"/>
<path fill="#ffffff" stroke="#ffffff" stroke-width="1.5" d="M133,-181C133,-175 139,-169 145,-169"/>
<polyline fill="none" stroke="#2e3436" stroke-width="1.5" points="145,-169 181,-169 "/>
<path fill="none" stroke="#2e3436" stroke-width="1.5" d="M181,-169C187,-169 193,-175 193,-181"/>
<polyline fill="none" stroke="#2e3436" stroke-width="1.5" points="193,-181 193,-193 "/>
<path fill="none" stroke="#2e3436" stroke-width="1.5" d="M193,-193C193,-199 187,-205 181,-205"/>
<polyline fill="none" stroke="#2e3436" stroke-width="1.5" points="181,-205 145,-205 "/>
<path fill="none" stroke="#2e3436" stroke-width="1.5" d="M145,-205C139,-205 133,-199 133,-193"/>
<polyline fill="none" stroke="#2e3436" stroke-width="1.5" points="133,-193 133,-181 "/>
<path fill="none" stroke="#2e3436" stroke-width="1.5" d="M133,-181C133,-175 139,-169 145,-169"/>
<text text-anchor="middle" x="163" y="-193.8" font-family="FreeSans" font-size="8.00" fill="#1c2021">Node[117]</text>
<polyline fill="none" stroke="#2e3436" stroke-width="1.5" points="133,-187 193,-187 "/>
<text text-anchor="middle" x="163" y="-175.8" font-family="FreeSans" font-size="8.00" fill="#1c2021"> </text>
</g>
</g>
</svg>
