<?xml version="1.0" encoding="UTF-8" standalone="no"?>
<!DOCTYPE svg PUBLIC "-//W3C//DTD SVG 1.1//EN"
 "http://www.w3.org/Graphics/SVG/1.1/DTD/svg11.dtd">
<!-- Generated by graphviz version 2.26.3 (20100126.1600)
 -->
<!-- Title: g Pages: 1 -->
<svg width="209pt" height="140pt"
 viewBox="0.00 0.00 209.00 140.00" xmlns="http://www.w3.org/2000/svg" xmlns:xlink="http://www.w3.org/1999/xlink">
<g id="graph1" class="graph" transform="scale(1 1) rotate(0) translate(4 136)">
<title>g</title>
<polygon fill="white" stroke="white" points="-4,5 -4,-136 206,-136 206,5 -4,5"/>
<!-- N0 -->
<g id="node1" class="node"><title>N0</title>
<polygon fill="#ffffff" stroke="#ffffff" stroke-width="1.5" points="12,-95 42,-95 54,-107 54,-119 42,-131 12,-131 0,-119 0,-107 12,-95"/>
<path fill="#ffffff" stroke="#ffffff" stroke-width="1.5" d="M42,-95C48,-95 54,-101 54,-107"/>
<path fill="#ffffff" stroke="#ffffff" stroke-width="1.5" d="M54,-119C54,-125 48,-131 42,-131"/>
<path fill="#ffffff" stroke="#ffffff" stroke-width="1.5" d="M12,-131C6,-131 0,-125 0,-119"/>
<path fill="#ffffff" stroke="#ffffff" stroke-width="1.5" d="M0,-107C0,-101 6,-95 12,-95"/>
<polyline fill="none" stroke="#2e3436" stroke-width="1.5" points="12,-95 42,-95 "/>
<path fill="none" stroke="#2e3436" stroke-width="1.5" d="M42,-95C48,-95 54,-101 54,-107"/>
<polyline fill="none" stroke="#2e3436" stroke-width="1.5" points="54,-107 54,-119 "/>
<path fill="none" stroke="#2e3436" stroke-width="1.5" d="M54,-119C54,-125 48,-131 42,-131"/>
<polyline fill="none" stroke="#2e3436" stroke-width="1.5" points="42,-131 12,-131 "/>
<path fill="none" stroke="#2e3436" stroke-width="1.5" d="M12,-131C6,-131 0,-125 0,-119"/>
<polyline fill="none" stroke="#2e3436" stroke-width="1.5" points="0,-119 0,-107 "/>
<path fill="none" stroke="#2e3436" stroke-width="1.5" d="M0,-107C0,-101 6,-95 12,-95"/>
<text text-anchor="middle" x="27" y="-119.8" font-family="FreeSans" font-size="8.00" fill="#1c2021">Node[0]</text>
<polyline fill="none" stroke="#2e3436" stroke-width="1.5" points="0,-113 54,-113 "/>
<text text-anchor="middle" x="27" y="-101.8" font-family="FreeSans" font-size="8.00" fill="#1c2021"> </text>
</g>
<!-- N1 -->
<g id="node2" class="node"><title>N1</title>
<polygon fill="#ffffff" stroke="#ffffff" stroke-width="1.5" points="37.5,-6 86.5,-6 98.5,-18 98.5,-30 86.5,-42 37.5,-42 25.5,-30 25.5,-18 37.5,-6"/>
<path fill="#ffffff" stroke="#ffffff" stroke-width="1.5" d="M86.5,-6C92.5,-6 98.5,-12 98.5,-18"/>
<path fill="#ffffff" stroke="#ffffff" stroke-width="1.5" d="M98.5,-30C98.5,-36 92.5,-42 86.5,-42"/>
<path fill="#ffffff" stroke="#ffffff" stroke-width="1.5" d="M37.5,-42C31.5,-42 25.5,-36 25.5,-30"/>
<path fill="#ffffff" stroke="#ffffff" stroke-width="1.5" d="M25.5,-18C25.5,-12 31.5,-6 37.5,-6"/>
<polyline fill="none" stroke="#2e3436" stroke-width="1.5" points="37.5,-6 86.5,-6 "/>
<path fill="none" stroke="#2e3436" stroke-width="1.5" d="M86.5,-6C92.5,-6 98.5,-12 98.5,-18"/>
<polyline fill="none" stroke="#2e3436" stroke-width="1.5" points="98.5,-18 98.5,-30 "/>
<path fill="none" stroke="#2e3436" stroke-width="1.5" d="M98.5,-30C98.5,-36 92.5,-42 86.5,-42"/>
<polyline fill="none" stroke="#2e3436" stroke-width="1.5" points="86.5,-42 37.5,-42 "/>
<path fill="none" stroke="#2e3436" stroke-width="1.5" d="M37.5,-42C31.5,-42 25.5,-36 25.5,-30"/>
<polyline fill="none" stroke="#2e3436" stroke-width="1.5" points="25.5,-30 25.5,-18 "/>
<path fill="none" stroke="#2e3436" stroke-width="1.5" d="M25.5,-18C25.5,-12 31.5,-6 37.5,-6"/>
<text text-anchor="middle" x="62" y="-30.8" font-family="FreeSans" font-size="8.00" fill="#1c2021">Node[1]</text>
<polyline fill="none" stroke="#2e3436" stroke-width="1.5" points="25.5,-24 98.5,-24 "/>
<text text-anchor="start" x="33.5" y="-12.8" font-family="FreeSans" font-size="8.00" fill="#1c2021">name = &#39;you&#39;</text>
</g>
<!-- N2 -->
<g id="node3" class="node"><title>N2</title>
<polygon fill="#ffffff" stroke="#ffffff" stroke-width="1.5" points="139,-1 189,-1 201,-13 201,-35 189,-47 139,-47 127,-35 127,-13 139,-1"/>
<path fill="#ffffff" stroke="#ffffff" stroke-width="1.5" d="M189,-1C195,-1 201,-7 201,-13"/>
<path fill="#ffffff" stroke="#ffffff" stroke-width="1.5" d="M201,-35C201,-41 195,-47 189,-47"/>
<path fill="#ffffff" stroke="#ffffff" stroke-width="1.5" d="M139,-47C133,-47 127,-41 127,-35"/>
<path fill="#ffffff" stroke="#ffffff" stroke-width="1.5" d="M127,-13C127,-7 133,-1 139,-1"/>
<polyline fill="none" stroke="#2e3436" stroke-width="1.5" points="139,-1 189,-1 "/>
<path fill="none" stroke="#2e3436" stroke-width="1.5" d="M189,-1C195,-1 201,-7 201,-13"/>
<polyline fill="none" stroke="#2e3436" stroke-width="1.5" points="201,-13 201,-35 "/>
<path fill="none" stroke="#2e3436" stroke-width="1.5" d="M201,-35C201,-41 195,-47 189,-47"/>
<polyline fill="none" stroke="#2e3436" stroke-width="1.5" points="189,-47 139,-47 "/>
<path fill="none" stroke="#2e3436" stroke-width="1.5" d="M139,-47C133,-47 127,-41 127,-35"/>
<polyline fill="none" stroke="#2e3436" stroke-width="1.5" points="127,-35 127,-13 "/>
<path fill="none" stroke="#2e3436" stroke-width="1.5" d="M127,-13C127,-7 133,-1 139,-1"/>
<text text-anchor="middle" x="164" y="-35.8" font-family="FreeSans" font-size="8.00" fill="#1c2021">Node[2]</text>
<polyline fill="none" stroke="#2e3436" stroke-width="1.5" points="127,-29 201,-29 "/>
<text text-anchor="start" x="135" y="-17.8" font-family="FreeSans" font-size="8.00" fill="#1c2021">age = 25</text>
<text text-anchor="start" x="135" y="-7.8" font-family="FreeSans" font-size="8.00" fill="#1c2021">name = &#39;him&#39;</text>
</g>
<!-- N3 -->
<g id="node4" class="node"><title>N3</title>
<polygon fill="#ffffff" stroke="#ffffff" stroke-width="1.5" points="95,-95 131,-95 143,-107 143,-119 131,-131 95,-131 83,-119 83,-107 95,-95"/>
<path fill="#ffffff" stroke="#ffffff" stroke-width="1.5" d="M131,-95C137,-95 143,-101 143,-107"/>
<path fill="#ffffff" stroke="#ffffff" stroke-width="1.5" d="M143,-119C143,-125 137,-131 131,-131"/>
<path fill="#ffffff" stroke="#ffffff" stroke-width="1.5" d="M95,-131C89,-131 83,-125 83,-119"/>
<path fill="#ffffff" stroke="#ffffff" stroke-width="1.5" d="M83,-107C83,-101 89,-95 95,-95"/>
<polyline fill="none" stroke="#2e3436" stroke-width="1.5" points="95,-95 131,-95 "/>
<path fill="none" stroke="#2e3436" stroke-width="1.5" d="M131,-95C137,-95 143,-101 143,-107"/>
<polyline fill="none" stroke="#2e3436" stroke-width="1.5" points="143,-107 143,-119 "/>
<path fill="none" stroke="#2e3436" stroke-width="1.5" d="M143,-119C143,-125 137,-131 131,-131"/>
<polyline fill="none" stroke="#2e3436" stroke-width="1.5" points="131,-131 95,-131 "/>
<path fill="none" stroke="#2e3436" stroke-width="1.5" d="M95,-131C89,-131 83,-125 83,-119"/>
<polyline fill="none" stroke="#2e3436" stroke-width="1.5" points="83,-119 83,-107 "/>
<path fill="none" stroke="#2e3436" stroke-width="1.5" d="M83,-107C83,-101 89,-95 95,-95"/>
<text text-anchor="middle" x="113" y="-119.8" font-family="FreeSans" font-size="8.00" fill="#1c2021">Node[3]</text>
<polyline fill="none" stroke="#2e3436" stroke-width="1.5" points="83,-113 143,-113 "/>
<text text-anchor="start" x="91" y="-101.8" font-family="FreeSans" font-size="8.00" fill="#1c2021">name = &#39;I&#39;</text>
</g>
<!-- N3&#45;&gt;N1 -->
<g id="edge4" class="edge"><title>N3&#45;&gt;N1</title>
<path fill="none" stroke="#2e3436" stroke-width="2" d="M102.679,-94.9895C95.1254,-81.8071 84.7773,-63.7486 76.4086,-49.1445"/>
<polygon fill="#2e3436" stroke="#2e3436" points="72.4803,-42.2892 79.1376,-47.1185 74.7786,-45.2942 76.6431,-48.5479 76.2093,-48.7965 75.7754,-49.0451 73.911,-45.7914 73.281,-50.4745 72.4803,-42.2892 72.4803,-42.2892"/>
<text text-anchor="middle" x="101" y="-68.8" font-family="FreeSans" font-size="8.00" fill="#2e3436">know</text>
</g>
<!-- N3&#45;&gt;N2 -->
<g id="edge2" class="edge"><title>N3&#45;&gt;N2</title>
<path fill="none" stroke="#2e3436" stroke-width="2" d="M123.321,-94.9895C130.124,-83.1166 139.194,-67.2883 147.043,-53.5908"/>
<polygon fill="#2e3436" stroke="#2e3436" points="150.783,-47.0644 149.983,-55.2498 149.353,-50.5667 147.488,-53.8203 147.054,-53.5718 146.621,-53.3232 148.485,-50.0695 144.126,-51.8937 150.783,-47.0644 150.783,-47.0644"/>
<text text-anchor="middle" x="149" y="-68.8" font-family="FreeSans" font-size="8.00" fill="#2e3436">know</text>
</g>
</g>
</svg>
