<?xml version="1.0" encoding="UTF-8" standalone="no"?>
<!DOCTYPE svg PUBLIC "-//W3C//DTD SVG 1.1//EN"
 "http://www.w3.org/Graphics/SVG/1.1/DTD/svg11.dtd">
<!-- Generated by graphviz version 2.26.3 (20100126.1600)
 -->
<!-- Title: g Pages: 1 -->
<svg width="179pt" height="130pt"
 viewBox="0.00 0.00 179.00 130.00" xmlns="http://www.w3.org/2000/svg" xmlns:xlink="http://www.w3.org/1999/xlink">
<g id="graph1" class="graph" transform="scale(1 1) rotate(0) translate(4 126)">
<title>g</title>
<polygon fill="white" stroke="white" points="-4,5 -4,-126 176,-126 176,5 -4,5"/>
<!-- A Node -->
<g id="node1" class="node"><title>A Node</title>
<polygon fill="#a8e270" stroke="#a8e270" stroke-width="1.5" points="104,-122 74,-122 62,-110 62,-98 74,-86 104,-86 116,-98 116,-110 104,-122"/>
<path fill="#a8e270" stroke="#a8e270" stroke-width="1.5" d="M74,-122C68,-122 62,-116 62,-110"/>
<path fill="#a8e270" stroke="#a8e270" stroke-width="1.5" d="M62,-98C62,-92 68,-86 74,-86"/>
<path fill="#a8e270" stroke="#a8e270" stroke-width="1.5" d="M104,-86C110,-86 116,-92 116,-98"/>
<path fill="#a8e270" stroke="#a8e270" stroke-width="1.5" d="M116,-110C116,-116 110,-122 104,-122"/>
<polyline fill="none" stroke="#2e3436" stroke-width="1.5" points="104,-122 74,-122 "/>
<path fill="none" stroke="#2e3436" stroke-width="1.5" d="M74,-122C68,-122 62,-116 62,-110"/>
<polyline fill="none" stroke="#2e3436" stroke-width="1.5" points="62,-110 62,-98 "/>
<path fill="none" stroke="#2e3436" stroke-width="1.5" d="M62,-98C62,-92 68,-86 74,-86"/>
<polyline fill="none" stroke="#2e3436" stroke-width="1.5" points="74,-86 104,-86 "/>
<path fill="none" stroke="#2e3436" stroke-width="1.5" d="M104,-86C110,-86 116,-92 116,-98"/>
<polyline fill="none" stroke="#2e3436" stroke-width="1.5" points="116,-98 116,-110 "/>
<path fill="none" stroke="#2e3436" stroke-width="1.5" d="M116,-110C116,-116 110,-122 104,-122"/>
<text text-anchor="middle" x="89" y="-101.5" font-family="FreeSans" font-size="10.00" fill="#1c2021">A Node</text>
</g>
<!-- Relationships -->
<g id="node3" class="node"><title>Relationships</title>
<polygon fill="#fadcad" stroke="#fadcad" stroke-width="1.5" points="66,-36 12,-36 2.36848e-14,-24 1.18424e-14,-12 12,-1.55773e-14 66,-5.739e-15 78,-12 78,-24 66,-36"/>
<path fill="#fadcad" stroke="#fadcad" stroke-width="1.5" d="M12,-36C6,-36 2.96059e-14,-30 2.36848e-14,-24"/>
<path fill="#fadcad" stroke="#fadcad" stroke-width="1.5" d="M1.18424e-14,-12C5.92119e-15,-6 6,-1.66704e-14 12,-1.55773e-14"/>
<path fill="#fadcad" stroke="#fadcad" stroke-width="1.5" d="M66,-5.739e-15C72,-4.64586e-15 78,-6 78,-12"/>
<path fill="#fadcad" stroke="#fadcad" stroke-width="1.5" d="M78,-24C78,-30 72,-36 66,-36"/>
<polyline fill="none" stroke="#2e3436" stroke-width="1.5" points="66,-36 12,-36 "/>
<path fill="none" stroke="#2e3436" stroke-width="1.5" d="M12,-36C6,-36 2.96059e-14,-30 2.36848e-14,-24"/>
<polyline fill="none" stroke="#2e3436" stroke-width="1.5" points="2.36848e-14,-24 1.18424e-14,-12 "/>
<path fill="none" stroke="#2e3436" stroke-width="1.5" d="M1.18424e-14,-12C5.92119e-15,-6 6,-1.66704e-14 12,-1.55773e-14"/>
<polyline fill="none" stroke="#2e3436" stroke-width="1.5" points="12,-1.55773e-14 66,-5.739e-15 "/>
<path fill="none" stroke="#2e3436" stroke-width="1.5" d="M66,-5.739e-15C72,-4.64586e-15 78,-6 78,-12"/>
<polyline fill="none" stroke="#2e3436" stroke-width="1.5" points="78,-12 78,-24 "/>
<path fill="none" stroke="#2e3436" stroke-width="1.5" d="M78,-24C78,-30 72,-36 66,-36"/>
<text text-anchor="middle" x="39" y="-15.5" font-family="FreeSans" font-size="10.00" fill="#1c2021">Relationships</text>
</g>
<!-- A Node&#45;&gt;Relationships -->
<g id="edge2" class="edge"><title>A Node&#45;&gt;Relationships</title>
<path fill="none" stroke="#2e3436" stroke-width="2" d="M71.9345,-85.7821C67.3569,-80.325 62.6663,-74.1494 59,-68 54.4547,-60.3762 50.53,-51.5305 47.3908,-43.4177"/>
<polygon fill="#2e3436" stroke="#2e3436" points="44.7334,-36.2292 50.4997,-42.0936 46.5027,-39.5732 47.803,-43.0906 47.334,-43.2639 46.8651,-43.4373 45.5647,-39.92 44.1684,-44.4342 44.7334,-36.2292 44.7334,-36.2292"/>
<text text-anchor="middle" x="81" y="-58.5" font-family="FreeSans" font-size="10.00" fill="#1c2021">can have</text>
</g>
<!-- Properties -->
<g id="node5" class="node"><title>Properties</title>
<polygon fill="#fadcad" stroke="#fadcad" stroke-width="1.5" points="159,-36 119,-36 107,-24 107,-12 119,-1.5099e-14 159,-6.21725e-15 171,-12 171,-24 159,-36"/>
<path fill="#fadcad" stroke="#fadcad" stroke-width="1.5" d="M119,-36C113,-36 107,-30 107,-24"/>
<path fill="#fadcad" stroke="#fadcad" stroke-width="1.5" d="M107,-12C107,-6 113,-1.64313e-14 119,-1.5099e-14"/>
<path fill="#fadcad" stroke="#fadcad" stroke-width="1.5" d="M159,-6.21725e-15C165,-4.88498e-15 171,-6 171,-12"/>
<path fill="#fadcad" stroke="#fadcad" stroke-width="1.5" d="M171,-24C171,-30 165,-36 159,-36"/>
<polyline fill="none" stroke="#2e3436" stroke-width="1.5" points="159,-36 119,-36 "/>
<path fill="none" stroke="#2e3436" stroke-width="1.5" d="M119,-36C113,-36 107,-30 107,-24"/>
<polyline fill="none" stroke="#2e3436" stroke-width="1.5" points="107,-24 107,-12 "/>
<path fill="none" stroke="#2e3436" stroke-width="1.5" d="M107,-12C107,-6 113,-1.64313e-14 119,-1.5099e-14"/>
<polyline fill="none" stroke="#2e3436" stroke-width="1.5" points="119,-1.5099e-14 159,-6.21725e-15 "/>
<path fill="none" stroke="#2e3436" stroke-width="1.5" d="M159,-6.21725e-15C165,-4.88498e-15 171,-6 171,-12"/>
<polyline fill="none" stroke="#2e3436" stroke-width="1.5" points="171,-12 171,-24 "/>
<path fill="none" stroke="#2e3436" stroke-width="1.5" d="M171,-24C171,-30 165,-36 159,-36"/>
<text text-anchor="middle" x="139" y="-15.5" font-family="FreeSans" font-size="10.00" fill="#1c2021">Properties</text>
</g>
<!-- A Node&#45;&gt;Properties -->
<g id="edge4" class="edge"><title>A Node&#45;&gt;Properties</title>
<path fill="none" stroke="#2e3436" stroke-width="2" d="M99.6037,-85.7616C106.829,-73.3335 116.489,-56.719 124.435,-43.0524"/>
<polygon fill="#2e3436" stroke="#2e3436" points="128.412,-36.2121 127.56,-44.3923 126.959,-39.7053 125.074,-42.9472 124.642,-42.6959 124.21,-42.4446 126.094,-39.2027 121.724,-40.9995 128.412,-36.2121 128.412,-36.2121"/>
<text text-anchor="middle" x="138" y="-58.5" font-family="FreeSans" font-size="10.00" fill="#1c2021">can have</text>
</g>
</g>
</svg>
